<svg width="1440" height="1232" viewBox="0 0 1440 1232" fill="none" xmlns="http://www.w3.org/2000/svg">
<g opacity="0.5">
<path opacity="0.0526316" d="M418.309 1648.48C486.513 1666.92 651.619 1658.02 766.414 1474.94C909.907 1246.1 837.006 992.924 937.745 753.626C1012.1 577.007 1280.12 189.93 1579.32 153.427" stroke="#00D8FF"/>
<path opacity="0.105263" d="M312.486 1580.86C378.389 1606.32 543.521 1614.73 676.824 1444.66C843.452 1232.07 797.414 972.658 922.614 745.201C1015.02 577.321 1322.03 220.381 1623.41 215.353" stroke="#00D8FF"/>
<path opacity="0.157895" d="M213.757 1505.68C276.637 1537.89 439.986 1563.52 590.335 1408.31C778.272 1214.3 759.602 951.502 907.892 738.378C1017.34 581.077 1359.98 258.183 1660.24 284.685" stroke="#00D8FF"/>
<path opacity="0.210526" d="M122.869 1423.73C182.038 1462.34 341.813 1504.9 507.562 1366.26C714.749 1192.96 723.652 929.643 893.407 733.187C1018.7 588.188 1393.21 302.879 1689.05 360.622" stroke="#00D8FF"/>
<path opacity="0.263158" d="M40.4908 1335.86C95.2998 1380.45 249.751 1439.47 429.084 1318.92C653.251 1168.22 689.628 907.284 878.989 729.648C1018.75 598.54 1421.04 353.942 1709.22 442.291" stroke="#00D8FF"/>
<path opacity="0.315789" d="M-32.8086 1243C17.0401 1293.07 164.476 1367.92 355.428 1266.77C594.118 1140.33 657.572 884.625 864.463 727.756C1017.16 611.975 1442.81 410.768 1720.18 528.756" stroke="#00D8FF"/>
<path opacity="0.368421" d="M-96.5566 1146.13C-52.2144 1201.13 86.5898 1290.98 287.069 1210.34C537.668 1109.55 627.503 861.874 849.658 727.491C1013.62 628.306 1457.98 472.693 1721.49 619.028" stroke="#00D8FF"/>
<path opacity="0.421053" d="M-150.384 1046.25C-112.034 1105.59 16.6179 1209.45 224.427 1150.22C484.189 1076.17 599.421 839.242 834.406 728.816C1007.84 647.314 1466.03 539.001 1712.8 712.079" stroke="#00D8FF"/>
<path opacity="0.473684" d="M-194.032 944.434C-162.094 1007.45 -45.004 1124.2 167.859 1087.01C433.938 1040.52 573.304 816.934 818.544 731.676C999.55 668.749 1466.54 608.923 1693.88 806.848" stroke="#00D8FF"/>
<path opacity="0.526316" d="M-227.355 841.745C-202.181 907.759 -97.9345 1036.1 117.65 1021.36C387.131 1002.94 549.104 795.152 801.913 735.995C988.505 692.333 1459.19 681.649 1664.59 902.253" stroke="#00D8FF"/>
<path opacity="0.578947" d="M-250.318 739.272C-232.182 807.555 -141.922 946.092 74.0217 953.97C343.952 963.818 526.758 774.096 784.365 741.689C974.499 717.771 1443.73 756.345 1624.94 997.211" stroke="#00D8FF"/>
<path opacity="0.631579" d="M-263 638.096C-252.1 707.901 -176.816 855.114 37.1218 885.521C304.544 923.531 506.18 753.956 765.763 748.654C957.355 744.741 1419.98 832.152 1575.03 1090.64" stroke="#00D8FF"/>
<path opacity="0.684211" d="M-265.592 539.284C-262.049 609.846 -202.565 764.122 7.02222 816.725C269.006 882.479 487.263 734.911 745.979 756.771C936.93 772.906 1387.89 908.196 1515.06 1181.47" stroke="#00D8FF"/>
<path opacity="0.736842" d="M-258.398 443.877C-262.25 514.423 -219.218 674.071 -16.2776 748.294C237.398 841.073 469.884 717.127 724.898 765.911C913.117 801.918 1347.46 983.604 1445.37 1268.68" stroke="#00D8FF"/>
<path opacity="0.789474" d="M-241.825 352.883C-253.03 422.64 -226.922 585.911 -32.8513 680.941C209.737 799.728 453.905 700.762 702.422 775.935C885.846 831.419 1298.82 1057.51 1366.4 1351.26" stroke="#00D8FF"/>
<path opacity="0.842105" d="M-216.389 267.253C-234.824 335.456 -225.925 500.562 -42.8516 615.357C185.991 758.851 439.167 685.95 678.465 786.688C855.084 861.041 1242.16 1129.06 1278.66 1428.26" stroke="#00D8FF"/>
<path opacity="0.894737" d="M-182.696 187.887C-208.159 253.79 -216.568 418.922 -46.4961 552.224C166.094 718.852 425.503 672.814 652.96 798.015C820.84 890.422 1177.78 1197.43 1182.81 1498.81" stroke="#00D8FF"/>
<path opacity="0.947368" d="M-141.449 115.612C-173.661 178.493 -199.285 341.841 -44.0784 492.191C149.929 680.128 412.73 661.458 625.854 809.748C783.155 919.197 1106.05 1261.84 1079.55 1562.09" stroke="#00D8FF"/>
<path d="M-93.4291 51.1817C-132.038 110.351 -174.595 270.126 -35.9554 435.875C137.345 643.062 400.657 651.964 597.113 821.719C742.112 947.011 1027.42 1321.53 969.678 1617.37" stroke="#00D8FF"/>
</g>
</svg>
