<svg width="100" height="100" viewBox="0 0 100 100" fill="none" xmlns="http://www.w3.org/2000/svg">
<rect width="100" height="100" rx="30" fill="url(#paint0_linear_9_42)"/>
<g opacity="0.25" filter="url(#filter0_f_9_42)">
<rect x="15.0655" y="50" width="68.1223" height="42.5764" rx="21.2882" fill="url(#paint1_linear_9_42)"/>
</g>
<rect x="13" y="12.9999" width="73.7991" height="73.7991" rx="30" fill="url(#paint2_linear_9_42)"/>
<g filter="url(#filter1_i_9_42)">
<path d="M32.7273 64.0076H39.0909V48.553L30 41.7349V61.2803C30 62.7894 31.2227 64.0076 32.7273 64.0076Z" fill="#4285F4"/>
<path d="M60.9091 64.0076H67.2727C68.7818 64.0076 70 62.7849 70 61.2803V41.7349L60.9091 48.553" fill="#34A853"/>
<path d="M60.9091 36.735V48.5532L70 41.735V38.0986C70 34.7259 66.15 32.8032 63.4545 34.8259" fill="#FBBC04"/>
<path d="M39.0909 48.553V36.7349L50 44.9167L60.9091 36.7349V48.553L50 56.7349" fill="#EA4335"/>
<path d="M30 38.0986V41.735L39.0909 48.5532V36.735L36.5455 34.8259C33.8455 32.8032 30 34.7259 30 38.0986Z" fill="#C5221F"/>
</g>
<defs>
<filter id="filter0_f_9_42" x="9.60549" y="44.54" width="79.0423" height="53.4964" filterUnits="userSpaceOnUse" color-interpolation-filters="sRGB">
<feFlood flood-opacity="0" result="BackgroundImageFix"/>
<feBlend mode="normal" in="SourceGraphic" in2="BackgroundImageFix" result="shape"/>
<feGaussianBlur stdDeviation="2.73" result="effect1_foregroundBlur_9_42"/>
</filter>
<filter id="filter1_i_9_42" x="27" y="27" width="45" height="45.5" filterUnits="userSpaceOnUse" color-interpolation-filters="sRGB">
<feFlood flood-opacity="0" result="BackgroundImageFix"/>
<feBlend mode="normal" in="SourceGraphic" in2="BackgroundImageFix" result="shape"/>
<feColorMatrix in="SourceAlpha" type="matrix" values="0 0 0 0 0 0 0 0 0 0 0 0 0 0 0 0 0 0 127 0" result="hardAlpha"/>
<feOffset dy="0.5"/>
<feGaussianBlur stdDeviation="1.25"/>
<feComposite in2="hardAlpha" operator="arithmetic" k2="-1" k3="1"/>
<feColorMatrix type="matrix" values="0 0 0 0 0 0 0 0 0 0 0 0 0 0 0 0 0 0 0.1 0"/>
<feBlend mode="normal" in2="shape" result="effect1_innerShadow_9_42"/>
</filter>
<linearGradient id="paint0_linear_9_42" x1="8.40611" y1="6.55022" x2="82.6419" y2="100" gradientUnits="userSpaceOnUse">
<stop stop-color="#FBFBFC"/>
<stop offset="1" stop-color="#DBDDE8"/>
</linearGradient>
<linearGradient id="paint1_linear_9_42" x1="53.8347" y1="93.8462" x2="39.9491" y2="44.9043" gradientUnits="userSpaceOnUse">
<stop/>
<stop offset="1" stop-color="#323232"/>
</linearGradient>
<linearGradient id="paint2_linear_9_42" x1="55" y1="88.9999" x2="20.5" y2="12.9999" gradientUnits="userSpaceOnUse">
<stop/>
<stop offset="1" stop-color="#323232"/>
</linearGradient>
</defs>
</svg>
