<svg xmlns="http://www.w3.org/2000/svg" width="100" height="100" fill="none" xmlns:v="https://vecta.io/nano"><rect width="100" height="100" rx="30" fill="url(#C)"/><g opacity=".25" filter="url(#A)"><rect x="15.066" y="50" width="68.122" height="42.576" rx="21.288" fill="url(#D)"/></g><rect x="13" y="13" width="73.799" height="73.799" rx="30" fill="url(#E)"/><g filter="url(#B)"><path d="M32.727 64.008h6.364V48.553L30 41.735V61.28c0 1.509 1.223 2.727 2.727 2.727z" fill="#4285f4"/><path d="M60.909 64.008h6.364c1.509 0 2.727-1.223 2.727-2.727V41.735l-9.091 6.818" fill="#34a853"/><path d="M60.909 36.735v11.818L70 41.735v-3.636c0-3.373-3.85-5.295-6.545-3.273" fill="#fbbc04"/><path d="M39.091 48.553V36.735L50 44.917l10.909-8.182v11.818L50 56.735" fill="#ea4335"/><path d="M30 38.099v3.636l9.091 6.818V36.735l-2.545-1.909c-2.7-2.023-6.545-.1-6.545 3.273z" fill="#c5221f"/></g><defs><filter id="A" x="9.605" y="44.54" width="79.042" height="53.496" filterUnits="userSpaceOnUse" color-interpolation-filters="sRGB"><feFlood flood-opacity="0"/><feBlend in="SourceGraphic"/><feGaussianBlur stdDeviation="2.73"/></filter><filter id="B" x="27" y="27" width="45" height="45.5" filterUnits="userSpaceOnUse" color-interpolation-filters="sRGB"><feFlood flood-opacity="0"/><feBlend in="SourceGraphic" result="B"/><feColorMatrix in="SourceAlpha" values="0 0 0 0 0 0 0 0 0 0 0 0 0 0 0 0 0 0 127 0" result="C"/><feOffset dy="0.5"/><feGaussianBlur stdDeviation="1.25"/><feComposite in2="C" operator="arithmetic" k2="-1" k3="1"/><feColorMatrix values="0 0 0 0 0 0 0 0 0 0 0 0 0 0 0 0 0 0 0.1 0"/><feBlend in2="B"/></filter><linearGradient id="C" x1="8.406" y1="6.55" x2="82.642" y2="100" gradientUnits="userSpaceOnUse"><stop stop-color="#fbfbfc"/><stop offset="1" stop-color="#dbdde8"/></linearGradient><linearGradient id="D" x1="53.835" y1="93.846" x2="39.949" y2="44.904" gradientUnits="userSpaceOnUse"><stop/><stop offset="1" stop-color="#323232"/></linearGradient><linearGradient id="E" x1="55" y1="89" x2="20.5" y2="13" gradientUnits="userSpaceOnUse"><stop/><stop offset="1" stop-color="#323232"/></linearGradient></defs></svg>