<svg xmlns="http://www.w3.org/2000/svg" width="100" height="100" fill="none" xmlns:v="https://vecta.io/nano"><rect width="100" height="100" rx="30" fill="url(#C)"/><g opacity=".25" filter="url(#A)"><rect x="15.066" y="50" width="68.122" height="42.576" rx="21.288" fill="url(#D)"/></g><rect x="13" y="13" width="73.799" height="73.799" rx="30" fill="url(#E)"/><g filter="url(#B)"><path fill-rule="evenodd" d="M50 30.998c-11.05 0-20 8.914-20 19.92 0 8.815 5.725 16.26 13.675 18.899 1 .174 1.375-.423 1.375-.946l-.025-3.71c-5.025.921-6.325-1.22-6.725-2.341-.225-.573-1.2-2.341-2.05-2.814-.7-.373-1.7-1.295-.025-1.32 1.575-.025 2.7 1.444 3.075 2.042 1.8 3.013 4.675 2.166 5.825 1.644.175-1.295.7-2.166 1.275-2.664-4.45-.498-9.1-2.216-9.1-9.836 0-2.166.775-3.959 2.05-5.354-.2-.498-.9-2.54.2-5.279 0 0 1.675-.523 5.5 2.042 1.6-.448 3.3-.672 5-.672s3.4.224 5 .672c3.825-2.59 5.5-2.042 5.5-2.042 1.1 2.739.4 4.781.2 5.279 1.275 1.394 2.05 3.162 2.05 5.354 0 7.645-4.675 9.338-9.125 9.836.725.622 1.35 1.818 1.35 3.685L55 68.871c0 .523.375 1.145 1.375.946C64.275 67.178 70 59.708 70 50.918c0-11.006-8.95-19.92-20-19.92z" fill="#fff"/></g><defs><filter id="A" x="9.606" y="44.54" width="79.042" height="53.496" filterUnits="userSpaceOnUse" color-interpolation-filters="sRGB"><feFlood flood-opacity="0"/><feBlend in="SourceGraphic"/><feGaussianBlur stdDeviation="2.73"/></filter><filter id="B" x="27" y="28" width="45" height="45.5" filterUnits="userSpaceOnUse" color-interpolation-filters="sRGB"><feFlood flood-opacity="0"/><feBlend in="SourceGraphic" result="B"/><feColorMatrix in="SourceAlpha" values="0 0 0 0 0 0 0 0 0 0 0 0 0 0 0 0 0 0 127 0" result="C"/><feOffset dy="0.5"/><feGaussianBlur stdDeviation="1.25"/><feComposite in2="C" operator="arithmetic" k2="-1" k3="1"/><feColorMatrix values="0 0 0 0 0 0 0 0 0 0 0 0 0 0 0 0 0 0 0.1 0"/><feBlend in2="B"/></filter><linearGradient id="C" x1="8.406" y1="6.55" x2="82.642" y2="100" gradientUnits="userSpaceOnUse"><stop stop-color="#fbfbfc"/><stop offset="1" stop-color="#dbdde8"/></linearGradient><linearGradient id="D" x1="53.835" y1="93.846" x2="39.949" y2="44.904" gradientUnits="userSpaceOnUse"><stop offset=".073" stop-color="#1b1f23"/><stop offset=".974" stop-color="#363c42"/></linearGradient><linearGradient id="E" x1="55" y1="89" x2="20.5" y2="13" gradientUnits="userSpaceOnUse"><stop offset=".073" stop-color="#1b1f23"/><stop offset=".974" stop-color="#363c42"/></linearGradient></defs></svg>