<svg width="24" height="19" viewBox="0 0 24 19" fill="none" xmlns="http://www.w3.org/2000/svg">
<path d="M24 2.45953V16.3685C24 17.2725 23.268 18.0045 22.364 18.0045H18.545V8.73253L12 13.6425L5.455 8.73253V18.0055H1.636C1.42107 18.0055 1.20825 17.9632 1.0097 17.8809C0.811145 17.7986 0.63075 17.678 0.47882 17.526C0.32689 17.374 0.206404 17.1935 0.124246 16.9949C0.0420884 16.7963 -0.000131068 16.5835 3.05652e-07 16.3685V2.45953C3.05652e-07 0.436531 2.309 -0.718469 3.927 0.495531L5.455 1.64253L12 6.55053L18.545 1.64053L20.073 0.495531C21.69 -0.717469 24 0.436531 24 2.45953Z" fill="#E2FBFF"/>
</svg>
