<svg xmlns="http://www.w3.org/2000/svg" width="100" height="100" fill="none" xmlns:v="https://vecta.io/nano"><style><![CDATA[.B{color-interpolation-filters:sRGB}.C{flood-opacity:0}]]></style><rect width="100" height="100" rx="30" fill="url(#D)"/><g opacity=".25" filter="url(#A)"><rect x="15.066" y="50" width="68.122" height="42.576" rx="21.288" fill="url(#E)"/></g><rect x="13" y="13" width="73.799" height="73.799" rx="30" fill="url(#F)"/><g clip-path="url(#G)" filter="url(#B)"><g filter="url(#C)"><path d="M64.228 70.82c3.025-1.169 5.416-3.56 6.584-6.585.553-1.433.94-3.067 1.046-5.459l.062-1.502V41.299l-.044-1.07c-.105-2.391-.492-4.034-1.046-5.459-.571-1.512-1.451-2.866-2.601-3.99a11.05 11.05 0 0 0-3.983-2.593c-1.433-.553-3.068-.94-5.459-1.045L49.504 27l-9.274.131c-2.391.105-4.034.492-5.459 1.046-1.512.571-2.866 1.451-3.991 2.603-1.142 1.126-2.03 2.488-2.593 3.982-.553 1.433-.94 3.067-1.045 5.459L27 49.504l.131 9.274c.105 2.391.492 4.036 1.047 5.459a11.11 11.11 0 0 0 2.601 3.991 11.07 11.07 0 0 0 3.983 2.593c1.433.553 3.068.94 5.459 1.045l9.274.133 9.274-.133c2.391-.105 4.034-.492 5.459-1.045l-.001-.001zm-14.715-2.866c-6.005 0-6.725-.026-9.09-.131-2.198-.097-3.384-.466-4.175-.773a6.95 6.95 0 0 1-2.585-1.679c-.747-.73-1.319-1.608-1.679-2.585-.307-.791-.676-1.987-.773-4.175l-.131-9.09.131-9.089c.097-2.198.466-3.384.773-4.175.361-.976.932-1.864 1.689-2.585a7 7 0 0 1 2.583-1.679c.791-.307 1.987-.676 4.175-.773l9.089-.131 9.09.131c2.198.097 3.384.466 4.175.773.975.361 1.863.932 2.583 1.679.747.73 1.319 1.608 1.679 2.585.307.791.676 1.986.773 4.175l.131 9.089-.131 9.081c-.097 2.198-.466 3.384-.773 4.175a7.46 7.46 0 0 1-4.272 4.272c-.791.307-1.986.676-4.175.773l-9.089.131.001.001z" fill="#fff"/><path d="M49.504 37.942c-6.382 0-11.56 5.178-11.56 11.56s5.178 11.56 11.56 11.56 11.559-5.178 11.559-11.56-5.178-11.56-11.559-11.56zm0 19.058a7.5 7.5 0 0 1-7.499-7.499 7.5 7.5 0 0 1 7.499-7.499 7.5 7.5 0 0 1 7.499 7.499A7.5 7.5 0 0 1 49.504 57z" fill="#fff"/><path d="M64.219 37.486a2.7 2.7 0 0 0-2.7-2.698 2.7 2.7 0 0 0-2.698 2.698 2.7 2.7 0 0 0 2.698 2.698 2.7 2.7 0 0 0 2.7-2.698z" fill="#fff"/></g></g><defs><filter id="A" x="9.605" y="44.54" width="79.042" height="53.496" filterUnits="userSpaceOnUse" class="B"><feFlood class="C"/><feBlend in="SourceGraphic"/><feGaussianBlur stdDeviation="2.73"/></filter><filter id="B" x="27" y="27" width="45" height="45.5" filterUnits="userSpaceOnUse" class="B"><feFlood class="C"/><feBlend in="SourceGraphic" result="B"/><feColorMatrix in="SourceAlpha" values="0 0 0 0 0 0 0 0 0 0 0 0 0 0 0 0 0 0 127 0" result="C"/><feOffset dy="0.5"/><feGaussianBlur stdDeviation="1.25"/><feComposite in2="C" operator="arithmetic" k2="-1" k3="1"/><feColorMatrix values="0 0 0 0 0 0 0 0 0 0 0 0 0 0 0 0 0 0 0.2 0"/><feBlend in2="B"/></filter><filter id="C" x="27" y="27" width="44.92" height="45.5" filterUnits="userSpaceOnUse" class="B"><feFlood class="C"/><feBlend in="SourceGraphic" result="B"/><feColorMatrix in="SourceAlpha" values="0 0 0 0 0 0 0 0 0 0 0 0 0 0 0 0 0 0 127 0" result="C"/><feOffset dy="0.5"/><feGaussianBlur stdDeviation="1.25"/><feComposite in2="C" operator="arithmetic" k2="-1" k3="1"/><feColorMatrix values="0 0 0 0 0 0 0 0 0 0 0 0 0 0 0 0 0 0 0.1 0"/><feBlend in2="B"/></filter><linearGradient id="D" x1="8.406" y1="6.55" x2="82.642" y2="100" gradientUnits="userSpaceOnUse"><stop stop-color="#fbfbfc"/><stop offset="1" stop-color="#dbdde8"/></linearGradient><linearGradient id="E" x1="49.127" y1="48.673" x2="49.127" y2="94.808" gradientUnits="userSpaceOnUse"><stop stop-color="#fca759"/><stop offset=".19" stop-color="#e82d56"/><stop offset=".74" stop-color="#a22db4"/><stop offset="1" stop-color="#643dce"/></linearGradient><linearGradient id="F" x1="49.9" y1="10.7" x2="49.9" y2="90.667" gradientUnits="userSpaceOnUse"><stop stop-color="#fca759"/><stop offset=".19" stop-color="#e82d56"/><stop offset=".74" stop-color="#a22db4"/><stop offset="1" stop-color="#643dce"/></linearGradient><clipPath id="G"><path fill="#fff" transform="translate(27 27)" d="M0 0h45v45H0z"/></clipPath></defs></svg>