<svg xmlns="http://www.w3.org/2000/svg" width="100" height="100" fill="none" xmlns:v="https://vecta.io/nano"><rect width="100" height="100" rx="30" fill="url(#C)"/><g opacity=".25" filter="url(#A)"><rect x="15.066" y="50" width="68.122" height="42.576" rx="21.288" fill="url(#D)"/></g><rect x="13" y="13" width="73.799" height="73.799" rx="30" fill="url(#E)"/><g filter="url(#B)"><path d="M38.698 67.656V42.923h-8.214v24.734h8.215-.001zm-4.105-28.11c2.864 0 4.647-1.899 4.647-4.273C39.186 32.846 37.456 31 34.647 31S30 32.846 30 35.274c0 2.374 1.782 4.273 4.539 4.273h.053.001zm8.652 28.11h8.213V53.846c0-.738.054-1.478.271-2.006.593-1.477 1.945-3.007 4.215-3.007 2.971 0 4.161 2.268 4.161 5.593v13.23h8.213V53.475c0-7.597-4.052-11.132-9.455-11.132-4.43 0-6.376 2.478-7.457 4.166h.055v-3.586h-8.213c.107 2.32-.001 24.734-.001 24.734v-.001z" fill="#fff"/></g><defs><filter id="A" x="9.606" y="44.54" width="79.042" height="53.496" filterUnits="userSpaceOnUse" color-interpolation-filters="sRGB"><feFlood flood-opacity="0"/><feBlend in="SourceGraphic"/><feGaussianBlur stdDeviation="2.73"/></filter><filter id="B" x="27" y="27" width="45" height="45.5" filterUnits="userSpaceOnUse" color-interpolation-filters="sRGB"><feFlood flood-opacity="0"/><feBlend in="SourceGraphic" result="B"/><feColorMatrix in="SourceAlpha" values="0 0 0 0 0 0 0 0 0 0 0 0 0 0 0 0 0 0 127 0" result="C"/><feOffset dy="0.5"/><feGaussianBlur stdDeviation="1.25"/><feComposite in2="C" operator="arithmetic" k2="-1" k3="1"/><feColorMatrix values="0 0 0 0 0 0 0 0 0 0 0 0 0 0 0 0 0 0 0.1 0"/><feBlend in2="B"/></filter><linearGradient id="C" x1="8.406" y1="6.55" x2="82.642" y2="100" gradientUnits="userSpaceOnUse"><stop stop-color="#fbfbfc"/><stop offset="1" stop-color="#dbdde8"/></linearGradient><linearGradient id="D" x1="53.835" y1="93.846" x2="39.949" y2="44.904" gradientUnits="userSpaceOnUse"><stop stop-color="#069"/><stop offset="1" stop-color="#058ccf"/></linearGradient><linearGradient id="E" x1="55" y1="89" x2="20.5" y2="13" gradientUnits="userSpaceOnUse"><stop stop-color="#069"/><stop offset="1" stop-color="#058ccf"/></linearGradient></defs></svg>