<svg width="20" height="21" viewBox="0 0 20 21" fill="none" xmlns="http://www.w3.org/2000/svg">
<path d="M2.75 0.875C2.18641 0.875 1.64591 1.09888 1.2474 1.4974C0.848883 1.89591 0.625 2.43641 0.625 3C0.625 3.56359 0.848883 4.10409 1.2474 4.5026C1.64591 4.90112 2.18641 5.125 2.75 5.125C3.31359 5.125 3.85409 4.90112 4.2526 4.5026C4.65112 4.10409 4.875 3.56359 4.875 3C4.875 2.43641 4.65112 1.89591 4.2526 1.4974C3.85409 1.09888 3.31359 0.875 2.75 0.875ZM0.75 6.875C0.716848 6.875 0.685054 6.88817 0.661612 6.91161C0.63817 6.93505 0.625 6.96685 0.625 7V20C0.625 20.069 0.681 20.125 0.75 20.125H4.75C4.78315 20.125 4.81495 20.1118 4.83839 20.0884C4.86183 20.0649 4.875 20.0332 4.875 20V7C4.875 6.96685 4.86183 6.93505 4.83839 6.91161C4.81495 6.88817 4.78315 6.875 4.75 6.875H0.75ZM7.25 6.875C7.21685 6.875 7.18505 6.88817 7.16161 6.91161C7.13817 6.93505 7.125 6.96685 7.125 7V20C7.125 20.069 7.181 20.125 7.25 20.125H11.25C11.2832 20.125 11.3149 20.1118 11.3384 20.0884C11.3618 20.0649 11.375 20.0332 11.375 20V13C11.375 12.5027 11.5725 12.0258 11.9242 11.6742C12.2758 11.3225 12.7527 11.125 13.25 11.125C13.7473 11.125 14.2242 11.3225 14.5758 11.6742C14.9275 12.0258 15.125 12.5027 15.125 13V20C15.125 20.069 15.181 20.125 15.25 20.125H19.25C19.2832 20.125 19.3149 20.1118 19.3384 20.0884C19.3618 20.0649 19.375 20.0332 19.375 20V11.38C19.375 8.953 17.265 7.055 14.85 7.274C14.1028 7.34202 13.3709 7.52694 12.681 7.822L11.375 8.382V7C11.375 6.96685 11.3618 6.93505 11.3384 6.91161C11.3149 6.88817 11.2832 6.875 11.25 6.875H7.25Z" fill="#E2FBFF"/>
</svg>
