<svg xmlns="http://www.w3.org/2000/svg" width="100" height="100" fill="none" xmlns:v="https://vecta.io/nano"><rect width="100" height="100" rx="30" fill="url(#B)"/><g opacity=".25" filter="url(#A)"><rect x="15" y="50" width="68.122" height="42.576" rx="21.288" fill="url(#C)"/></g><rect x="13" y="13" width="73.799" height="73.799" rx="30" fill="url(#D)"/><path d="M41.333 37a13 13 0 0 1 13 13 13 13 0 0 1-13 13 13 13 0 0 1-13-13 13 13 0 0 1 13-13zm19.5 2.167c3.25 0 5.417 4.851 5.417 10.833s-2.167 10.833-5.417 10.833S55.417 55.982 55.417 50s2.167-10.833 5.417-10.833zM69.5 40.25c.823 0 1.543 1.792 1.907 4.866l.102.96.041.509.065 1.07.022.561.026 1.172.004.611-.004.611-.026 1.172-.022.563-.065 1.068-.043.509-.097.96c-.366 3.077-1.083 4.866-1.909 4.866s-1.543-1.792-1.907-4.866l-.102-.96-.041-.509-.065-1.07-.022-.561-.026-1.172v-1.222l.026-1.172.022-.563.065-1.068.043-.509.097-.96c.366-3.077 1.083-4.866 1.909-4.866z" fill="#fff"/><defs><filter id="A" x="9.54" y="44.54" width="79.042" height="53.496" filterUnits="userSpaceOnUse" color-interpolation-filters="sRGB"><feFlood flood-opacity="0"/><feBlend in="SourceGraphic"/><feGaussianBlur stdDeviation="2.73"/></filter><linearGradient id="B" x1="8.406" y1="6.55" x2="82.642" y2="100" gradientUnits="userSpaceOnUse"><stop stop-color="#fbfbfc"/><stop offset="1" stop-color="#dbdde8"/></linearGradient><linearGradient id="C" x1="53.769" y1="93.846" x2="39.884" y2="44.904" gradientUnits="userSpaceOnUse"><stop offset=".073" stop-color="#1b1f23"/><stop offset=".974" stop-color="#363c42"/></linearGradient><linearGradient id="D" x1="55" y1="89" x2="20.5" y2="13" gradientUnits="userSpaceOnUse"><stop offset=".073" stop-color="#1b1f23"/><stop offset=".974" stop-color="#363c42"/></linearGradient></defs></svg>