<svg width="422" height="300" viewBox="0 0 422 300" fill="none" xmlns="http://www.w3.org/2000/svg">
<g opacity="0.5">
<path d="M352.132 333.358C449.311 430.523 338.192 509.091 233.455 522.542C173.712 532.796 172.722 606.917 98.6882 619.578C24.6539 632.239 58.6021 520.499 -55.7699 537.95C-170.142 555.401 -215.407 368.745 -134.301 320.267C-53.1945 271.79 -91.1014 257.586 -44.0206 149.156C3.06021 40.7266 190.196 48.0314 207.237 158.233C224.278 268.434 246.934 228.176 352.132 333.358Z" stroke="#F9B6BE" stroke-width="3"/>
<path d="M124.425 344.051C134.321 352.942 127.186 380.396 109.082 380.682C92.504 380.944 82.2686 392.922 72.0065 394.669C44.9903 399.267 50.7936 390.291 35.3037 386.333C16.4545 381.516 -6.80105 354.09 21.2217 338.186C44.2692 325.106 31.0201 317.826 45.4632 303.071C59.9064 288.316 84.2699 285.651 96.8852 307.879C101.623 316.226 107.943 329.243 124.425 344.051Z" stroke="#F9B6BE" stroke-width="3"/>
<path d="M331.751 334.889C420.995 424.028 319.33 497.95 222.469 510.204C166.649 519.55 164.819 588.022 96.5826 599.69C26.8227 611.618 58.2123 509.22 -47.1705 524.725C-152.859 540.152 -196.123 367.971 -119.842 322.455C-44.0141 277.195 -79.6795 263.621 -35.5657 163.707C8.54805 63.7933 180.886 70.1917 197.525 172.395C213.448 273.337 234.618 237.923 331.751 334.889Z" stroke="#F9B6BE" stroke-width="3"/>
<path d="M311.37 336.419C392.679 417.533 300.467 486.808 211.481 497.866C159.586 506.303 156.916 569.125 94.4764 579.802C28.9908 590.997 57.8218 497.941 -38.5717 511.5C-135.576 524.902 -176.839 367.197 -105.385 324.642C-34.8344 282.6 -68.2582 269.655 -27.1115 178.257C14.0353 86.8593 171.576 92.3513 187.812 186.557C202.617 278.24 222.302 247.668 311.37 336.419Z" stroke="#F9B6BE" stroke-width="3"/>
<path d="M290.989 337.949C364.363 411.038 281.604 475.667 200.494 485.527C152.523 493.056 149.012 550.229 92.3702 559.913C31.159 570.376 57.4313 486.662 -29.9728 498.274C-118.293 509.652 -157.556 366.423 -90.9267 326.828C-25.6547 288.005 -56.8368 275.689 -18.6571 192.807C19.5225 109.925 162.266 114.511 178.1 200.719C191.786 283.142 209.986 257.414 290.989 337.949Z" stroke="#F9B6BE" stroke-width="3"/>
<path d="M270.607 339.478C336.047 404.543 262.74 464.525 189.507 473.188C145.46 479.809 141.108 531.332 90.2636 540.025C33.3268 549.754 57.0404 475.382 -21.3744 485.048C-101.011 494.402 -138.272 365.648 -76.4693 329.015C-16.4754 293.409 -45.4159 281.723 -10.2032 207.357C25.0093 132.991 152.955 136.67 168.387 214.881C180.954 288.044 197.669 267.159 270.607 339.478Z" stroke="#F9B6BE" stroke-width="3"/>
<path d="M250.007 340.623C307.512 397.663 243.658 452.998 178.3 460.465C138.178 466.177 132.985 512.051 87.9385 519.751C35.276 528.747 56.4311 463.718 -12.9945 471.438C-83.9471 478.767 -119.208 364.488 -62.2304 330.817C-7.51455 298.429 -34.2134 287.372 -1.96787 221.522C30.2777 155.672 143.426 158.445 158.455 228.658C169.904 292.562 185.134 276.52 250.007 340.623Z" stroke="#F9B6BE" stroke-width="3"/>
<path d="M229.148 341.313C278.718 390.328 224.318 441.016 166.835 447.286C130.637 452.09 124.604 492.315 85.3546 499.022C36.9666 507.286 55.563 451.599 -4.87335 457.372C-67.142 462.677 -100.402 362.874 -48.2502 332.163C1.18757 302.993 -23.2697 292.566 6.00879 235.232C35.2873 177.898 133.638 179.764 148.265 241.98C158.595 296.625 172.341 285.426 229.148 341.313Z" stroke="#F9B6BE" stroke-width="3"/>
<path d="M208.275 341.978C249.91 382.968 204.963 429.009 155.356 434.083C123.081 437.978 116.208 472.554 82.7562 478.269C38.6425 485.799 54.6803 439.454 3.23331 443.282C-50.3514 446.562 -81.6104 361.234 -34.2846 333.485C9.87512 307.533 -12.3405 297.736 13.9709 248.917C40.2823 200.099 123.836 201.059 138.06 255.277C147.272 300.662 159.532 294.306 208.275 341.978Z" stroke="#F9B6BE" stroke-width="3"/>
<path d="M187.38 342.607C221.08 375.572 185.586 416.966 143.855 420.843C115.504 423.831 107.791 452.756 80.1362 457.48C40.2968 464.277 53.776 427.274 11.3182 429.155C-33.5826 430.412 -62.8408 359.559 -20.3407 334.771C18.541 312.037 -1.43299 302.869 21.9113 262.566C45.2557 222.264 114.012 222.318 127.834 268.538C135.927 304.664 146.702 303.151 187.38 342.607Z" stroke="#F9B6BE" stroke-width="3"/>
<path d="M166.453 343.182C192.219 368.123 166.178 404.87 132.322 407.55C107.896 409.629 99.3419 432.906 77.4849 436.637C41.9199 442.701 52.8404 415.041 19.3719 414.975C-16.845 414.207 -44.1023 357.83 -6.42797 336.004C27.1756 316.487 9.44326 307.948 29.8205 276.162C50.1978 244.375 104.156 243.523 117.576 281.746C124.551 308.612 133.841 311.942 166.453 343.182Z" stroke="#F9B6BE" stroke-width="3"/>
<path d="M145.478 343.678C163.309 360.594 146.721 392.694 120.741 394.178C100.239 395.348 90.8445 412.975 74.7849 415.714C43.4944 421.045 51.8562 402.727 27.3771 400.715C-0.155992 397.923 -25.4124 356.022 7.43614 337.156C35.7616 320.858 20.2709 312.948 37.6811 289.678C55.0913 266.407 94.2523 264.648 107.27 294.874C113.126 312.481 120.931 320.654 145.478 343.678Z" stroke="#F9B6BE" stroke-width="3"/>
</g>
</svg>
