<svg width="33" height="33" viewBox="0 0 33 33" fill="none" xmlns="http://www.w3.org/2000/svg">
<path d="M16.5 30.25C20.1467 30.25 23.6441 28.8013 26.2227 26.2227C28.8013 23.6441 30.25 20.1467 30.25 16.5C30.25 14.6943 29.8943 12.9063 29.2033 11.2381C28.5123 9.56988 27.4995 8.05409 26.2227 6.77728C24.9459 5.50048 23.4301 4.48766 21.7619 3.79666C20.0937 3.10565 18.3057 2.75 16.5 2.75C14.6943 2.75 12.9063 3.10565 11.2381 3.79666C9.56988 4.48766 8.05409 5.50048 6.77728 6.77728C4.19866 9.35591 2.75 12.8533 2.75 16.5C2.75 20.1467 4.19866 23.6441 6.77728 26.2227C8.05409 27.4995 9.56988 28.5123 11.2381 29.2033C12.9063 29.8943 14.6943 30.25 16.5 30.25ZM16.5 27.5C13.5826 27.5 10.7847 26.3411 8.72183 24.2782C6.65893 22.2153 5.5 19.4174 5.5 16.5C5.5 13.5826 6.65893 10.7847 8.72183 8.72183C10.7847 6.65893 13.5826 5.5 16.5 5.5C19.4174 5.5 22.2153 6.65893 24.2782 8.72183C26.3411 10.7847 27.5 13.5826 27.5 16.5C27.5 19.4174 26.3411 22.2153 24.2782 24.2782C22.2153 26.3411 19.4174 27.5 16.5 27.5ZM23.375 19.25L16.5 12.375L9.625 19.25H23.375Z" fill="#375878"/>
</svg>
