<svg width="64" height="58" viewBox="0 0 64 58" fill="none" xmlns="http://www.w3.org/2000/svg">
<path d="M2.34808 16.1308C3.40308 14.114 4.77308 12.2794 5.95788 10.3399C7.18558 8.33011 8.35288 6.28011 9.72198 4.36201C10.0687 3.87631 10.3718 3.37041 10.7978 2.94891C11.0843 2.66551 10.7841 3.39981 10.7589 3.50091C10.4312 4.81251 10.4524 6.23631 10.5531 7.57581C10.6892 9.38451 10.8103 11.0028 10.7354 12.8335C10.6696 14.4419 10.9168 16.273 11.0757 17.9765C11.1783 19.0773 11.4767 20.1486 11.5397 21.2519C11.5519 21.4664 11.5183 21.8029 11.6243 22.0009C11.7087 22.1584 12.1595 21.4661 12.1833 21.4332C14.6213 18.0636 16.6364 14.3981 18.7079 10.7993C19.4064 9.58591 20.1595 8.40911 20.9774 7.27261C21.0331 7.19531 21.6491 6.46261 21.6699 6.53671" stroke="white" stroke-width="3" stroke-linecap="round"/>
<path d="M20.1766 19.2858C22.4568 19.4483 24.7418 19.3684 26.9837 18.8769C28.724 18.4953 30.708 17.943 31.7799 16.4009C32.3554 15.573 32.9184 13.647 31.7492 13.0508C31.1223 12.7312 30.3613 12.7812 29.683 12.8332C28.5299 12.9217 27.3829 13.0817 26.2821 13.4474C25.2716 13.7831 24.3366 14.2505 23.4754 14.8803C22.5443 15.5614 21.8721 16.4075 21.2086 17.3409C19.7774 19.3541 18.3683 21.3747 18.4182 23.9506C18.4544 25.8147 19.7768 27.1167 21.4832 27.663C22.1819 27.8867 22.9856 28.1329 23.7271 28.0169C24.3479 27.9199 24.8786 27.539 25.4313 27.2666" stroke="white" stroke-width="3" stroke-linecap="round"/>
<path d="M36.0717 16.4094C35.6847 17.8226 35.55 19.275 35.1657 20.6896C34.5338 23.0151 33.554 25.206 32.6761 27.4428C32.2967 28.4095 31.9506 29.3875 31.6335 30.3766C31.4518 30.9434 31.2665 31.5173 31.2405 32.1174C31.2391 32.1508 31.2477 32.8043 31.4033 32.696C32.0883 32.2189 32.6455 31.5216 33.3162 31.0123C34.7624 29.9141 36.2227 28.8344 37.6681 27.7349C38.89 26.8055 40.1215 25.8898 41.331 24.9442C41.4939 24.8168 41.665 24.6045 41.8487 24.5076C41.9898 24.4332 41.7448 24.8085 41.6928 24.9589C41.3504 25.9502 41.2044 27.021 40.9974 28.0461C40.7197 29.4213 40.2701 30.7499 39.9173 32.1062C39.6113 33.2827 39.0836 34.4622 38.9149 35.6681C38.8981 35.7877 38.8893 36.9176 39.1629 36.4342C39.5323 35.7817 40.0498 35.2457 40.5705 34.7052C42.105 33.1121 43.7521 31.6355 45.3166 30.0727C46.7884 28.6025 48.223 27.1284 49.5747 25.5491C50.0053 25.046 50.465 24.5546 51.0182 24.185" stroke="white" stroke-width="3" stroke-linecap="round"/>
<path d="M60.4346 22.7234C59.4958 24.5018 58.0081 25.8021 56.8189 27.4037C55.4459 29.2529 53.9877 31.0538 52.5196 32.826C51.8277 33.6612 50.8146 34.5813 50.48 35.6532C50.3605 36.0359 50.4969 35.5899 50.5457 35.4595" stroke="white" stroke-width="3" stroke-linecap="round"/>
<path d="M10.4016 35.5259C10.4377 38.9126 9.72059 42.27 9.36829 45.6289C9.14949 47.7156 8.78469 49.7752 8.29509 51.814C8.28029 51.8755 7.86919 53.2234 8.07089 53.2482C8.24179 53.2693 8.46679 52.9478 8.55479 52.8439C8.93009 52.4011 9.29649 51.9516 9.68709 51.5218C11.0378 50.0358 12.684 48.8584 14.3846 47.8026C16.5082 46.4842 18.7555 45.4329 21.0552 44.458C21.8627 44.1157 22.8824 43.8086 23.5627 43.2513" stroke="white" stroke-width="3" stroke-linecap="round"/>
<path d="M46.1183 40.0139C46.1412 40.1419 46.1925 40.7471 46.4478 40.482C46.5065 40.421 46.5173 40.373 46.4671 40.3018C46.3434 40.1264 46.0899 40.0735 45.9717 40.2729C45.7802 40.5959 46.3175 40.6698 46.0264 40.5051" stroke="white" stroke-width="3" stroke-linecap="round"/>
</svg>
