<svg xmlns="http://www.w3.org/2000/svg" width="70" height="70" fill="none" xmlns:v="https://vecta.io/nano"><g clip-path="url(#E)"><path d="M31.951 1.243L1.239 31.931A4.21 4.21 0 0 0 0 34.913a4.21 4.21 0 0 0 1.238 2.982l30.712 30.688a4.22 4.22 0 0 0 5.969 0l12.877-12.867a3.78 3.78 0 0 0 0-5.351 3.79 3.79 0 0 0-5.355 0l-9.762 9.754a1 1 0 0 1-1.446 0L9.709 35.613a1 1 0 0 1 0-1.445L34.235 9.662a1 1 0 0 1 1.446 0l9.762 9.754a3.79 3.79 0 0 0 5.355 0 3.78 3.78 0 0 0 0-5.351L37.922 1.201a4.26 4.26 0 0 0-5.971.042z" fill="url(#A)"/><path d="M31.951 1.243L1.239 31.931A4.21 4.21 0 0 0 0 34.913a4.21 4.21 0 0 0 1.238 2.982l30.712 30.688a4.22 4.22 0 0 0 5.969 0l12.877-12.867a3.78 3.78 0 0 0 0-5.351 3.79 3.79 0 0 0-5.355 0l-9.762 9.754a1 1 0 0 1-1.446 0L9.709 35.613a1 1 0 0 1 0-1.445L34.235 9.662c1.023-.882 2.693-2.669 5.145-3.087 1.822-.31 3.815.373 5.977 2.051L37.922 1.2a4.26 4.26 0 0 0-5.971.042z" fill="url(#B)"/><path d="M53.771 47.511a3.79 3.79 0 0 0 5.355 0l9.499-9.491a4.21 4.21 0 0 0 1.238-2.982 4.21 4.21 0 0 0-1.238-2.982l-9.581-9.54c-1.482-1.476-3.881-1.473-5.36.005a3.78 3.78 0 0 0 0 5.351l6.471 6.466a1 1 0 0 1 0 1.445l-6.384 6.379a3.78 3.78 0 0 0 0 5.351z" fill="url(#C)"/><path d="M35.089 43.352a8.29 8.29 0 0 0 8.293-8.286 8.29 8.29 0 1 0-16.585 0 8.29 8.29 0 0 0 8.292 8.286z" fill="url(#D)"/></g><defs><linearGradient id="A" x1="3223.5" y1="0" x2="6142.12" y2="1782.35" gradientUnits="userSpaceOnUse"><stop stop-color="#4285eb"/><stop offset="1" stop-color="#2ec7ff"/></linearGradient><linearGradient id="B" x1="3614.98" y1="0" x2="2173.47" y2="7450.21" gradientUnits="userSpaceOnUse"><stop stop-color="#29cdff"/><stop offset=".379" stop-color="#148eff"/><stop offset="1" stop-color="#0a60ff"/></linearGradient><linearGradient id="C" x1="1257.47" y1="-331.6" x2="-618.19" y2="2601.73" gradientUnits="userSpaceOnUse"><stop stop-color="#fa816e"/><stop offset=".415" stop-color="#f74a5c"/><stop offset="1" stop-color="#f51d2c"/></linearGradient><linearGradient id="D" x1="1156.71" y1="-564.67" x2="532.616" y2="1931.79" gradientUnits="userSpaceOnUse"><stop stop-color="#fa8e7d"/><stop offset=".513" stop-color="#f74a5c"/><stop offset="1" stop-color="#f51d2c"/></linearGradient><clipPath id="E"><path fill="#fff" d="M0 0h70v70H0z"/></clipPath></defs></svg>