<svg width="18" height="18" viewBox="0 0 18 18" fill="none" xmlns="http://www.w3.org/2000/svg">
<g clip-path="url(#clip0_34_384)">
<path d="M8.21608 0.319819L0.318584 8.21099C0.217653 8.31156 0.137569 8.43107 0.0829249 8.56266C0.0282811 8.69425 0.000152588 8.83533 0.000152588 8.97782C0.000152588 9.1203 0.0282811 9.26139 0.0829249 9.39298C0.137569 9.52457 0.217653 9.64408 0.318584 9.74465L8.21608 17.6357C8.6407 18.0599 9.32646 18.0599 9.75101 17.6357L13.0624 14.3271C13.4426 13.9472 13.4426 13.3311 13.0624 12.9512C12.6821 12.5713 12.0656 12.5713 11.6854 12.9512L9.17508 15.4594C9.0694 15.565 8.90901 15.565 8.80333 15.4594L2.49658 9.15789C2.3909 9.05228 2.3909 8.89204 2.49658 8.78643L8.80333 2.48481C8.90901 2.37927 9.0694 2.37927 9.17508 2.48481L11.6854 4.99307C12.0656 5.37304 12.6821 5.37304 13.0624 4.99307C13.4426 4.6131 13.4426 3.99716 13.0624 3.61719L9.75136 0.308991C9.32505 -0.106134 8.63901 -0.102759 8.21608 0.319819Z" fill="url(#paint0_linear_34_384)"/>
<path d="M8.21608 0.319584L0.318584 8.21076C0.217653 8.31133 0.137569 8.43084 0.0829249 8.56243C0.0282811 8.69402 0.000152588 8.8351 0.000152588 8.97758C0.000152588 9.12007 0.0282811 9.26115 0.0829249 9.39274C0.137569 9.52433 0.217653 9.64384 0.318584 9.74441L8.21608 17.6355C8.6407 18.0597 9.32646 18.0597 9.75101 17.6355L13.0624 14.3269C13.4426 13.9469 13.4426 13.3309 13.0624 12.951C12.6821 12.571 12.0656 12.571 11.6854 12.951L9.17508 15.4592C9.0694 15.5648 8.90901 15.5648 8.80333 15.4592L2.49658 9.15765C2.3909 9.05204 2.3909 8.8918 2.49658 8.78619L8.80333 2.48458C9.06644 2.25775 9.49584 1.79833 10.1263 1.69075C10.5948 1.61094 11.1071 1.78672 11.6631 2.21809L9.75143 0.308686C9.32505 -0.106369 8.63908 -0.102994 8.21608 0.319584Z" fill="url(#paint1_linear_34_384)"/>
<path d="M13.8267 12.217C14.207 12.597 14.8235 12.597 15.2037 12.217L17.6463 9.77647C17.7473 9.6759 17.8273 9.55639 17.882 9.4248C17.9366 9.29321 17.9648 9.15213 17.9648 9.00964C17.9648 8.86716 17.9366 8.72607 17.882 8.59448C17.8273 8.46289 17.7473 8.34339 17.6463 8.24281L15.1825 5.78961C14.8013 5.41013 14.1846 5.4107 13.8042 5.79088C13.4239 6.17084 13.4239 6.78678 13.8042 7.16675L15.4683 8.8295C15.5739 8.93511 15.5739 9.09535 15.4683 9.20096L13.8267 10.8411C13.4465 11.2211 13.4465 11.8371 13.8267 12.217Z" fill="url(#paint2_linear_34_384)"/>
<path d="M9.02299 11.1477C10.2007 11.1477 11.1554 10.1938 11.1554 9.01708C11.1554 7.84038 10.2007 6.88647 9.02299 6.88647C7.84532 6.88647 6.89062 7.84038 6.89062 9.01708C6.89062 10.1938 7.84532 11.1477 9.02299 11.1477Z" fill="url(#paint3_linear_34_384)"/>
</g>
<defs>
<linearGradient id="paint0_linear_34_384" x1="828.901" y1="0.000259543" x2="1579.4" y2="458.32" gradientUnits="userSpaceOnUse">
<stop stop-color="#4285EB"/>
<stop offset="1" stop-color="#2EC7FF"/>
</linearGradient>
<linearGradient id="paint1_linear_34_384" x1="929.567" y1="1.60123e-05" x2="558.891" y2="1915.77" gradientUnits="userSpaceOnUse">
<stop stop-color="#29CDFF"/>
<stop offset="0.3786" stop-color="#148EFF"/>
<stop offset="1" stop-color="#0A60FF"/>
</linearGradient>
<linearGradient id="paint2_linear_34_384" x1="323.35" y1="-85.2688" x2="-158.963" y2="669.016" gradientUnits="userSpaceOnUse">
<stop stop-color="#FA816E"/>
<stop offset="0.41473" stop-color="#F74A5C"/>
<stop offset="1" stop-color="#F51D2C"/>
</linearGradient>
<linearGradient id="paint3_linear_34_384" x1="297.438" y1="-145.201" x2="136.958" y2="496.746" gradientUnits="userSpaceOnUse">
<stop stop-color="#FA8E7D"/>
<stop offset="0.51264" stop-color="#F74A5C"/>
<stop offset="1" stop-color="#F51D2C"/>
</linearGradient>
<clipPath id="clip0_34_384">
<rect width="18" height="18" fill="white"/>
</clipPath>
</defs>
</svg>
