<svg width="20" height="22" viewBox="0 0 20 22" fill="none" xmlns="http://www.w3.org/2000/svg">
<path d="M1.96915 17.7376L2.10299 17.5519L8.41744 5.63278L8.43083 5.50665L5.64759 0.304675C5.59663 0.209549 5.51691 0.132772 5.4197 0.0852083C5.32248 0.0376441 5.21269 0.0217002 5.10587 0.0396322C4.99905 0.0575642 4.9006 0.108464 4.82444 0.185131C4.74829 0.261798 4.69829 0.36035 4.68152 0.466845L1.96915 17.7376Z" fill="#FFC24A"/>
<path d="M2.04788 17.5966L2.14866 17.4008L8.39776 5.60544L5.62161 0.383091C5.57583 0.29227 5.5017 0.218655 5.41034 0.173273C5.31898 0.127891 5.2153 0.113186 5.11484 0.131362C5.01437 0.149538 4.92253 0.199615 4.85307 0.274092C4.78361 0.348568 4.74028 0.443434 4.72955 0.544478L2.04788 17.5966Z" fill="#FFA712"/>
<path d="M10.4598 9.44105L12.5321 7.32579L10.459 3.39219C10.4134 3.30753 10.3455 3.23677 10.2627 3.18744C10.1799 3.13811 10.0851 3.11206 9.98859 3.11206C9.89205 3.11206 9.79731 3.13811 9.71447 3.18744C9.63163 3.23677 9.56378 3.30753 9.51815 3.39219L8.41037 5.49335V5.67275L10.4598 9.44105Z" fill="#F4BD62"/>
<path d="M10.4228 9.35483L12.4376 7.30224L10.4228 3.4791C10.3898 3.39635 10.3335 3.32485 10.2606 3.27323C10.1877 3.22161 10.1014 3.19208 10.012 3.18819C9.92261 3.18429 9.83401 3.20621 9.75686 3.2513C9.67972 3.29638 9.61733 3.36271 9.57721 3.44228L8.46392 5.58026L8.43085 5.68916L10.4228 9.35483Z" fill="#FFA50E"/>
<path d="M1.97073 17.7382L2.03136 17.6771L2.25103 17.5886L10.3291 9.58035L10.4315 9.30302L8.41667 5.48145L1.97073 17.7382Z" fill="#F6820C"/>
<path d="M10.718 21.7767L18.0308 17.7194L15.9412 4.92516C15.9263 4.83497 15.8866 4.75063 15.8266 4.6814C15.7666 4.61216 15.6886 4.56072 15.6012 4.53271C15.5137 4.50471 15.4202 4.50122 15.3309 4.52263C15.2415 4.54404 15.1599 4.58953 15.0949 4.65409L1.96915 17.7374L9.23864 21.776C9.46464 21.9014 9.71914 21.9673 9.97795 21.9673C10.2368 21.9673 10.4913 21.9014 10.7173 21.776" fill="#FDE068"/>
<path d="M17.9639 17.6859L15.8916 4.98804C15.888 4.90177 15.8587 4.81852 15.8075 4.74883C15.7562 4.67914 15.6854 4.62614 15.6039 4.59653C15.5224 4.56692 15.4338 4.56204 15.3495 4.5825C15.2652 4.60297 15.1889 4.64785 15.1303 4.71149L2.04788 17.7133L9.23706 21.7088C9.46127 21.8332 9.71373 21.8986 9.97047 21.8986C10.2272 21.8986 10.4797 21.8332 10.7039 21.7088L17.9639 17.6859Z" fill="#FCCA3F"/>
<path d="M10.718 21.6547C10.492 21.7802 10.2375 21.8461 9.97873 21.8461C9.71993 21.8461 9.46542 21.7802 9.23942 21.6547L2.02898 17.6765L1.96915 17.7376L9.23864 21.7761C9.46464 21.9016 9.71914 21.9675 9.97795 21.9675C10.2368 21.9675 10.4913 21.9016 10.7173 21.7761L18.0308 17.7195L18.0127 17.6099L10.718 21.6547Z" fill="#EEAB37"/>
</svg>
