<svg xmlns="http://www.w3.org/2000/svg" width="77" height="86" fill="none" xmlns:v="https://vecta.io/nano"><path d="M7.581 69.338l.515-.726 24.311-46.593.051-.493L21.743 1.191c-.196-.372-.503-.672-.877-.858a1.97 1.97 0 0 0-1.208-.178 1.98 1.98 0 0 0-1.083.569c-.293.3-.486.685-.55 1.101L7.581 69.338z" fill="#ffc24a"/><path d="M7.884 68.786l.388-.766 24.059-46.109L21.643 1.497a1.83 1.83 0 0 0-.813-.82 1.8 1.8 0 0 0-1.138-.164c-.387.071-.74.267-1.008.558s-.434.662-.476 1.057L7.884 68.786z" fill="#ffa712"/><path d="M40.27 36.906l7.978-8.269-7.981-15.377c-.176-.331-.437-.608-.756-.8a2.04 2.04 0 0 0-2.111 0c-.319.193-.58.47-.756.8l-4.265 8.214v.701l7.89 14.731z" fill="#f4bd62"/><path d="M40.128 36.569l7.757-8.024L40.128 13.6a1.8 1.8 0 0 0-.624-.805c-.281-.202-.613-.317-.957-.333a1.77 1.77 0 0 0-.982.247c-.297.176-.537.435-.692.747l-4.286 8.358-.127.426 7.669 14.33z" fill="#ffa50e"/><path d="M7.587 69.341l.233-.239.846-.346 31.101-31.305.394-1.084-7.757-14.939L7.587 69.341z" fill="#f6820c"/><path d="M41.265 85.128l28.154-15.861-8.045-50.014c-.058-.353-.21-.682-.441-.953s-.531-.472-.868-.581-.697-.123-1.041-.04a1.92 1.92 0 0 0-.909.514L7.581 69.338l27.988 15.787c.87.49 1.85.748 2.846.748s1.976-.257 2.846-.748" fill="#fde068"/><path d="M69.161 69.135l-7.978-49.637c-.014-.337-.127-.663-.324-.935a1.69 1.69 0 0 0-.784-.595 1.67 1.67 0 0 0-.979-.055c-.325.08-.618.256-.844.504L7.884 69.243l27.678 15.619a5.75 5.75 0 0 0 5.647 0l27.951-15.726z" fill="#fcca3f"/><path d="M41.265 84.65c-.87.491-1.85.748-2.846.748s-1.976-.257-2.846-.748L7.812 69.099l-.23.239 27.988 15.787c.87.491 1.85.748 2.846.748s1.976-.257 2.846-.748l28.157-15.858-.07-.429L41.265 84.65z" fill="#eeab37"/></svg>