<svg xmlns="http://www.w3.org/2000/svg" width="63" height="71" fill="none" xmlns:v="https://vecta.io/nano"><g clip-path="url(#A)"><path fill-rule="evenodd" d="M37.548 8.126l14.555 8.419c.42-.445.902-.828 1.432-1.135 3.019-1.739 6.869-.706 8.622 2.318a6.34 6.34 0 0 1-2.314 8.638 6.32 6.32 0 0 1-1.681.671V43.88a6.32 6.32 0 0 1 1.663.666 6.31 6.31 0 0 1 2.314 8.638c-1.735 3.024-5.604 4.056-8.623 2.318a6.27 6.27 0 0 1-1.56-1.269L37.49 62.6c.212.643.319 1.315.319 1.992 0 3.477-2.82 6.32-6.309 6.32a6.31 6.31 0 0 1-6.309-6.32 6.35 6.35 0 0 1 .255-1.788l-14.551-8.416c-.416.437-.891.812-1.412 1.114-3.037 1.738-6.887.706-8.623-2.318a6.34 6.34 0 0 1 2.314-8.638 6.32 6.32 0 0 1 1.663-.666V27.036a6.32 6.32 0 0 1-1.681-.671C.137 24.627-.893 20.752.842 17.728s5.604-4.056 8.622-2.318c.526.306 1.006.686 1.425 1.128l14.56-8.421a6.35 6.35 0 0 1-.258-1.797A6.31 6.31 0 0 1 31.5 0a6.31 6.31 0 0 1 6.309 6.32c0 .628-.091 1.234-.261 1.807zm-1.516 2.594l14.59 8.439a6.32 6.32 0 0 0 .6 4.889c.888 1.548 2.335 2.574 3.941 2.974v16.865l-.244.065-19.056-33.062.17-.169zm-8.89.172L8.086 43.955l-.249-.067V27.021c1.606-.4 3.053-1.426 3.941-2.974a6.32 6.32 0 0 0 .597-4.898l14.586-8.436.18.179h0zm6.121 1.498l19.051 33.054a6.28 6.28 0 0 0-1.111 1.419 6.34 6.34 0 0 0-.665 1.666H12.462c-.142-.584-.366-1.145-.665-1.666s-.675-.996-1.109-1.411l19.055-33.061a6.32 6.32 0 0 0 3.52-.002zm2.903 47.944l14.495-8.384-.116-.415h-38.09l-.066.245 14.566 8.425a6.29 6.29 0 0 1 2.075-1.432 6.28 6.28 0 0 1 2.47-.501c.878-.002 1.747.181 2.551.536s1.524.875 2.115 1.526z" fill="#e535ab"/></g><defs><clipPath id="A"><path fill="#fff" d="M0 0h63v71H0z"/></clipPath></defs></svg>