<svg xmlns="http://www.w3.org/2000/svg" width="76" height="76" fill="none" xmlns:v="https://vecta.io/nano"><g clip-path="url(#A)"><path d="M0 0H76V76H0V0Z" fill="#f7df1e"/><path d="M19.983 63.511l5.816-3.52c1.122 1.989 2.143 3.673 4.591 3.673 2.347 0 3.827-.918 3.827-4.489V34.891h7.142v24.385c0 7.397-4.336 10.764-10.663 10.764-5.713 0-9.03-2.959-10.713-6.53m25.255-.765l5.815-3.367c1.531 2.5 3.521 4.337 7.04 4.337 2.959 0 4.846-1.48 4.846-3.52 0-2.449-1.939-3.316-5.204-4.744l-1.785-.766c-5.153-2.193-8.571-4.948-8.571-10.764 0-5.357 4.081-9.438 10.458-9.438 4.54 0 7.805 1.582 10.152 5.714l-5.561 3.571c-1.225-2.194-2.55-3.061-4.591-3.061-2.092 0-3.418 1.326-3.418 3.061 0 2.142 1.326 3.01 4.387 4.337l1.785.765c6.071 2.602 9.489 5.255 9.489 11.223 0 6.429-5.05 9.948-11.835 9.948-6.632 0-10.917-3.163-13.009-7.295" fill="#000"/></g><defs><clipPath id="A"><path fill="#fff" d="M0 0h76v76H0z"/></clipPath></defs></svg>