<svg width="20" height="20" viewBox="0 0 20 20" fill="none" xmlns="http://www.w3.org/2000/svg">
<g clip-path="url(#clip0_34_303)">
<path d="M0 0H20V20H0V0Z" fill="#F7DF1E"/>
<path d="M5.25875 16.7134L6.78922 15.7872C7.08453 16.3107 7.35313 16.7537 7.99742 16.7537C8.615 16.7537 9.00446 16.5121 9.00446 15.5724V9.18196H10.8839V15.599C10.8839 17.5456 9.74282 18.4317 8.07797 18.4317C6.57446 18.4317 5.70172 17.6531 5.25867 16.7133M11.9048 16.512L13.4351 15.626C13.838 16.2839 14.3616 16.7672 15.2878 16.7672C16.0666 16.7672 16.5632 16.3778 16.5632 15.8408C16.5632 15.1964 16.053 14.9681 15.1938 14.5924L14.7241 14.3908C13.368 13.8137 12.4686 13.0887 12.4686 11.5582C12.4686 10.1485 13.5426 9.07446 15.2208 9.07446C16.4156 9.07446 17.2748 9.49071 17.8923 10.5781L16.4289 11.518C16.1066 10.9407 15.7577 10.7125 15.2207 10.7125C14.6702 10.7125 14.3212 11.0616 14.3212 11.518C14.3212 12.0818 14.6702 12.3102 15.4757 12.6592L15.9455 12.8606C17.5432 13.5453 18.4427 14.2434 18.4427 15.814C18.4427 17.5057 17.1136 18.432 15.328 18.432C13.5828 18.432 12.4551 17.5996 11.9047 16.5121" fill="black"/>
</g>
<defs>
<clipPath id="clip0_34_303">
<rect width="20" height="20" fill="white"/>
</clipPath>
</defs>
</svg>
