<svg xmlns="http://www.w3.org/2000/svg" width="80" height="97" fill="none" xmlns:v="https://vecta.io/nano"><g clip-path="url(#D)"><path d="M42.015 90.5l-2.441-.809s.325-12.35-4.144-13.218c-2.925-3.406.432-145.408 11.125-.484-2.029 1.029-3.581 2.803-4.332 4.95a45.83 45.83 0 0 0-.208 9.561z" fill="url(#A)"/><path d="M43.335 78.569c6.499-4.892 11.475-11.528 14.352-19.136s3.535-15.877 1.898-23.845C54.807 14.512 43.494 7.583 42.275 4.937a31.82 31.82 0 0 1-2.681-5.2l.9 58.724s-1.865 17.947 2.84 20.108z" fill="url(#B)"/><path d="M38.333 79.349S18.44 65.8 19.59 41.831c.107-7.226 1.764-14.345 4.858-20.875S32.003 8.635 37.527 3.975c.645-.548 1.158-1.236 1.5-2.011A5.61 5.61 0 0 0 39.5-.5c1.238 2.665 1.037 39.79 1.167 44.132.504 16.89-.939 32.529-2.333 35.718z" fill="url(#C)"/></g><defs><linearGradient id="A" x1="25.608" y1="45.82" x2="53.661" y2="55.34" gradientUnits="userSpaceOnUse"><stop offset=".231" stop-color="#999875"/><stop offset=".563" stop-color="#9b9977"/><stop offset=".683" stop-color="#a09f7e"/><stop offset=".768" stop-color="#a9a889"/><stop offset=".837" stop-color="#b7b69a"/><stop offset=".896" stop-color="#c9c7b0"/><stop offset=".948" stop-color="#deddcb"/><stop offset=".994" stop-color="#f8f6eb"/><stop offset="1" stop-color="#fbf9ef"/></linearGradient><linearGradient id="B" x1="35.895" y1="-.682" x2="48.297" y2="76.762" gradientUnits="userSpaceOnUse"><stop stop-color="#48a547"/><stop offset="1" stop-color="#3f9143"/></linearGradient><linearGradient id="C" x1="17.879" y1="44.204" x2="51.161" y2="33.058" gradientUnits="userSpaceOnUse"><stop stop-color="#41a247"/><stop offset=".352" stop-color="#4ba74b"/><stop offset=".956" stop-color="#67b554"/><stop offset="1" stop-color="#69b655"/></linearGradient><clipPath id="D"><path fill="#fff" d="M0 0h80v97H0z"/></clipPath></defs></svg>