<svg width="47" height="10" viewBox="0 0 47 10" fill="none" xmlns="http://www.w3.org/2000/svg">
<g clip-path="url(#clip0_34_281)">
<path d="M39.4307 0.00413462V1.58683H36.1832V9.91346H34.5593V1.58692H31.2442V0.00413462H39.4307ZM39.7958 8.96952C39.9102 8.96952 40.0102 9.0126 40.0949 9.09894C40.1809 9.18519 40.2236 9.28856 40.2248 9.40894C40.2246 9.48794 40.2037 9.56535 40.1643 9.63269C40.1256 9.69916 40.0715 9.75425 40.0069 9.79279C39.9431 9.83272 39.8701 9.85354 39.7958 9.85298C39.6768 9.85298 39.5757 9.80981 39.491 9.72356C39.4063 9.63721 39.3643 9.53269 39.3654 9.40894C39.3644 9.28856 39.4063 9.18519 39.491 9.09894C39.5757 9.0126 39.6768 8.96952 39.7958 8.96952ZM7.61143 9.91346L1.62389 2.11808V9.90942H0V0H2.02972L9.59433 9.83933L9.59443 1.58692L9.59378 0.00413462H17.7802V1.58683H11.2182V4.13298H16.4954V5.71577H11.2182V8.33077H17.7803V9.91346H7.61143ZM22.9846 5.70067L24.0488 7.08654L21.8681 9.92519H19.7371L22.9846 5.70067ZM21.8681 0.00826923L24.6156 3.58231L27.3545 0.0192308L29.4796 0.0158654L25.6795 4.96635L29.4857 9.9176H27.3545L19.7431 0.00826923H21.8681ZM42.5672 5.67846H43.2867V8.58231C43.2857 8.84913 43.2305 9.07731 43.1229 9.26933C43.0139 9.46115 42.8631 9.60769 42.6696 9.71106C42.477 9.81317 42.2514 9.86548 41.9951 9.86548C41.7607 9.86548 41.5507 9.82125 41.3636 9.7349C41.1765 9.64856 41.0281 9.51913 40.9191 9.34875C40.8089 9.17846 40.7551 8.96606 40.7551 8.71173H41.4758C41.4769 8.82298 41.5011 8.91942 41.5473 9.00019C41.5927 9.0799 41.6592 9.14415 41.7388 9.18519C41.8212 9.22846 41.9159 9.25 42.0225 9.25C42.1382 9.25 42.2371 9.225 42.3174 9.17385C42.3977 9.12385 42.4594 9.04894 42.5023 8.94904C42.5441 8.85019 42.5661 8.7276 42.5672 8.58221V5.67846ZM46.2474 6.81404C46.2299 6.63808 46.1528 6.50058 46.0186 6.40298C45.8832 6.30414 45.7083 6.25538 45.4937 6.25538C45.3432 6.25538 45.2133 6.27923 45.1054 6.32577C44.9976 6.37346 44.914 6.43702 44.8567 6.51769C44.7996 6.59827 44.771 6.69029 44.7687 6.79365C44.7687 6.8799 44.7885 6.9549 44.827 7.01731C44.8669 7.08273 44.9208 7.13757 44.9843 7.1775C45.0534 7.22299 45.1273 7.25993 45.2045 7.2876C45.2858 7.31712 45.3673 7.34212 45.4486 7.3626L45.8238 7.45913C45.9746 7.49548 46.121 7.54423 46.2607 7.60673C46.4003 7.66808 46.5269 7.74644 46.638 7.84067C46.7491 7.9349 46.8372 8.04846 46.9021 8.18135C46.967 8.31423 47 8.46981 47 8.64923C47 8.89106 46.9406 9.10346 46.8206 9.2874C46.7007 9.47029 46.528 9.61337 46.3013 9.71673C46.0758 9.81894 45.8029 9.87115 45.4817 9.87115C45.1714 9.87115 44.9008 9.82115 44.6729 9.72125C44.4442 9.6225 44.2659 9.47702 44.1371 9.28625C44.0084 9.09548 43.9391 8.86269 43.9292 8.58904H44.6423C44.6521 8.73212 44.6962 8.85135 44.771 8.94788C44.8468 9.04327 44.9459 9.11365 45.0669 9.16135C45.189 9.20798 45.3254 9.23183 45.4762 9.23183C45.6335 9.23183 45.7721 9.20683 45.892 9.15798C46.0109 9.10913 46.1043 9.04106 46.1715 8.9524C46.2397 8.8649 46.2739 8.76163 46.275 8.64356C46.2739 8.53567 46.243 8.44596 46.1836 8.37548C46.1231 8.3051 46.0394 8.24606 45.9327 8.19837C45.825 8.15067 45.6995 8.1075 45.5565 8.0701L45.101 7.94971C44.772 7.86221 44.5113 7.72942 44.3209 7.55106C44.1295 7.37279 44.0349 7.13663 44.0349 6.84019C44.0349 6.59721 44.0987 6.38365 44.2275 6.20077C44.3551 6.01808 44.53 5.87606 44.7512 5.775C44.9733 5.67279 45.2243 5.62279 45.5036 5.62279C45.7875 5.62279 46.0361 5.67279 46.2508 5.775C46.4652 5.87606 46.6336 6.01683 46.7556 6.19625C46.8778 6.37577 46.9417 6.58125 46.945 6.81404H46.2474Z" fill="white"/>
</g>
<defs>
<clipPath id="clip0_34_281">
<rect width="47" height="10" fill="white"/>
</clipPath>
</defs>
</svg>
