<svg xmlns="http://www.w3.org/2000/svg" width="111" height="23" fill="none" xmlns:v="https://vecta.io/nano"><g clip-path="url(#A)"><path d="M93.124.01v3.64h-7.67v19.151h-3.835V3.65h-7.829V.01h19.334zm.862 20.62a.97.97 0 0 1 .707.298c.203.198.304.436.307.713-.001.182-.05.36-.143.515s-.219.28-.372.368-.323.14-.499.139c-.281 0-.52-.099-.72-.298s-.299-.439-.297-.724c-.002-.277.097-.515.297-.713a.98.98 0 0 1 .72-.298zm-76.01 2.171L3.835 4.872v17.92H0V0h4.794l17.865 22.631V3.65L22.658.01h19.334v3.64H26.494v5.856h12.463v3.64H26.494v6.014h15.498v3.64H17.976zm36.307-9.689l2.513 3.188-5.15 6.529h-5.033l7.67-9.716zM51.646.019l6.489 8.22L64.603.044l5.019-.008-8.974 11.386 8.989 11.388h-5.033L46.627.019h5.019zm48.885 13.041h1.699v6.679c-.002.614-.132 1.139-.387 1.58s-.613.778-1.07 1.016-.988.355-1.593.355c-.553 0-1.049-.102-1.491-.3s-.792-.496-1.05-.888-.387-.88-.387-1.465h1.702c.003.256.06.478.169.663s.264.331.452.426c.195.1.418.149.67.149a1.3 1.3 0 0 0 .697-.175c.19-.115.335-.287.437-.517s.15-.509.153-.844v-6.679zm8.691 2.612a1.26 1.26 0 0 0-.54-.945c-.32-.227-.733-.34-1.239-.34-.356 0-.663.055-.917.162s-.452.256-.588.441-.202.397-.208.635c0 .198.047.371.138.514.094.15.221.277.372.368.163.105.337.19.519.253l.577.172.886.222c.356.084.702.196 1.032.34s.629.321.891.538a2.42 2.42 0 0 1 .624.784c.153.306.231.663.231 1.076 0 .556-.14 1.045-.424 1.468s-.691.75-1.226.988-1.177.355-1.936.355c-.733 0-1.372-.115-1.91-.345s-.961-.562-1.265-1-.468-.974-.491-1.604h1.684c.023.329.127.603.304.825s.413.381.699.491a2.75 2.75 0 0 0 .966.162c.372 0 .699-.058.982-.17s.502-.269.66-.473.242-.439.245-.71a.93.93 0 0 0-.216-.617 1.66 1.66 0 0 0-.593-.407 5.96 5.96 0 0 0-.888-.295l-1.076-.277c-.777-.201-1.393-.507-1.842-.917s-.676-.953-.676-1.635c0-.559.151-1.05.455-1.471s.715-.747 1.237-.979 1.117-.35 1.777-.35c.671 0 1.258.115 1.765.35s.904.556 1.192.969a2.49 2.49 0 0 1 .447 1.421h-1.648z" fill="#fff"/></g><defs><clipPath id="A"><path fill="#fff" d="M0 0h111v23H0z"/></clipPath></defs></svg>