<svg xmlns="http://www.w3.org/2000/svg" width="107" height="65" fill="none" xmlns:v="https://vecta.io/nano"><g clip-path="url(#B)"><path d="M52.896 64.812c-.362 0-.7-.096-1.014-.263l-3.212-1.89c-.483-.263-.242-.359-.096-.407.652-.215.773-.263 1.449-.646.072-.048.169-.024.242.024l2.464 1.459c.096.048.217.048.29 0l9.637-5.527c.097-.048.145-.144.145-.263V46.271c0-.12-.048-.215-.145-.263l-9.637-5.503c-.097-.048-.217-.048-.29 0l-9.637 5.503c-.097.048-.145.167-.145.263V57.3c0 .096.048.215.145.263l2.633 1.507c1.425.718 2.319-.12 2.319-.957V47.228c0-.143.121-.287.29-.287h1.232c.145 0 .29.12.29.287v10.886c0 1.89-1.039 2.991-2.85 2.991-.555 0-.99 0-2.222-.598l-2.536-1.435c-.628-.359-1.014-1.029-1.014-1.746V46.295c0-.718.386-1.388 1.014-1.747l9.637-5.527c.604-.335 1.425-.335 2.029 0l9.637 5.527c.628.359 1.015 1.029 1.015 1.747v11.029c0 .718-.387 1.388-1.015 1.746l-9.637 5.527a2.49 2.49 0 0 1-1.015.215zm2.971-7.584c-4.227 0-5.096-1.914-5.096-3.541 0-.144.121-.287.29-.287h1.256c.145 0 .266.096.266.239.193 1.268.749 1.89 3.309 1.89 2.029 0 2.899-.455 2.899-1.531 0-.622-.242-1.076-3.406-1.388-2.633-.263-4.275-.837-4.275-2.919 0-1.938 1.643-3.086 4.396-3.086 3.091 0 4.613 1.053 4.807 3.349 0 .072-.024.144-.072.215-.049.048-.121.096-.193.096H58.79c-.121 0-.242-.096-.266-.215-.29-1.316-1.039-1.747-3.019-1.747-2.222 0-2.488.766-2.488 1.34 0 .694.314.909 3.309 1.292 2.971.383 4.372.933 4.372 2.991-.024 2.105-1.763 3.302-4.831 3.302z" fill="#539e43"/><path d="M22.994 21.676c0-.431-.242-.838-.628-1.053l-10.241-5.838c-.169-.096-.362-.144-.556-.168h-.097c-.193 0-.386.072-.556.168L.676 20.623c-.387.215-.628.622-.628 1.053l.024 15.695c0 .215.121.431.314.526.193.12.435.12.604 0l6.087-3.445c.386-.215.628-.622.628-1.053v-7.345c0-.431.241-.837.628-1.053l2.584-1.483a1.18 1.18 0 0 1 .628-.168c.217 0 .435.048.604.168l2.584 1.483c.387.215.628.622.628 1.053v7.345c0 .431.242.837.628 1.053l6.087 3.445c.094.059.203.09.314.09s.22-.031.314-.09c.193-.096.314-.311.314-.526l-.024-15.695zM72.219.072a.67.67 0 0 0-.604 0c-.193.12-.314.311-.314.526v15.551c0 .143-.072.287-.217.383-.145.072-.29.072-.435 0l-2.56-1.459c-.188-.106-.4-.162-.616-.162s-.428.056-.616.162l-10.241 5.862c-.386.215-.628.622-.628 1.053v11.699c0 .431.242.837.628 1.053l10.241 5.862c.188.106.4.162.616.162s.428-.056.616-.162l10.241-5.862c.386-.215.628-.622.628-1.053V4.522c0-.455-.242-.861-.628-1.077L72.219.072zm-.942 29.763c0 .12-.048.215-.145.263l-3.502 2.01c-.049.024-.103.036-.157.036a.36.36 0 0 1-.157-.036l-3.502-2.01c-.097-.048-.145-.167-.145-.263v-4.019c0-.12.048-.215.145-.263l3.502-2.01a.36.36 0 0 1 .314 0l3.502 2.01c.097.048.145.168.145.263v4.019zm35.022-4.115c.387-.215.604-.622.604-1.053V21.82c0-.431-.241-.837-.604-1.053l-10.168-5.837c-.188-.106-.4-.162-.616-.162s-.428.056-.616.162l-10.241 5.861c-.387.215-.628.622-.628 1.053v11.699c0 .431.242.837.628 1.053l10.169 5.742a1.21 1.21 0 0 0 1.208 0l6.159-3.397c.194-.096.314-.311.314-.526s-.12-.431-.314-.526l-10.289-5.862c-.193-.12-.314-.311-.314-.526v-3.66c0-.215.121-.431.314-.526l3.212-1.818c.094-.059.203-.09.314-.09s.22.031.314.09l3.213 1.818c.193.12.314.311.314.526v2.871c0 .215.121.431.314.526.094.059.203.09.314.09s.22-.031.314-.09l6.086-3.517z" fill="#fff"/><path d="M95.358 25.169a.22.22 0 0 1 .242 0l1.956 1.124c.072.048.121.12.121.215v2.249a.25.25 0 0 1-.121.215L95.6 30.098a.22.22 0 0 1-.121.036c-.043 0-.085-.013-.121-.036l-1.956-1.125a.25.25 0 0 1-.121-.215v-2.249a.25.25 0 0 1 .121-.215l1.956-1.125z" fill="#539e43"/><path d="M40.119 14.977c-.188-.106-.4-.161-.616-.161s-.428.056-.616.161l-10.169 5.813c-.387.215-.604.622-.604 1.053v11.652c0 .431.242.837.604 1.053l10.169 5.814c.188.106.4.161.616.161s.428-.056.616-.161l10.169-5.814c.386-.215.604-.622.604-1.053V21.843c0-.43-.242-.837-.604-1.053l-10.169-5.814z" fill="url(#A)"/></g><defs><linearGradient id="A" x1="1581.23" y1="464.352" x2="481.687" y2="2208.57" gradientUnits="userSpaceOnUse"><stop stop-color="#41873f"/><stop offset=".329" stop-color="#418b3d"/><stop offset=".635" stop-color="#419637"/><stop offset=".932" stop-color="#3fa92d"/><stop offset="1" stop-color="#3fae2a"/></linearGradient><clipPath id="B"><path fill="#fff" d="M0 0h107v65H0z"/></clipPath></defs></svg>