<svg width="17" height="17" viewBox="0 0 17 17" fill="none" xmlns="http://www.w3.org/2000/svg">
<g clip-path="url(#clip0_34_392)">
<path d="M16.9341 10.1797C16.8322 9.88038 16.5652 9.67187 16.2199 9.62184C16.057 9.59827 15.8706 9.60832 15.6499 9.65243C15.2653 9.72938 14.9799 9.75868 14.7717 9.76434C15.5577 8.47743 16.1969 7.00989 16.5648 5.62845C17.1598 3.39469 16.8419 2.37707 16.4703 1.91678C15.4871 0.698449 14.0525 0.0439489 12.3218 0.0239224C11.3986 0.0129754 10.5881 0.189737 10.1653 0.31685C9.77162 0.249494 9.34834 0.211888 8.90422 0.204934C8.07168 0.192055 7.3361 0.368044 6.70757 0.729744C6.3596 0.615638 5.80112 0.454782 5.15619 0.352138C3.63933 0.110661 2.41679 0.29882 1.52257 0.9114C0.439748 1.65309 -0.0622171 2.94174 0.0306188 4.74155C0.0601032 5.31298 0.389744 7.05162 0.908775 8.70049C1.20707 9.64824 1.52516 10.4353 1.8542 11.0399C2.32084 11.8973 2.82015 12.4022 3.38068 12.5836C3.69485 12.6851 4.26568 12.7562 4.86606 12.2713C4.94216 12.3606 5.04369 12.4494 5.17843 12.5319C5.34956 12.6366 5.55881 12.7221 5.76779 12.7728C6.5209 12.9553 7.22633 12.9097 7.82817 12.6538C7.83189 12.7576 7.83475 12.8567 7.83714 12.9424C7.84112 13.0813 7.84511 13.2175 7.85035 13.3448C7.88601 14.206 7.94644 14.8757 8.12547 15.3442C8.1353 15.37 8.14852 15.4092 8.16246 15.4509C8.25178 15.7161 8.40113 16.16 8.7811 16.5077C9.17456 16.8678 9.65049 16.9783 10.0864 16.9783C10.305 16.9783 10.5136 16.9504 10.6965 16.9125C11.3486 16.7769 12.0893 16.5705 12.625 15.8307C13.1316 15.1314 13.3778 14.0781 13.4224 12.4185C13.4281 12.3715 13.4335 12.3267 13.4386 12.284L13.4492 12.1963L13.5685 12.2065L13.5993 12.2085C14.2635 12.2378 15.0756 12.1013 15.5744 11.8766C15.9685 11.6993 17.2315 11.0527 16.9341 10.1797Z" fill="white"/>
<path d="M15.7984 10.3496C13.8235 10.7446 13.6877 10.0963 13.6877 10.0963C15.7729 7.09595 16.6446 3.2875 15.8924 2.3554C13.8402 -0.187197 10.2878 1.0153 10.2285 1.04646L10.2094 1.04981C9.81923 0.97125 9.38261 0.9245 8.8918 0.916709C7.99823 0.902542 7.32036 1.14389 6.80598 1.52214C6.80598 1.52214 0.468828 -1.00944 0.763606 4.70603C0.826293 5.92192 2.56082 13.9062 4.62964 11.4946C5.38581 10.6127 6.11648 9.86708 6.11648 9.86708C6.47932 10.1008 6.91375 10.2201 7.36917 10.1773L7.40456 10.1482C7.39354 10.2576 7.39859 10.3647 7.41871 10.4915C6.88573 11.0689 7.04238 11.1703 5.97696 11.383C4.89886 11.5984 5.53217 11.982 5.94568 12.0823C6.44698 12.2038 7.6067 12.376 8.3903 11.3123L8.35909 11.4337C8.56787 11.5959 8.71449 12.4886 8.68992 13.298C8.66535 14.1073 8.64895 14.6629 8.81344 15.097C8.97806 15.531 9.14202 16.5075 10.5427 16.2165C11.7129 15.9733 12.3194 15.3431 12.4038 14.2918C12.4637 13.5444 12.5992 13.6549 12.6077 12.9867L12.7164 12.6704C12.8417 11.6573 12.7363 11.3304 13.4573 11.4825L13.6326 11.4974C14.1632 11.5208 14.8578 11.4146 15.2655 11.2309C16.1432 10.8359 16.6639 10.1763 15.7983 10.3496H15.7984Z" fill="#336791"/>
<path d="M7.17693 5.24978C6.99896 5.22576 6.83779 5.24797 6.75625 5.30786C6.71043 5.34154 6.69622 5.38056 6.69236 5.40741C6.68214 5.47857 6.73354 5.55726 6.76514 5.59783C6.85453 5.71271 6.98508 5.79165 7.11431 5.80904C7.13304 5.81161 7.1517 5.81277 7.17022 5.81277C7.38571 5.81277 7.58168 5.65005 7.59894 5.52996C7.62052 5.37953 7.39534 5.27921 7.17693 5.24978ZM13.0727 5.25454C13.0557 5.13664 12.8394 5.10302 12.6341 5.13071C12.429 5.1584 12.2302 5.24817 12.2468 5.36633C12.2601 5.45822 12.4312 5.61508 12.6337 5.61508C12.6509 5.61508 12.6681 5.61399 12.6855 5.61161C12.8207 5.59345 12.9199 5.51019 12.9671 5.46221C13.0388 5.38906 13.0804 5.30754 13.0727 5.25454Z" fill="#C8E0FF"/>
<path d="M16.4556 10.3046C16.3803 10.0838 16.1379 10.0128 15.7352 10.0934C14.5396 10.3327 14.1114 10.1669 13.9708 10.0665C14.9002 8.69366 15.6647 7.0341 16.0771 5.48575C16.2725 4.7523 16.3804 4.07115 16.3893 3.51594C16.399 2.90658 16.292 2.45879 16.0712 2.18524C15.1813 1.08249 13.8751 0.490971 12.2939 0.474744C11.2069 0.462895 10.2885 0.732641 10.1105 0.808497C9.73555 0.718088 9.32682 0.662581 8.88183 0.655497C8.06583 0.642683 7.36046 0.83213 6.77649 1.2183C6.52282 1.12673 5.86725 0.908501 5.06553 0.783255C3.6795 0.566891 2.57809 0.730838 1.7921 1.27078C0.854246 1.91511 0.421277 3.06686 0.505148 4.69396C0.533371 5.24138 0.855043 6.92541 1.36265 8.53815C2.03083 10.6608 2.75718 11.8625 3.52139 12.1097C3.61084 12.1386 3.71396 12.1588 3.82772 12.1588C4.10649 12.1588 4.44829 12.037 4.80389 11.6224C5.23763 11.1179 5.6863 10.6256 6.14935 10.1461C6.44977 10.3025 6.77981 10.3898 7.11735 10.3986C7.11802 10.4071 7.11888 10.4157 7.11968 10.4242C7.06157 10.4914 7.00468 10.5595 6.94901 10.6286C6.71513 10.9165 6.66645 10.9765 5.91361 11.1268C5.69945 11.1697 5.13068 11.2833 5.12231 11.67C5.11328 12.0924 5.79467 12.2698 5.8723 12.2886C6.14284 12.3543 6.40348 12.3867 6.65204 12.3867C7.25654 12.3867 7.78852 12.194 8.21365 11.8212C8.20057 13.3271 8.26532 14.811 8.45179 15.2631C8.60452 15.6333 8.97759 16.5378 10.156 16.5377C10.329 16.5377 10.5193 16.5182 10.7287 16.4747C11.9586 16.2191 12.4927 15.6919 12.6993 14.5298C12.8098 13.9087 12.9996 12.4257 13.0888 11.6302C13.2771 11.6871 13.5196 11.7132 13.7817 11.7132C14.3283 11.7132 14.9591 11.6005 15.3547 11.4225C15.7991 11.2223 16.601 10.7313 16.4556 10.3046ZM13.5267 4.929C13.5226 5.16385 13.4893 5.37705 13.454 5.5996C13.4159 5.83895 13.3766 6.08642 13.3667 6.38682C13.3569 6.67916 13.3946 6.9831 13.431 7.27706C13.5046 7.87077 13.5801 8.482 13.2878 9.08511C13.2393 9.0017 13.196 8.91549 13.1583 8.82696C13.122 8.74157 13.0431 8.60441 12.9339 8.41458C12.5089 7.6756 11.5138 5.94507 12.0232 5.23893C12.175 5.02875 12.5601 4.81264 13.5267 4.929ZM12.355 0.950293C13.7717 0.980622 14.8924 1.49455 15.6858 2.47772C16.2944 3.23183 15.6243 6.66319 13.6843 9.62345C13.6648 9.59939 13.6452 9.57542 13.6255 9.55152L13.6009 9.52177C14.1022 8.71897 14.0042 7.92467 13.917 7.22046C13.8811 6.93146 13.8472 6.65849 13.8559 6.40208C13.8648 6.13033 13.9018 5.89723 13.9377 5.67185C13.9817 5.39412 14.0265 5.10673 14.0142 4.76795C14.0234 4.73241 14.0271 4.69042 14.0223 4.64058C13.9907 4.31571 13.6082 3.34343 12.8286 2.46342C12.4022 1.98208 11.7803 1.44342 10.9311 1.08011C11.2964 1.0067 11.7958 0.938251 12.355 0.950293ZM4.42757 11.319C4.03577 11.7758 3.76523 11.6882 3.67625 11.6595C3.09652 11.472 2.42382 10.2838 1.83075 8.39964C1.31756 6.76932 1.01767 5.12991 0.993898 4.6702C0.918992 3.21632 1.28243 2.20308 2.0742 1.65856C3.36274 0.772501 5.48123 1.30285 6.3325 1.57182C6.32028 1.58354 6.30753 1.59449 6.29544 1.6064C4.89852 2.97439 4.93166 5.31163 4.93511 5.45452C4.93498 5.50964 4.93976 5.58769 4.94627 5.69503C4.9703 6.08816 5.01506 6.8198 4.89553 7.64836C4.7845 8.41832 5.02927 9.17192 5.56696 9.71598C5.62215 9.77171 5.68015 9.82475 5.74075 9.87491C5.50142 10.1235 4.98126 10.6731 4.42757 11.319ZM5.92031 9.38764C5.48695 8.94911 5.29012 8.33917 5.38023 7.71404C5.5064 6.8388 5.45985 6.0765 5.43482 5.66696C5.4313 5.60964 5.42818 5.55942 5.42638 5.51982C5.63045 5.34434 6.57614 4.85302 7.25056 5.00286C7.55829 5.07118 7.74582 5.27441 7.82378 5.62394C8.22727 7.4336 7.87717 8.18785 7.59587 8.79399C7.5379 8.91885 7.48312 9.03688 7.43637 9.15897L7.40011 9.25338C7.30834 9.49202 7.22294 9.71392 7.17001 9.92462C6.70929 9.92333 6.26111 9.73247 5.92031 9.38757V9.38764ZM5.99104 11.8282C5.8565 11.7956 5.7355 11.739 5.66452 11.692C5.72382 11.665 5.82934 11.6282 6.01235 11.5916C6.89801 11.4148 7.03481 11.29 7.3335 10.9223C7.40197 10.8379 7.4796 10.7424 7.58711 10.6259L7.58724 10.6258C7.74735 10.4519 7.82059 10.4814 7.95341 10.5349C8.06105 10.578 8.16591 10.7089 8.20841 10.8529C8.22853 10.9209 8.25111 11.0499 8.1772 11.1504C7.55324 11.9975 6.64401 11.9866 5.99104 11.8282ZM10.6261 16.0107C9.54264 16.2358 9.15901 15.6997 8.9062 15.0869C8.74304 14.6913 8.66282 12.9072 8.71973 10.9369C8.72047 10.9107 8.71661 10.8854 8.70918 10.8615C8.70252 10.8145 8.6924 10.768 8.67889 10.7223C8.59429 10.4356 8.3881 10.1958 8.14074 10.0964C8.04246 10.0569 7.8621 9.98451 7.64535 10.0383C7.69157 9.85359 7.77172 9.64502 7.85864 9.41919L7.8951 9.32421C7.93614 9.21712 7.98767 9.10617 8.04213 8.98872C8.3365 8.35456 8.73966 7.48596 8.30211 5.52368C8.13821 4.78869 7.59089 4.42975 6.76121 4.51314C6.26383 4.56305 5.80875 4.75765 5.58177 4.86924C5.53296 4.8932 5.48834 4.91638 5.44664 4.93892C5.50999 4.19839 5.74932 2.81443 6.64461 1.9388C7.20833 1.38759 7.95905 1.11533 8.87373 1.13002C10.676 1.15861 11.8317 2.05549 12.484 2.80291C13.046 3.44691 13.3504 4.09568 13.4718 4.4456C12.5584 4.35551 11.9372 4.53034 11.6223 4.96693C10.9372 5.91661 11.9971 7.75982 12.5065 8.64569C12.5999 8.80803 12.6805 8.94834 12.7059 9.00797C12.8718 9.39781 13.0865 9.65809 13.2433 9.84805C13.2914 9.90627 13.338 9.96274 13.3735 10.0121C13.0968 10.0894 12.5999 10.2681 12.6452 11.1613C12.6087 11.6095 12.349 13.7078 12.217 14.4492C12.0428 15.4286 11.6712 15.7934 10.6261 16.0107V16.0107ZM15.1487 10.9921C14.8658 11.1194 14.3924 11.2149 13.9427 11.2354C13.4459 11.258 13.1931 11.1815 13.1336 11.1344C13.1057 10.5778 13.3193 10.5196 13.5454 10.4581C13.5809 10.4484 13.6156 10.4389 13.6491 10.4276C13.6699 10.444 13.6926 10.4603 13.7176 10.4763C14.1168 10.7318 14.8289 10.7594 15.8342 10.5581L15.8453 10.556C15.7097 10.6789 15.4776 10.8439 15.1487 10.9921Z" fill="#C8E0FF"/>
</g>
<defs>
<clipPath id="clip0_34_392">
<rect width="17" height="17" fill="white"/>
</clipPath>
</defs>
</svg>
