<svg xmlns="http://www.w3.org/2000/svg" width="74" height="76" fill="none" xmlns:v="https://vecta.io/nano"><g clip-path="url(#A)"><path d="M73.713 45.51c-.444-1.338-1.606-2.271-3.109-2.494-.709-.105-1.52-.061-2.481.137-1.674.344-2.916.475-3.823.5 3.422-5.753 6.204-12.314 7.806-18.49 2.59-9.986 1.206-14.536-.411-16.593C67.414 3.123 61.17.197 53.636.107c-4.019-.049-7.547.741-9.387 1.31-1.714-.301-3.556-.469-5.489-.5-3.624-.058-6.826.729-9.562 2.346-1.515-.51-3.946-1.229-6.753-1.688-6.603-1.08-11.924-.238-15.817 2.5C1.914 7.39-.271 13.152.133 21.198c.128 2.555 1.563 10.327 3.823 17.699 1.298 4.237 2.683 7.755 4.115 10.459 2.031 3.833 4.205 6.09 6.645 6.901 1.368.454 3.852.772 6.466-1.396.331.4.773.797 1.36 1.165.745.468 1.656.85 2.565 1.077 3.278.816 6.349.612 8.969-.532l.039 1.29.057 1.799c.155 3.85.418 6.844 1.198 8.938.043.115.1.291.161.477.389 1.185 1.039 3.17 2.693 4.724 1.713 1.61 3.784 2.104 5.682 2.104.952 0 1.86-.124 2.656-.294 2.839-.606 6.063-1.529 8.395-4.836 2.205-3.126 3.277-7.835 3.471-15.255l.071-.601.046-.392.52.045.134.009c2.891.131 6.426-.479 8.598-1.484 1.716-.793 7.213-3.683 5.919-7.586z" fill="#fff"/><path d="M68.77 46.268c-8.597 1.766-9.188-1.133-9.188-1.133 9.077-13.413 12.871-30.439 9.597-34.606C60.246-.837 44.782 4.539 44.524 4.678l-.083.015c-1.699-.351-3.599-.56-5.736-.595-3.89-.063-6.84 1.016-9.079 2.707 0 0-27.585-11.318-26.302 14.234.273 5.436 7.823 41.13 16.829 30.349 3.291-3.943 6.472-7.276 6.472-7.276 1.579 1.045 3.47 1.578 5.453 1.387l.154-.13c-.048.489-.026.968.062 1.535-2.32 2.581-1.638 3.034-6.276 3.985-4.693.963-1.936 2.678-.136 3.126 2.182.543 7.23 1.313 10.641-3.442l-.136.543c.909.725 1.547 4.716 1.44 8.335s-.178 6.102.538 8.043 1.43 6.306 7.527 5.005c5.094-1.087 7.734-3.905 8.102-8.605.261-3.341.85-2.847.887-5.834l.473-1.414c.545-4.529.087-5.99 3.225-5.311l.763.067c2.31.105 5.333-.37 7.108-1.191 3.821-1.766 6.087-4.715 2.319-3.94h.001z" fill="#336791"/><g fill="#c8e0ff"><path d="M31.241 23.469c-.775-.107-1.476-.008-1.831.26-.199.151-.261.325-.278.445-.044.318.179.67.317.851.389.514.957.866 1.52.944a1.74 1.74 0 0 0 .243.017c.938 0 1.791-.727 1.866-1.264.094-.673-.886-1.121-1.837-1.253zm25.664.021c-.074-.527-1.016-.677-1.91-.554s-1.758.525-1.686 1.053c.058.411.803 1.112 1.684 1.112a1.61 1.61 0 0 0 .225-.016c.589-.081 1.02-.453 1.226-.668.312-.327.493-.692.46-.928zM71.63 46.068c-.328-.987-1.383-1.305-3.136-.944-5.205 1.07-7.068.329-7.68-.12 4.045-6.138 7.374-13.557 9.169-20.479.85-3.279 1.32-6.324 1.359-8.806.043-2.724-.423-4.726-1.384-5.949-3.874-4.93-9.56-7.574-16.443-7.647-4.732-.053-8.729 1.153-9.504 1.492-1.632-.404-3.411-.652-5.348-.684-3.552-.057-6.622.79-9.164 2.516-1.104-.409-3.958-1.385-7.448-1.945-6.033-.967-10.828-.234-14.249 2.18C3.72 8.563 1.835 13.712 2.2 20.986c.123 2.447 1.523 9.976 3.733 17.186 2.909 9.49 6.07 14.862 9.397 15.967.389.129.838.22 1.333.22 1.213 0 2.701-.545 4.249-2.398a152.72 152.72 0 0 1 5.857-6.6c1.308.699 2.744 1.089 4.214 1.129l.01.115c-.253.3-.501.605-.743.914-1.018 1.287-1.23 1.555-4.507 2.227-.932.192-3.408.7-3.444 2.428-.039 1.889 2.927 2.682 3.265 2.766 1.178.294 2.312.438 3.394.438 2.631 0 4.947-.861 6.798-2.528-.057 6.732.225 13.366 1.037 15.387.665 1.655 2.289 5.698 7.419 5.698.753 0 1.581-.087 2.492-.282 5.354-1.143 7.679-3.499 8.578-8.695.481-2.777 1.307-9.407 1.696-12.963.82.255 1.875.371 3.016.371 2.38 0 5.125-.503 6.847-1.3 1.934-.895 5.425-3.09 4.792-4.998zM58.881 22.036c-.018 1.05-.163 2.003-.316 2.998-.166 1.07-.337 2.176-.38 3.519-.042 1.307.121 2.666.28 3.98.32 2.654.649 5.387-.623 8.083a10.5 10.5 0 0 1-.564-1.154c-.158-.382-.502-.995-.977-1.844-1.85-3.304-6.181-11.04-3.964-14.197.66-.94 2.337-1.906 6.544-1.386zm-5.1-17.787c6.167.136 11.045 2.433 14.499 6.828 2.649 3.371-.268 18.712-8.712 31.946l-.256-.322-.107-.133c2.182-3.589 1.755-7.14 1.376-10.288-.156-1.292-.303-2.512-.266-3.659.039-1.215.2-2.257.356-3.265.192-1.242.387-2.526.333-4.041.04-.159.056-.347.035-.569-.137-1.452-1.802-5.799-5.196-9.733-1.856-2.152-4.564-4.56-8.26-6.184 1.59-.328 3.764-.634 6.198-.58zM19.273 50.603c-1.706 2.042-2.883 1.651-3.27 1.522-2.524-.838-5.452-6.15-8.033-14.574-2.234-7.288-3.539-14.618-3.643-16.673C4 14.379 5.582 9.849 9.029 7.415c5.609-3.961 14.831-1.59 18.536-.388l-.161.155c-6.081 6.116-5.937 16.565-5.921 17.203-.001.246.02.595.049 1.075.105 1.758.3 5.028-.221 8.732-.483 3.442.582 6.811 2.923 9.244a10.45 10.45 0 0 0 .756.71 155.83 155.83 0 0 0-5.716 6.456zm6.498-8.634c-1.886-1.96-2.743-4.687-2.351-7.482.549-3.913.347-7.321.238-9.152l-.037-.658c.888-.785 5.005-2.981 7.941-2.311 1.339.305 2.156 1.214 2.495 2.777 1.756 8.09.232 11.462-.992 14.172-.252.558-.491 1.086-.694 1.632l-.158.422c-.399 1.067-.771 2.059-1.002 3.001-2.005-.006-3.956-.859-5.44-2.401h0zm.308 10.911a4.72 4.72 0 0 1-1.421-.608c.258-.121.718-.286 1.514-.449 3.855-.79 4.451-1.348 5.751-2.992.298-.377.636-.804 1.104-1.325h.001c.697-.777 1.016-.645 1.594-.407.469.193.925.778 1.11 1.422.088.304.186.881-.136 1.33-2.716 3.787-6.674 3.739-9.516 3.03zm20.176 18.698c-4.716 1.007-6.386-1.39-7.487-4.13-.71-1.769-1.059-9.745-.812-18.553a1.06 1.06 0 0 0-.046-.337 4.41 4.41 0 0 0-.132-.622c-.368-1.282-1.266-2.354-2.343-2.798-.428-.176-1.213-.5-2.156-.26.201-.826.55-1.758.928-2.768l.159-.425c.179-.479.403-.975.64-1.5 1.281-2.835 3.036-6.718 1.132-15.491-.713-3.286-3.096-4.89-6.707-4.518-2.165.223-4.146 1.093-5.134 1.592a16.76 16.76 0 0 0-.588.311c.276-3.311 1.318-9.498 5.215-13.412 2.454-2.464 5.722-3.681 9.703-3.616 7.845.128 12.876 4.137 15.715 7.479 2.447 2.879 3.771 5.78 4.3 7.344-3.976-.403-6.68.379-8.051 2.331-2.982 4.246 1.631 12.486 3.849 16.446.407.726.758 1.353.868 1.62.722 1.743 1.657 2.906 2.339 3.756a14.89 14.89 0 0 1 .566.733c-1.204.346-3.367 1.145-3.17 5.138-.159 2.004-1.29 11.384-1.864 14.699-.758 4.379-2.376 6.009-6.925 6.981h0zm19.686-22.436c-1.231.569-3.292.996-5.25 1.088-2.162.101-3.263-.241-3.522-.452-.121-2.488.808-2.748 1.793-3.024a7.57 7.57 0 0 0 .451-.136 3.7 3.7 0 0 0 .298.218c1.738 1.142 4.838 1.266 9.214.366l.048-.01c-.59.55-1.6 1.287-3.032 1.95z"/></g></g><defs><clipPath id="A"><path fill="#fff" d="M0 0h74v76H0z"/></clipPath></defs></svg>