<svg width="69" height="62" viewBox="0 0 69 62" fill="none" xmlns="http://www.w3.org/2000/svg">
<g clip-path="url(#clip0_34_286)">
<path d="M56.7317 20.0749C55.9974 19.8207 55.2569 19.5852 54.5108 19.3687C54.6361 18.852 54.7515 18.3416 54.8539 17.8402C56.5353 9.60587 55.4361 2.97215 51.6818 0.788005C48.0822 -1.30585 42.1954 0.87747 36.2501 6.09771C35.6641 6.6131 35.0912 7.14336 34.5318 7.68795C34.1573 7.32581 33.7762 6.9707 33.3887 6.6228C27.1577 1.04117 20.9121 -1.31129 17.1619 0.879102C13.5655 2.97949 12.5006 9.21565 14.0143 17.0195C14.1649 17.7924 14.3349 18.5613 14.5242 19.3255C13.6402 19.5789 12.7871 19.8487 11.9707 20.1358C4.66532 22.7055 0 26.7326 0 30.9097C0 35.2238 5.00843 39.5511 12.6173 42.1749C13.2342 42.3868 13.8562 42.5831 14.4827 42.7636C14.2792 43.5867 14.0986 44.4153 13.941 45.2485C12.4979 52.917 13.6248 59.0057 17.2115 61.0928C20.9159 63.2481 27.1334 61.033 33.1874 55.6936C33.6783 55.2595 34.1584 54.8132 34.6272 54.3549C35.233 54.9446 35.855 55.5172 36.4924 56.0719C42.3568 61.163 48.1485 63.2187 51.7317 61.126C55.4326 58.9644 56.6355 52.4234 55.0739 44.4654C54.9508 43.8419 54.8129 43.2216 54.6601 42.6048C55.0968 42.4743 55.5253 42.34 55.9431 42.2002C63.8533 39.5562 69 35.2815 69 30.9097C69 26.7173 64.184 22.6631 56.7317 20.0749ZM55.0162 39.3776C54.6388 39.5035 54.2518 39.625 53.8572 39.7433C52.9839 36.9541 51.8055 33.9885 50.3633 30.9241C51.7395 27.9329 52.8726 25.005 53.7214 22.234C54.4273 22.4401 55.1121 22.6574 55.7725 22.8867C62.1577 25.1045 66.0524 28.3832 66.0524 30.9097C66.0524 33.6007 61.8461 37.0942 55.0162 39.3776ZM52.1823 45.043C52.8729 48.5617 52.9712 51.7433 52.5139 54.2306C52.1031 56.4656 51.2767 57.9555 50.2546 58.5524C48.0803 59.8223 43.4301 58.1717 38.4149 53.8176C37.8221 53.3018 37.2435 52.7696 36.68 52.2214C38.6244 50.0761 40.5674 47.5822 42.4638 44.8124C45.7996 44.5138 48.9509 44.0254 51.8088 43.3589C51.9464 43.9172 52.071 44.4787 52.1823 45.043ZM23.5236 58.333C21.3992 59.0898 19.707 59.1115 18.6842 58.5165C16.5077 57.2502 15.6029 52.3611 16.8371 45.8033C16.9838 45.0283 17.1518 44.2577 17.3408 43.4921C20.1671 44.123 23.2956 44.5766 26.6391 44.8502C28.5485 47.5605 30.5476 50.0516 32.5623 52.2331C32.1342 52.651 31.6959 53.0583 31.2478 53.4546C28.5706 55.8155 25.8879 57.4905 23.5236 58.333ZM13.5709 39.361C10.2063 38.2007 7.42774 36.6928 5.52323 35.0474C3.81171 33.5689 2.94786 32.1007 2.94786 30.9097C2.94786 28.3747 6.69354 25.1415 12.941 22.944C13.6992 22.6775 14.4927 22.426 15.3161 22.19C16.1797 25.0235 17.3123 27.9862 18.6791 30.982C17.2945 34.0222 16.1457 37.0322 15.2738 39.8991C14.7019 39.7338 14.1341 39.5544 13.5709 39.361ZM16.9072 16.4482C15.6104 9.76223 16.4716 4.71875 18.6389 3.45292C20.9472 2.10469 26.0515 4.02696 31.4317 8.84665C31.7825 9.16164 32.1276 9.48303 32.4669 9.81064C30.4622 11.9825 28.4814 14.4552 26.589 17.1495C23.3438 17.453 20.2375 17.9403 17.3815 18.5932C17.2056 17.8824 17.0474 17.167 16.9072 16.4482ZM46.6707 23.8632C45.9961 22.6876 45.2965 21.5268 44.5724 20.3816C46.7739 20.6625 48.8833 21.0354 50.8641 21.4911C50.2695 23.4142 49.5283 25.4246 48.6558 27.4858C48.0181 26.265 47.3562 25.0573 46.6707 23.8632ZM34.5332 11.936C35.8927 13.4221 37.2543 15.0812 38.5936 16.8814C35.8768 16.7519 33.1554 16.7514 30.4384 16.8797C31.7791 15.0961 33.1523 13.4393 34.5332 11.936ZM22.3177 23.8836C21.6408 25.068 20.9913 26.2683 20.3698 27.4834C19.5116 25.4295 18.7772 23.4098 18.1775 21.4596C20.1461 21.0152 22.2455 20.6519 24.433 20.3762C23.7008 21.5284 22.9955 22.698 22.3177 23.8836ZM24.4958 41.6547C22.2358 41.4002 20.1049 41.0556 18.1368 40.6233C18.7459 38.6382 19.4965 36.5756 20.3733 34.4777C20.9972 35.6936 21.6494 36.8946 22.3293 38.0797C23.0285 39.2979 23.7524 40.4911 24.4958 41.6547ZM34.6146 50.0927C33.2173 48.5721 31.8238 46.8896 30.463 45.0802C31.7842 45.1324 33.1311 45.1591 34.5 45.1591C35.9064 45.1591 37.2967 45.1273 38.6651 45.0658C37.3215 46.9078 35.9649 48.5927 34.6146 50.0927ZM48.6835 34.3705C49.6059 36.4916 50.3832 38.5433 51.0004 40.4944C49 40.955 46.84 41.3259 44.564 41.6014C45.2933 40.435 45.9995 39.254 46.6823 38.0593C47.3764 36.8448 48.0437 35.6149 48.6835 34.3705ZM44.129 36.5734C43.0838 38.4052 41.9799 40.2023 40.8189 41.9617C38.7159 42.112 36.6083 42.1866 34.5 42.1855C32.3526 42.1855 30.264 42.1181 28.2528 41.9865C27.0615 40.2311 25.9365 38.4309 24.8802 36.5897C23.8288 34.7583 22.847 32.8873 21.9363 30.9806C22.8447 29.0736 23.8237 27.2016 24.8715 25.3688L24.8713 25.3691C25.9187 23.5358 27.0347 21.7433 28.217 19.9955C30.2689 19.8389 32.3731 19.7573 34.4997 19.7573C36.636 19.7573 38.7432 19.8397 40.7946 19.9974C41.965 21.7426 43.0739 23.5289 44.1193 25.3531C45.1706 27.1818 46.1626 29.0446 47.0938 30.9385C46.1722 32.8517 45.1833 34.7312 44.129 36.5734ZM50.2096 3.36427C52.5201 4.70869 53.4187 10.1302 51.967 17.2398C51.8743 17.6933 51.7702 18.1553 51.657 18.6239C48.7941 17.9571 45.6855 17.4614 42.431 17.1533C40.5351 14.4294 38.5705 11.9529 36.5983 9.809C37.1152 9.30634 37.6443 8.81672 38.1853 8.34058C43.2794 3.86815 48.0404 2.10224 50.2096 3.36427ZM34.5 24.6934C37.9028 24.6934 40.6615 27.4766 40.6615 30.9097C40.6615 34.3428 37.9028 37.126 34.5 37.126C31.0972 37.126 28.3385 34.3428 28.3385 30.9097C28.3385 27.4766 31.0972 24.6934 34.5 24.6934Z" fill="#00D8FF"/>
</g>
<defs>
<clipPath id="clip0_34_286">
<rect width="69" height="62" fill="white"/>
</clipPath>
</defs>
</svg>
