<svg width="21" height="20" viewBox="0 0 21 20" fill="none" xmlns="http://www.w3.org/2000/svg">
<g clip-path="url(#clip0_34_306)">
<path d="M14.5508 13.9125C15.3257 13.8324 15.9137 13.1648 15.8869 12.3637C15.8602 11.5626 15.1921 10.9217 14.3904 10.9217H14.337C13.5085 10.9484 12.8672 11.6427 12.8939 12.4705C12.9207 12.8711 13.0809 13.2182 13.3215 13.4585C12.4129 15.2477 11.0233 16.5561 8.93886 17.651C7.52251 18.3987 6.05276 18.6657 4.583 18.4789C3.38042 18.3186 2.4451 17.7846 1.8571 16.9033C1.00201 15.5948 0.921866 14.1795 1.64341 12.7643C2.15119 11.7495 2.9528 11.0018 3.46057 10.628C3.35368 10.2808 3.19331 9.69336 3.11317 9.26615C-0.761743 12.07 -0.360856 15.8619 0.814979 17.651C1.69682 18.9862 3.48731 19.814 5.46484 19.814C5.99927 19.814 6.53371 19.7606 7.06822 19.6271C10.4888 18.9595 13.081 16.93 14.5508 13.9125ZM19.2541 10.6013C17.2231 8.22467 14.2301 6.91623 10.8095 6.91623H10.382C10.1414 6.43557 9.63367 6.11508 9.07249 6.11508H9.01901C8.19065 6.1418 7.54933 6.83607 7.576 7.66393C7.60274 8.465 8.2708 9.1059 9.07249 9.1059H9.12589C9.71381 9.07918 10.2216 8.70533 10.4354 8.19795H10.9164C12.9474 8.19795 14.8714 8.78541 16.6085 9.93369C17.9447 10.8149 18.9067 11.9632 19.4412 13.3517C19.8954 14.4733 19.8687 15.5681 19.3877 16.5028C18.6395 17.918 17.3835 18.6925 15.7266 18.6925C14.6577 18.6925 13.6422 18.372 13.1077 18.1316C12.8138 18.3987 12.2793 18.8259 11.9051 19.093C13.0543 19.627 14.2301 19.9208 15.3525 19.9208C17.9179 19.9208 19.8153 18.5055 20.5369 17.0902C21.3118 15.5414 21.2583 12.8711 19.2541 10.6013ZM5.67861 14.3664C5.70535 15.1675 6.37342 15.8084 7.17511 15.8084H7.22859C8.05703 15.7817 8.69835 15.0874 8.6716 14.2596C8.64494 13.4584 7.9768 12.8176 7.17511 12.8176H7.12171C7.06822 12.8176 6.988 12.8176 6.93467 12.8443C5.83898 11.0284 5.38469 9.05246 5.54507 6.91615C5.65187 5.31393 6.18639 3.92533 7.12171 2.77705C7.89666 1.78902 9.39315 1.30836 10.4087 1.28172C13.2413 1.22828 14.4438 4.75311 14.524 6.16844C14.8714 6.24852 15.4594 6.43549 15.8602 6.56902C15.5395 2.24311 12.8672 0 10.3018 0C7.89665 0 5.67861 1.73574 4.79669 4.29926C3.56746 7.7173 4.36915 11.0018 5.86564 13.592C5.7321 13.7789 5.65187 14.0726 5.67861 14.3664Z" fill="#764ABC"/>
</g>
<defs>
<clipPath id="clip0_34_306">
<rect width="21" height="20" fill="white"/>
</clipPath>
</defs>
</svg>
