<svg width="68" height="65" viewBox="0 0 68 65" fill="none" xmlns="http://www.w3.org/2000/svg">
<g clip-path="url(#clip0_34_306)">
<path d="M47.1168 45.2158C49.6262 44.9552 51.5299 42.7857 51.4433 40.182C51.357 37.5785 49.1935 35.4956 46.5975 35.4956H46.4246C43.7418 35.5824 41.6651 37.8388 41.7517 40.5291C41.8383 41.831 42.3574 42.9591 43.1362 43.7402C40.1941 49.555 35.6944 53.8075 28.9449 57.3657C24.3586 59.7957 19.5994 60.6636 14.8402 60.0563C10.9461 59.5355 7.91748 57.7999 6.01348 54.9357C3.24461 50.6832 2.98509 46.0834 5.32153 41.4838C6.96575 38.1859 9.56143 35.7559 11.2057 34.5408C10.8595 33.4127 10.3402 31.5034 10.0807 30.115C-2.4666 39.2275 -1.16849 51.5511 2.63898 57.3657C5.49445 61.7052 11.2922 64.3955 17.6957 64.3955C19.4262 64.3955 21.1568 64.2219 22.8876 63.7882C33.9639 61.6184 42.3576 55.0225 47.1168 45.2158ZM62.3467 34.4543C55.7701 26.7302 46.0785 22.4777 35.0022 22.4777H33.6178C32.8389 20.9156 31.1947 19.874 29.3776 19.874H29.2044C26.5221 19.9609 24.4455 22.2172 24.5318 24.9078C24.6184 27.5112 26.7816 29.5942 29.3776 29.5942H29.5505C31.4542 29.5073 33.0985 28.2923 33.7907 26.6433H35.3483C41.9249 26.6433 48.1552 28.5526 53.78 32.2845C58.1065 35.1485 61.2218 38.8804 62.9523 43.3931C64.4234 47.0382 64.3368 50.5964 62.7791 53.6341C60.3564 58.2336 56.2894 60.7505 50.9243 60.7505C47.4629 60.7505 44.1748 59.7089 42.444 58.9278C41.4922 59.7957 39.7614 61.1842 38.5499 62.0524C42.271 63.7879 46.0785 64.7427 49.7128 64.7427C58.0199 64.7427 64.1638 60.1428 66.5003 55.5433C69.0096 50.5095 68.8364 41.831 62.3467 34.4543ZM18.3879 46.6908C18.4745 49.2945 20.6377 51.3772 23.2337 51.3772H23.4069C26.0894 51.2906 28.1661 49.034 28.0795 46.3437C27.9932 43.7399 25.8296 41.6573 23.2337 41.6573H23.0608C22.8876 41.6573 22.6278 41.6573 22.4551 41.7438C18.9072 35.8424 17.4362 29.4205 17.9554 22.4775C18.3013 17.2703 20.0321 12.7573 23.0608 9.02541C25.5701 5.8143 30.4159 4.25217 33.7044 4.16559C42.8767 3.99191 46.7704 15.4476 47.0302 20.0474C48.1552 20.3077 50.0589 20.9153 51.357 21.3493C50.3184 7.29012 41.6651 0 33.3582 0C25.5701 0 18.3879 5.64115 15.5322 13.9726C11.5518 25.0812 14.1477 35.7559 18.9935 44.1742C18.5611 44.7815 18.3013 45.736 18.3879 46.6908Z" fill="#764ABC"/>
</g>
<defs>
<clipPath id="clip0_34_306">
<rect width="68" height="65" fill="white"/>
</clipPath>
</defs>
</svg>
