<svg width="90" height="54" viewBox="0 0 90 54" fill="none" xmlns="http://www.w3.org/2000/svg">
<g clip-path="url(#clip0_34_382)">
<path d="M45 0C33.0001 0 25.4999 5.98453 22.5 17.9532C27 11.9687 32.2499 9.72456 38.25 11.2208C41.6732 12.0743 44.12 14.5516 46.8285 17.2933C51.2406 21.7602 56.3467 26.9299 67.5 26.9299C79.4999 26.9299 87.0001 20.9453 90 8.97662C85.5 14.9612 80.2501 17.2053 74.25 15.7091C70.8268 14.8556 68.38 12.3783 65.6715 9.63655C61.2594 5.16962 56.1533 0 45 0ZM22.5 26.9299C10.5001 26.9299 2.99988 32.9144 0 44.8831C4.5 38.8986 9.74988 36.6544 15.75 38.1507C19.1732 39.0041 21.62 41.4815 24.3285 44.2232C28.7406 48.6901 33.8467 53.8597 45 53.8597C56.9999 53.8597 64.5001 47.8752 67.5 35.9065C63 41.891 57.7501 44.1352 51.75 42.639C48.3268 41.7855 45.88 39.3081 43.1715 36.5664C38.7594 32.0995 33.6533 26.9299 22.5 26.9299Z" fill="url(#paint0_linear_34_382)"/>
</g>
<defs>
<linearGradient id="paint0_linear_34_382" x1="-250.02" y1="1723.51" x2="7512.85" y2="6211.1" gradientUnits="userSpaceOnUse">
<stop stop-color="#2298BD"/>
<stop offset="1" stop-color="#0ED7B5"/>
</linearGradient>
<clipPath id="clip0_34_382">
<rect width="90" height="54" fill="white"/>
</clipPath>
</defs>
</svg>
