<svg width="20" height="12" viewBox="0 0 20 12" fill="none" xmlns="http://www.w3.org/2000/svg">
<g clip-path="url(#clip0_34_382)">
<path d="M10 0C7.33336 0 5.66664 1.3299 5 3.98961C6 2.65971 7.16664 2.16101 8.5 2.49351C9.2607 2.68317 9.80445 3.23369 10.4063 3.84296C11.3868 4.83561 12.5215 5.98442 15 5.98442C17.6666 5.98442 19.3334 4.65452 20 1.99481C19 3.3247 17.8334 3.8234 16.5 3.49091C15.7393 3.30125 15.1955 2.75073 14.5937 2.14145C13.6132 1.14881 12.4785 0 10 0ZM5 5.98442C2.33336 5.98442 0.666641 7.31431 0 9.97403C1 8.64413 2.16664 8.14543 3.5 8.47792C4.2607 8.66759 4.80445 9.2181 5.40633 9.82738C6.3868 10.82 7.52148 11.9688 10 11.9688C12.6666 11.9688 14.3334 10.6389 15 7.97922C14 9.30912 12.8334 9.80782 11.5 9.47533C10.7393 9.28566 10.1955 8.73514 9.59367 8.12587C8.6132 7.13322 7.47852 5.98442 5 5.98442Z" fill="url(#paint0_linear_34_382)"/>
</g>
<defs>
<linearGradient id="paint0_linear_34_382" x1="-55.56" y1="383.003" x2="1669.52" y2="1380.24" gradientUnits="userSpaceOnUse">
<stop stop-color="#2298BD"/>
<stop offset="1" stop-color="#0ED7B5"/>
</linearGradient>
<clipPath id="clip0_34_382">
<rect width="20" height="12" fill="white"/>
</clipPath>
</defs>
</svg>
