<svg width="20" height="20" viewBox="0 0 20 20" fill="none" xmlns="http://www.w3.org/2000/svg">
<g clip-path="url(#clip0_34_300)">
<path d="M3.54219 7.34375H19.1156V18.8547H3.54219V7.34375Z" fill="white"/>
<path d="M0.234375 9.98584V19.7515H19.7656V0.220215H0.234375V9.98584ZM15.9734 9.20459C16.4412 9.31315 16.8664 9.55781 17.1953 9.90771C17.3764 10.0962 17.5338 10.3061 17.6641 10.5327C17.6641 10.5577 16.8203 11.128 16.3063 11.4468C16.2875 11.4593 16.2125 11.378 16.1297 11.2546C16.0358 11.0927 15.9025 10.9571 15.7421 10.8607C15.5817 10.7642 15.3995 10.71 15.2125 10.703C14.6203 10.6624 14.2391 10.9733 14.2422 11.4843C14.2373 11.6115 14.2664 11.7377 14.3266 11.8499C14.4563 12.1202 14.6984 12.2812 15.4578 12.6093C16.8563 13.2108 17.4547 13.6077 17.8266 14.1718C18.2422 14.7968 18.3344 15.8062 18.0531 16.553C17.7406 17.3655 16.975 17.9171 15.8922 18.0999C15.3976 18.1565 14.8979 18.1513 14.4047 18.0843C13.6487 17.9597 12.9523 17.5967 12.4172 17.0483C12.2375 16.8499 11.8875 16.3327 11.9094 16.2952C11.9664 16.2529 12.0265 16.2147 12.0891 16.1812L12.8125 15.7812L13.3734 15.4562L13.4906 15.6296C13.6884 15.9125 13.9401 16.1536 14.2313 16.339C14.8563 16.6671 15.7094 16.6218 16.1312 16.2421C16.2729 16.103 16.3613 15.9186 16.381 15.721C16.4007 15.5234 16.3504 15.3252 16.2391 15.1608C16.0828 14.9437 15.7703 14.7608 14.8969 14.3796C13.8891 13.9452 13.4547 13.6765 13.0578 13.2483C12.8101 12.9658 12.6271 12.6325 12.5219 12.2718C12.4434 11.8597 12.4318 11.4376 12.4875 11.0218C12.6953 10.0483 13.425 9.36865 14.4906 9.16709C14.9841 9.10603 15.484 9.11972 15.9734 9.20771V9.20459ZM11.3891 10.0233V10.8233H8.85312V18.0468H7.05469V10.8218H4.5125V10.0405C4.50458 9.77111 4.51084 9.50147 4.53125 9.23271C4.54375 9.21865 6.09375 9.21865 7.96875 9.21865H11.3797L11.3891 10.0233Z" fill="#007ACC"/>
</g>
<defs>
<clipPath id="clip0_34_300">
<rect width="20" height="20" fill="white"/>
</clipPath>
</defs>
</svg>
