<svg width="76" height="76" viewBox="0 0 76 76" fill="none" xmlns="http://www.w3.org/2000/svg">
<g clip-path="url(#clip0_34_300)">
<path d="M13.4603 27.9062H72.6394V71.6478H13.4603V27.9062Z" fill="white"/>
<path d="M0.890625 37.9465V75.0559H75.1094V0.837158H0.890625V37.9465ZM60.6991 34.9778C62.4767 35.3903 64.0923 36.32 65.3422 37.6497C66.0303 38.366 66.6284 39.1635 67.1234 40.0247C67.1234 40.1197 63.9172 42.2868 61.9637 43.4981C61.8925 43.5456 61.6075 43.2368 61.2928 42.7678C60.9362 42.1525 60.4295 41.6375 59.8201 41.271C59.2106 40.9045 58.5182 40.6984 57.8075 40.6718C55.5572 40.5175 54.1084 41.699 54.1203 43.6406C54.1017 44.124 54.2124 44.6036 54.4409 45.03C54.9338 46.0572 55.8541 46.6687 58.7397 47.9156C64.0537 50.2015 66.3278 51.7097 67.7409 53.8531C69.3203 56.2281 69.6706 60.0637 68.6019 62.9018C67.4144 65.9893 64.505 68.0853 60.3903 68.78C58.511 68.9952 56.6122 68.9753 54.7378 68.7206C51.865 68.2471 49.2188 66.8678 47.1853 64.784C46.5025 64.03 45.1725 62.0647 45.2556 61.9222C45.4724 61.7612 45.7006 61.6164 45.9384 61.4887L48.6875 59.9687L50.8191 58.7337L51.2644 59.3928C52.0159 60.4678 52.9723 61.3839 54.0788 62.0884C56.4538 63.3353 59.6956 63.1631 61.2987 61.7203C61.837 61.1916 62.1728 60.4909 62.2476 59.7401C62.3225 58.9893 62.1317 58.2361 61.7084 57.6115C61.1147 56.7862 59.9272 56.0915 56.6081 54.6428C52.7784 52.9922 51.1278 51.9709 49.6197 50.344C48.6782 49.2705 47.9831 48.0039 47.5831 46.6331C47.2848 45.067 47.2407 43.4632 47.4525 41.8831C48.2422 38.184 51.015 35.6012 55.0644 34.8353C56.9397 34.6032 58.8393 34.6553 60.6991 34.9897V34.9778ZM43.2784 38.089V41.129H33.6419V68.5781H26.8078V41.1231H17.1475V38.1543C17.1174 37.1306 17.1412 36.1059 17.2188 35.0847C17.2663 35.0312 23.1562 35.0312 30.2812 35.0312H43.2428L43.2784 38.089Z" fill="#007ACC"/>
</g>
<defs>
<clipPath id="clip0_34_300">
<rect width="76" height="76" fill="white"/>
</clipPath>
</defs>
</svg>
