<svg width="73" height="74" viewBox="0 0 73 74" fill="none" xmlns="http://www.w3.org/2000/svg">
<path d="M72.7642 10.8218L38.4674 72.1501C38.3063 72.4386 38.0715 72.679 37.7869 72.8468C37.5023 73.0146 37.1783 73.1037 36.8479 73.1051C36.5176 73.1064 36.1928 73.0199 35.9069 72.8544C35.621 72.6889 35.3842 72.4503 35.2209 72.1632L0.245467 10.827C0.069624 10.5193 -0.0147924 10.1678 0.00212374 9.81372C0.0190399 9.45967 0.136587 9.11779 0.340971 8.8282C0.545356 8.53861 0.828097 8.31332 1.15602 8.17878C1.48394 8.04423 1.84343 8.006 2.19232 8.06858L36.5257 14.2066C36.7441 14.2459 36.9677 14.2459 37.186 14.2066L70.8017 8.07902C71.1493 8.01551 71.5077 8.05212 71.8352 8.18456C72.1627 8.317 72.4458 8.53983 72.6516 8.82705C72.8573 9.11427 72.9771 9.45406 72.997 9.80678C73.017 10.1595 72.9362 10.5132 72.7642 10.8218Z" fill="url(#paint0_linear_70_33)"/>
<path d="M52.8782 0.0202937L27.5013 4.9918C27.2982 5.03147 27.114 5.13765 26.9779 5.2936C26.8418 5.44954 26.7615 5.64636 26.7497 5.85301L25.1891 32.2216C25.1805 32.3662 25.2057 32.5109 25.2628 32.6441C25.3199 32.7773 25.4073 32.8953 25.518 32.9888C25.6288 33.0823 25.7598 33.1487 25.9006 33.1827C26.0415 33.2166 26.1884 33.2173 26.3295 33.1846L33.394 31.5535C33.5462 31.5183 33.7048 31.522 33.8552 31.5641C34.0056 31.6063 34.143 31.6856 34.2548 31.7947C34.3665 31.9039 34.449 32.0394 34.4947 32.1887C34.5404 32.3381 34.5478 32.4966 34.5162 32.6496L32.418 42.9292C32.3856 43.0875 32.3949 43.2514 32.4451 43.405C32.4952 43.5586 32.5843 43.6965 32.7038 43.8052C32.8233 43.9139 32.969 43.9896 33.1266 44.025C33.2842 44.0604 33.4483 44.0542 33.6028 44.007L37.9662 42.6813C38.121 42.634 38.2854 42.6277 38.4433 42.6632C38.6012 42.6987 38.7471 42.7747 38.8666 42.8838C38.9862 42.9928 39.0753 43.1311 39.1252 43.2851C39.1751 43.439 39.184 43.6033 39.1511 43.7617L35.8132 59.908C35.6045 60.918 36.9485 61.4686 37.5096 60.6048L37.8827 60.0255L58.5647 18.7528C58.6424 18.5973 58.675 18.4232 58.6588 18.2501C58.6427 18.0771 58.5784 17.912 58.4733 17.7735C58.3683 17.635 58.2266 17.5287 58.0642 17.4666C57.9019 17.4045 57.7254 17.389 57.5548 17.4219L50.2815 18.8233C50.1249 18.8533 49.9633 18.8425 49.8121 18.7922C49.6608 18.7418 49.525 18.6535 49.4177 18.5357C49.3103 18.4179 49.235 18.2745 49.1989 18.1192C49.1628 17.9639 49.1671 17.802 49.2115 17.6489L53.956 1.19206C54.0007 1.03846 54.0051 0.875933 53.9688 0.720138C53.9325 0.564342 53.8566 0.420522 53.7486 0.302532C53.6406 0.184541 53.504 0.0963546 53.352 0.0464648C53.2 -0.00342495 53.0377 -0.0133366 52.8808 0.0176842L52.8782 0.0202937Z" fill="url(#paint1_linear_70_33)"/>
<defs>
<linearGradient id="paint0_linear_70_33" x1="-0.609163" y1="5.87605" x2="42.0732" y2="63.8421" gradientUnits="userSpaceOnUse">
<stop stop-color="#41D1FF"/>
<stop offset="1" stop-color="#BD34FE"/>
</linearGradient>
<linearGradient id="paint1_linear_70_33" x1="34.5527" y1="1.36895" x2="42.2737" y2="54.3344" gradientUnits="userSpaceOnUse">
<stop stop-color="#FFEA83"/>
<stop offset="0.083" stop-color="#FFDD35"/>
<stop offset="1" stop-color="#FFA800"/>
</linearGradient>
</defs>
</svg>
