<svg xmlns="http://www.w3.org/2000/svg" width="111" height="25" fill="none" xmlns:v="https://vecta.io/nano"><path d="M34.437 25V.49h1.318v3.856a5.03 5.03 0 0 0 .43-.543 6.57 6.57 0 0 1 2.44-2.739C39.679.403 40.899.06 42.14.074c3.004-.091 5.443 1.032 6.878 3.729a12.07 12.07 0 0 1 1.465 5.459c.05 1.912-.354 3.807-1.178 5.529-1.336 3.023-4.636 4.525-8.17 3.973a6.57 6.57 0 0 1-3.079-1.079 6.65 6.65 0 0 1-2.194-2.433V25h-1.426zm1.318-15.839l.296 2.878c.52 3.276 2.439 5.222 5.452 5.575a6.15 6.15 0 0 0 4.108-.758 6.24 6.24 0 0 0 2.699-3.216 10.74 10.74 0 0 0 .818-4.406c-.04-1.511-.398-2.995-1.051-4.355-.538-1.214-1.453-2.219-2.606-2.862s-2.483-.89-3.788-.704a5.88 5.88 0 0 0-3.339 1.352 5.97 5.97 0 0 0-1.943 3.056 30.47 30.47 0 0 0-.646 3.439zm41.62 3.331a7.19 7.19 0 0 1-2.29 4.485c-1.277 1.165-2.93 1.823-4.651 1.851-5.524.281-8.116-3.421-8.528-7.693a12.43 12.43 0 0 1 1.076-6.788c.689-1.45 1.817-2.641 3.221-3.401s3.012-1.049 4.59-.826a7.14 7.14 0 0 1 4.065 1.719 7.25 7.25 0 0 1 2.302 3.793 37.55 37.55 0 0 1 .619 4.073H63.259c-.269 3.874 1.794 6.987 4.717 7.738 3.641.905 6.753-.688 7.883-4.181.251-.896.709-1.023 1.516-.769zM63.259 8.464h12.977c-.081-4.127-2.628-7.114-6.08-7.159-3.91-.063-6.726 2.815-6.896 7.159zm16.788 4.118h1.273c.047.946.352 1.86.88 2.642s1.26 1.403 2.115 1.792c1.074.488 2.242.725 3.419.693a7.77 7.77 0 0 0 3.378-.874c.57-.26 1.048-.689 1.369-1.232a3.11 3.11 0 0 0 .425-1.8c.033-.607-.132-1.209-.468-1.714s-.827-.885-1.397-1.083c-1.399-.525-2.888-.815-4.314-1.276-1.484-.426-2.934-.962-4.34-1.602-2.296-1.131-2.439-5.539.161-6.933A9.09 9.09 0 0 1 86.908.004a9.09 9.09 0 0 1 4.393 1.056c.82.458 1.483 1.157 1.899 2.004a4.69 4.69 0 0 1 .432 2.739h-1.094c0-.054-.099-.1-.099-.154-.135-3.521-3.058-4.607-6.197-4.299a8.17 8.17 0 0 0-2.69.824 2.7 2.7 0 0 0-1.208 1.107c-.279.486-.403 1.048-.352 1.608.002.56.175 1.106.496 1.563s.774.802 1.298.989c1.381.507 2.825.833 4.242 1.231 1.139.317 2.323.525 3.426.905.779.258 1.461.748 1.958 1.405s.783 1.452.822 2.278a4.39 4.39 0 0 1-.437 2.642c-.417.812-1.077 1.471-1.886 1.884-2.995 1.711-7.928 1.258-10.125-.905a6.04 6.04 0 0 1-1.296-1.974c-.299-.738-.449-1.528-.444-2.325zm30.329-6.779h-1.193c0-.163-.062-.308-.08-.443-.02-.902-.346-1.771-.923-2.459s-1.373-1.156-2.252-1.324a7.76 7.76 0 0 0-5.031.244 3.06 3.06 0 0 0-1.592 1.099c-.399.53-.618 1.176-.623 1.842a2.86 2.86 0 0 0 .572 1.817c.392.521.95.89 1.58 1.043 1.794.561 3.632.905 5.453 1.412a15.15 15.15 0 0 1 1.74.534 4.49 4.49 0 0 1 2.117 1.602c.53.737.828 1.618.854 2.528s-.22 1.807-.707 2.574-1.192 1.367-2.022 1.723c-1.266.58-2.637.887-4.027.901s-2.768-.265-4.044-.819a5.61 5.61 0 0 1-2.539-2.208 5.69 5.69 0 0 1-.833-3.276h1.166c.216 1.05.682 2.031 1.358 2.859s1.542 1.476 2.523 1.89 2.046.58 3.104.484a6.5 6.5 0 0 0 2.97-1.033c.543-.285.994-.721 1.299-1.257s.452-1.149.423-1.766c.027-.608-.143-1.208-.485-1.71a2.77 2.77 0 0 0-1.408-1.069c-1.399-.525-2.887-.806-4.313-1.267a31.58 31.58 0 0 1-4.367-1.584c-2.242-1.113-2.421-5.485.135-6.879 1.348-.79 2.876-1.215 4.435-1.232s3.096.373 4.461 1.133a4.72 4.72 0 0 1 1.809 1.984 4.77 4.77 0 0 1 .442 2.659zM32.257 18.384c-.469.179-.988.179-1.457-.001a2.06 2.06 0 0 1-1.09-.976c-1.462-2.208-3.076-4.317-4.627-6.471l-.672-.905c-1.847 2.498-3.695 4.897-5.381 7.385a1.98 1.98 0 0 1-1.032.939c-.445.177-.939.184-1.39.02l6.932-9.386L17.093.509c.464-.169.972-.171 1.438-.007s.861.487 1.118.912c1.498 2.208 3.157 4.317 4.807 6.553l4.834-6.526c.221-.422.588-.748 1.031-.914a1.91 1.91 0 0 1 1.372.009L29.19 3.884l-3.39 4.453c-.094.085-.169.189-.221.305s-.078.242-.078.369.027.253.078.369.127.22.221.305l6.457 8.698zM61.69.418v1.267c-.907-.06-1.816.073-2.67.389s-1.631.81-2.283 1.449-1.165 1.409-1.504 2.26-.498 1.764-.466 2.681v9.956h-1.282V.49h1.255v3.675C56.291 1.486 58.686.49 61.69.418zM0 8.871c.188-.905.305-1.892.565-2.815C2.116.49 8.439-1.827 12.788 1.622c2.547 2.018 3.184 4.878 3.058 8.1H1.498c-.233 5.756 3.883 9.232 9.147 7.458a5.46 5.46 0 0 0 2.224-1.507 5.53 5.53 0 0 0 1.246-2.394c.278-.905.726-1.059 1.578-.796a7.39 7.39 0 0 1-1.129 3.087c-.603.93-1.406 1.709-2.351 2.28-1.56.861-3.35 1.202-5.114.974s-3.411-1.012-4.706-2.242C1.113 15.129.338 13.291.188 11.351c0-.308-.117-.615-.179-.905L0 8.871zm1.516-.389h12.976c-.081-4.172-2.69-7.132-6.17-7.159-3.874-.054-6.645 2.842-6.816 7.141l.009.018z" fill="#000"/></svg>