<svg width="18" height="20" viewBox="0 0 18 20" fill="none" xmlns="http://www.w3.org/2000/svg">
<g clip-path="url(#clip0_34_308)">
<path fill-rule="evenodd" clip-rule="evenodd" d="M10.7278 2.2891L14.8865 4.66063C15.0065 4.53516 15.1443 4.42747 15.2956 4.3409C16.158 3.85118 17.2581 4.14194 17.7591 4.99382C18.2549 5.84569 17.9605 6.93215 17.098 7.42694C16.9479 7.51232 16.7862 7.57593 16.6177 7.61583V12.3606C16.7843 12.4006 16.9443 12.4638 17.0929 12.5483C17.9605 13.0431 18.2549 14.1296 17.754 14.9815C17.2581 15.8333 16.1529 16.124 15.2904 15.6344C15.1233 15.5397 14.9727 15.419 14.8446 15.2769L10.7112 17.6339C10.7717 17.8149 10.8025 18.0044 10.8022 18.195C10.8022 19.1744 9.99659 19.9753 8.99977 19.9753C8.00295 19.9753 7.19731 19.1794 7.19731 18.195C7.19731 18.02 7.22277 17.851 7.27023 17.6913L3.11265 15.3205C2.9939 15.4435 2.85806 15.5492 2.7092 15.6344C1.84154 16.124 0.74143 15.8333 0.245587 14.9815C-0.250187 14.1296 0.0442115 13.0431 0.906665 12.5483C1.05524 12.4638 1.21523 12.4006 1.38184 12.3606V7.61583C1.2134 7.57593 1.05164 7.51232 0.901532 7.42694C0.0390084 6.93729 -0.25539 5.84569 0.240454 4.99382C0.736297 4.14194 1.84147 3.85118 2.70399 4.3409C2.8544 4.42701 2.9915 4.534 3.1111 4.65861L7.271 2.28646C7.22196 2.12208 7.19715 1.95158 7.19731 1.78021C7.19731 0.795833 8.00295 0 8.99977 0C9.99659 0 10.8022 0.795764 10.8022 1.78021C10.8022 1.95715 10.7762 2.12792 10.7278 2.2891ZM10.2945 3.01979L14.4631 5.39688C14.3967 5.62605 14.3777 5.86606 14.4071 6.10264C14.4366 6.33923 14.5139 6.56755 14.6345 6.77403C14.8882 7.21 15.3016 7.49903 15.7604 7.61167V12.3624C15.737 12.368 15.7137 12.3742 15.6906 12.3807L10.2461 3.06736C10.2625 3.05181 10.2787 3.0359 10.2945 3.01979ZM7.75461 3.0684L2.31017 12.3816C2.28663 12.3749 2.26295 12.3686 2.23916 12.3628V7.61167C2.69795 7.49903 3.11131 7.21 3.36507 6.77403C3.4859 6.56715 3.56328 6.33835 3.5926 6.10129C3.62192 5.86422 3.60257 5.62375 3.53572 5.39424L7.70314 3.01785C7.71995 3.035 7.7371 3.05188 7.75461 3.06833V3.0684ZM9.50342 3.49028L14.9466 12.8014C14.8219 12.9189 14.715 13.0535 14.6293 13.2012C14.5437 13.3479 14.4798 13.5059 14.4393 13.6705H3.5604C3.51988 13.5059 3.45586 13.3479 3.37027 13.2012C3.28421 13.0546 3.17754 12.9207 3.05345 12.8037L8.49767 3.49069C8.66089 3.53711 8.82992 3.56058 8.99977 3.56042C9.17464 3.56042 9.3436 3.53597 9.50342 3.49028ZM10.3328 16.9957L14.4743 14.634C14.4619 14.5955 14.4508 14.5565 14.441 14.5172H3.55808C3.55231 14.5403 3.54607 14.5633 3.53938 14.5861L7.70117 16.9594C7.86924 16.7868 8.07093 16.6495 8.2941 16.556C8.51727 16.4624 8.75732 16.4143 8.99977 16.4148C9.25071 16.4144 9.49895 16.4658 9.72853 16.5659C9.95811 16.6659 10.1639 16.8123 10.3328 16.9957Z" fill="#E535AB"/>
</g>
<defs>
<clipPath id="clip0_34_308">
<rect width="18" height="20" fill="white"/>
</clipPath>
</defs>
</svg>
