<svg width="20" height="24" viewBox="0 0 20 24" fill="none" xmlns="http://www.w3.org/2000/svg">
<g clip-path="url(#clip0_34_407)">
<path d="M10.5037 22.3916L9.89356 22.1914C9.89356 22.1914 9.97481 19.1357 8.85762 18.921C8.12637 18.0783 8.96569 -17.0563 11.6388 18.8012C11.1316 19.0558 10.7436 19.4947 10.5557 20.0259C10.4551 20.8105 10.4377 21.6034 10.5037 22.3916Z" fill="url(#paint0_linear_34_407)"/>
<path d="M10.8336 19.4399C12.4583 18.2295 13.7025 16.5876 14.4216 14.7051C15.1408 12.8226 15.3053 10.7767 14.8961 8.80535C13.7017 3.5906 10.8734 1.87621 10.5688 1.22166C10.3059 0.81407 10.0815 0.383385 9.89844 -0.0649414L10.1235 14.4648C10.1235 14.4648 9.65712 18.9051 10.8336 19.4399Z" fill="url(#paint1_linear_34_407)"/>
<path d="M9.58319 19.6327C9.58319 19.6327 4.60988 16.2803 4.8975 10.3499C4.92433 8.56208 5.33853 6.80075 6.11212 5.1849C6.88571 3.56905 8.00067 2.13633 9.38169 0.983499C9.54308 0.8478 9.6713 0.677671 9.75672 0.485892C9.84214 0.294113 9.88253 0.0856693 9.87488 -0.123779C10.1844 0.535602 10.1341 9.72111 10.1666 10.7954C10.2925 14.9744 9.93175 18.8439 9.58319 19.6327Z" fill="url(#paint2_linear_34_407)"/>
</g>
<defs>
<linearGradient id="paint0_linear_34_407" x1="6.40196" y1="11.3368" x2="13.4001" y2="13.7363" gradientUnits="userSpaceOnUse">
<stop offset="0.231" stop-color="#999875"/>
<stop offset="0.563" stop-color="#9B9977"/>
<stop offset="0.683" stop-color="#A09F7E"/>
<stop offset="0.768" stop-color="#A9A889"/>
<stop offset="0.837" stop-color="#B7B69A"/>
<stop offset="0.896" stop-color="#C9C7B0"/>
<stop offset="0.948" stop-color="#DEDDCB"/>
<stop offset="0.994" stop-color="#F8F6EB"/>
<stop offset="1" stop-color="#FBF9EF"/>
</linearGradient>
<linearGradient id="paint1_linear_34_407" x1="8.97377" y1="-0.168765" x2="12.0123" y2="19.0025" gradientUnits="userSpaceOnUse">
<stop stop-color="#48A547"/>
<stop offset="1" stop-color="#3F9143"/>
</linearGradient>
<linearGradient id="paint2_linear_34_407" x1="4.4697" y1="10.937" x2="12.7727" y2="8.12733" gradientUnits="userSpaceOnUse">
<stop stop-color="#41A247"/>
<stop offset="0.352" stop-color="#4BA74B"/>
<stop offset="0.956" stop-color="#67B554"/>
<stop offset="1" stop-color="#69B655"/>
</linearGradient>
<clipPath id="clip0_34_407">
<rect width="20" height="24" fill="white"/>
</clipPath>
</defs>
</svg>
