<svg xmlns="http://www.w3.org/2000/svg" width="111" height="20" fill="none" xmlns:v="https://vecta.io/nano"><path d="M93.124.008v3.189h-7.67v16.779h-3.835V3.198h-7.829V.008h19.334zm.862 18.066c.27 0 .506.087.707.261s.304.382.307.625a.8.8 0 0 1-.143.451c-.091.134-.219.245-.372.323s-.323.122-.499.121c-.281 0-.52-.087-.72-.261s-.299-.385-.297-.634a.79.79 0 0 1 .297-.625c.2-.174.439-.261.72-.261zm-76.01 1.902L3.835 4.268v15.7H0V0h4.794l17.865 19.827V3.198L22.658.008h19.334v3.189H26.494v5.131h12.463v3.189H26.494v5.269h15.498v3.189H17.976zm36.307-8.489l2.513 2.793-5.15 5.72h-5.033l7.67-8.513zM51.646.017l6.489 7.202 6.468-7.18 5.019-.007-8.974 9.976 8.989 9.977h-5.033L46.627.017h5.019zm48.885 11.426h1.699v5.852c-.002.538-.132.997-.387 1.384s-.613.682-1.07.89-.988.311-1.593.311c-.553 0-1.049-.089-1.491-.263s-.792-.435-1.05-.778-.387-.771-.387-1.284h1.702c.003.224.06.418.169.581a1.05 1.05 0 0 0 .452.373c.195.087.418.131.67.131.273 0 .507-.05.697-.153s.335-.252.437-.453.15-.446.153-.739v-5.851zm8.691 2.288c-.041-.355-.223-.632-.54-.828s-.733-.297-1.239-.297c-.356 0-.663.048-.917.142s-.452.224-.588.387-.202.348-.208.556a.75.75 0 0 0 .138.451c.094.132.221.242.372.323.163.092.337.166.519.222l.577.151.886.194a6.67 6.67 0 0 1 1.032.297c.33.124.629.282.891.471s.47.419.624.687.231.581.231.943c0 .487-.14.915-.424 1.286s-.691.657-1.226.865-1.177.311-1.936.311c-.733 0-1.372-.101-1.91-.302s-.961-.492-1.265-.876-.468-.853-.491-1.405h1.684c.023.288.127.528.304.723s.413.334.699.43.61.142.966.142c.372 0 .699-.05.982-.149s.502-.236.66-.414a.91.91 0 0 0 .245-.622c-.003-.217-.076-.398-.216-.54s-.341-.261-.593-.357a6.56 6.56 0 0 0-.888-.258l-1.076-.242c-.777-.176-1.393-.444-1.842-.803s-.676-.835-.676-1.432c0-.49.151-.92.455-1.289s.715-.654 1.237-.858 1.117-.307 1.777-.307c.671 0 1.258.101 1.765.307s.904.487 1.192.849a2 2 0 0 1 .447 1.245h-1.648z" fill="#000"/></svg>