<svg width="37" height="22" viewBox="0 0 37 22" fill="none" xmlns="http://www.w3.org/2000/svg">
<g clip-path="url(#clip0_34_359)">
<path d="M18.2912 21.9366C18.1659 21.9366 18.049 21.9042 17.9404 21.8475L16.8296 21.2078C16.6625 21.1187 16.746 21.0863 16.7962 21.0702C17.0217 20.9973 17.0634 20.981 17.2973 20.8516C17.3224 20.8353 17.3558 20.8434 17.3808 20.8596L18.2328 21.3536C18.2661 21.3698 18.3079 21.3698 18.3329 21.3536L21.6655 19.483C21.6988 19.4668 21.7156 19.4344 21.7156 19.394V15.661C21.7156 15.6204 21.6988 15.5881 21.6655 15.5718L18.3329 13.7094C18.2995 13.6932 18.2578 13.6932 18.2328 13.7094L14.9002 15.5718C14.8668 15.588 14.8501 15.6285 14.8501 15.6609V19.3939C14.8501 19.4263 14.8668 19.4668 14.9002 19.483L15.8106 19.9931C16.3034 20.2361 16.6124 19.9526 16.6124 19.6692V15.9848C16.6124 15.9362 16.6542 15.8876 16.7127 15.8876H17.1386C17.1887 15.8876 17.2388 15.9281 17.2388 15.9848V19.6692C17.2388 20.3089 16.8797 20.6815 16.2533 20.6815C16.0612 20.6815 15.9109 20.6815 15.4849 20.479L14.6079 19.9931C14.3908 19.8717 14.2571 19.6449 14.2571 19.402V15.669C14.2571 15.4261 14.3908 15.1993 14.6079 15.0779L17.9404 13.2073C18.1492 13.094 18.4332 13.094 18.642 13.2073L21.9745 15.0779C22.1916 15.1993 22.3253 15.4261 22.3253 15.669V19.402C22.3253 19.6449 22.1916 19.8717 21.9745 19.9931L18.642 21.8637C18.5334 21.9123 18.4081 21.9366 18.2912 21.9366ZM19.3185 19.3696C17.8569 19.3696 17.5562 18.7218 17.5562 18.1712C17.5562 18.1226 17.598 18.074 17.6564 18.074H18.0908C18.1408 18.074 18.1826 18.1064 18.1826 18.155C18.2495 18.5842 18.4415 18.7947 19.3269 18.7947C20.0284 18.7947 20.3292 18.6408 20.3292 18.2764C20.3292 18.0659 20.2456 17.9121 19.1515 17.8068C18.2411 17.7177 17.6731 17.5234 17.6731 16.8189C17.6731 16.163 18.2411 15.7743 19.1932 15.7743C20.2623 15.7743 20.7885 16.1306 20.8554 16.9079C20.8554 16.9323 20.847 16.9565 20.8303 16.9808C20.8135 16.997 20.7885 17.0132 20.7634 17.0132H20.3291C20.2873 17.0132 20.2456 16.9808 20.2373 16.9403C20.137 16.495 19.8781 16.3492 19.1932 16.3492C18.4248 16.3492 18.3329 16.6084 18.3329 16.8027C18.3329 17.0375 18.4415 17.1104 19.4772 17.2399C20.5045 17.3695 20.989 17.5558 20.989 18.2521C20.9806 18.9648 20.3793 19.3696 19.3185 19.3696Z" fill="#539E43"/>
<path d="M7.95127 7.33653C7.95127 7.19079 7.86773 7.05305 7.73411 6.98018L4.19281 5.00439C4.13427 4.97195 4.0675 4.95576 4.00073 4.94764H3.96727C3.9005 4.94764 3.83365 4.97195 3.77519 5.00439L0.233882 6.98018C0.10019 7.05305 0.0167236 7.19072 0.0167236 7.33653L0.0251064 12.6485C0.0251064 12.7214 0.066876 12.7943 0.133649 12.8267C0.200495 12.8672 0.283962 12.8672 0.342497 12.8267L2.44723 11.6606C2.58085 11.5878 2.66439 11.4501 2.66439 11.3044V8.81837C2.66439 8.67264 2.74786 8.53497 2.88155 8.4621L3.77519 7.96002C3.84203 7.91953 3.91719 7.90327 3.99234 7.90327C4.0675 7.90327 4.14266 7.91953 4.20119 7.96002L5.09483 8.4621C5.22852 8.53497 5.31199 8.67257 5.31199 8.81837V11.3044C5.31199 11.4501 5.39553 11.5878 5.52915 11.6606L7.63388 12.8267C7.6664 12.8466 7.70404 12.8571 7.74246 12.8571C7.78088 12.8571 7.81852 12.8466 7.85104 12.8267C7.91789 12.7943 7.95965 12.7214 7.95965 12.6485L7.95127 7.33653ZM24.9729 0.0243296C24.9062 -0.00810987 24.8226 -0.00810987 24.7641 0.0243296C24.6973 0.0648264 24.6555 0.129565 24.6555 0.202432V5.46597C24.6555 5.51452 24.6305 5.56307 24.5804 5.59551C24.5303 5.61976 24.4802 5.61976 24.4301 5.59551L23.5448 5.10157C23.4798 5.06574 23.4064 5.04689 23.3317 5.04689C23.2571 5.04689 23.1837 5.06574 23.1187 5.10157L19.5774 7.08549C19.4438 7.15836 19.3603 7.29603 19.3603 7.44176V11.4015C19.3603 11.5472 19.4438 11.685 19.5774 11.7578L23.1187 13.7418C23.1837 13.7776 23.2571 13.7964 23.3317 13.7964C23.4064 13.7964 23.4798 13.7776 23.5448 13.7418L27.0861 11.7578C27.2197 11.685 27.3032 11.5473 27.3032 11.4015V1.53049C27.3032 1.37663 27.2197 1.23902 27.0861 1.16609L24.9729 0.0243296ZM24.6472 10.0978C24.6472 10.1383 24.6305 10.1707 24.5971 10.1869L23.3861 10.867C23.3691 10.875 23.3506 10.8792 23.3317 10.8792C23.3129 10.8792 23.2944 10.875 23.2774 10.867L22.0664 10.1869C22.033 10.1707 22.0163 10.1302 22.0163 10.0978V8.73738C22.0163 8.69688 22.033 8.66451 22.0664 8.64833L23.2774 7.96808C23.2944 7.96008 23.3129 7.95592 23.3317 7.95592C23.3506 7.95592 23.3691 7.96008 23.3861 7.96808L24.5971 8.64833C24.6305 8.66444 24.6472 8.70501 24.6472 8.73738V10.0978ZM36.7578 8.70501C36.8915 8.63215 36.9666 8.49447 36.9666 8.34867V7.38508C36.9666 7.23935 36.8831 7.10167 36.7578 7.02881L33.2416 5.05301C33.1767 5.01718 33.1033 4.99834 33.0286 4.99834C32.9539 4.99834 32.8805 5.01718 32.8156 5.05301L29.2743 7.03686C29.1406 7.10973 29.0571 7.24741 29.0571 7.39314V11.3529C29.0571 11.4987 29.1406 11.6363 29.2743 11.7092L32.7905 13.6526C32.9242 13.7255 33.0829 13.7255 33.2082 13.6526L35.3379 12.5029C35.4048 12.4704 35.4465 12.3976 35.4465 12.3247C35.4465 12.2518 35.4048 12.179 35.3379 12.1465L31.7799 10.1626C31.7131 10.1221 31.6713 10.0574 31.6713 9.98451V8.74558C31.6713 8.67271 31.7131 8.59985 31.7799 8.56741L32.8907 7.95197C32.9232 7.93213 32.9609 7.9216 32.9993 7.9216C33.0377 7.9216 33.0754 7.93213 33.1079 7.95197L34.2187 8.56741C34.2856 8.6079 34.3273 8.67264 34.3273 8.74558V9.71729C34.3273 9.79016 34.3691 9.86302 34.4359 9.89539C34.4684 9.91524 34.5061 9.92577 34.5445 9.92577C34.5829 9.92577 34.6205 9.91524 34.6531 9.89539L36.7578 8.70501Z" fill="white"/>
<path d="M32.9743 8.51874C32.9867 8.51082 33.0012 8.50659 33.016 8.50659C33.0309 8.50659 33.0454 8.51082 33.0578 8.51874L33.7343 8.89933C33.7594 8.91558 33.776 8.93982 33.776 8.97219V9.73344C33.776 9.7658 33.7594 9.79012 33.7343 9.8063L33.0578 10.1869C33.0454 10.1948 33.0309 10.199 33.016 10.199C33.0012 10.199 32.9867 10.1948 32.9743 10.1869L32.2978 9.8063C32.2727 9.79012 32.256 9.7658 32.256 9.73344V8.97226C32.256 8.93982 32.2726 8.91551 32.2978 8.8994L32.9743 8.51874Z" fill="#539E43"/>
<path d="M13.8729 5.0693C13.808 5.03348 13.7346 5.01465 13.66 5.01465C13.5853 5.01465 13.5119 5.03348 13.447 5.0693L9.93077 7.0369C9.79708 7.10976 9.72192 7.24744 9.72192 7.39317V11.3368C9.72192 11.4825 9.80546 11.6202 9.93077 11.6931L13.447 13.6608C13.5119 13.6966 13.5853 13.7154 13.66 13.7154C13.7346 13.7154 13.808 13.6966 13.8729 13.6608L17.3892 11.6931C17.5229 11.6202 17.5981 11.4825 17.5981 11.3368V7.39324C17.5981 7.24751 17.5145 7.10983 17.3892 7.03697L13.8729 5.0693Z" fill="url(#paint0_linear_34_359)"/>
</g>
<defs>
<linearGradient id="paint0_linear_34_359" x1="546.781" y1="157.165" x2="178.12" y2="754.646" gradientUnits="userSpaceOnUse">
<stop stop-color="#41873F"/>
<stop offset="0.3288" stop-color="#418B3D"/>
<stop offset="0.6352" stop-color="#419637"/>
<stop offset="0.9319" stop-color="#3FA92D"/>
<stop offset="1" stop-color="#3FAE2A"/>
</linearGradient>
<clipPath id="clip0_34_359">
<rect width="37" height="22" fill="white"/>
</clipPath>
</defs>
</svg>
