<svg width="18" height="16" viewBox="0 0 18 16" fill="none" xmlns="http://www.w3.org/2000/svg">
<g clip-path="url(#clip0_34_286)">
<path d="M14.7996 5.18062C14.608 5.11502 14.4148 5.05426 14.2202 4.99837C14.2529 4.86504 14.283 4.73332 14.3097 4.60392C14.7483 2.47894 14.4616 0.767005 13.4822 0.203356C12.5432 -0.336995 11.0075 0.226444 9.45654 1.5736C9.30369 1.70661 9.15422 1.84345 9.0083 1.98399C8.91061 1.89053 8.81119 1.79889 8.7101 1.70911C7.08462 0.26869 5.45534 -0.338398 4.47701 0.226865C3.53883 0.7689 3.26102 2.37823 3.6559 4.39213C3.69518 4.59158 3.73954 4.79001 3.78893 4.98722C3.5583 5.05262 3.33577 5.12223 3.12279 5.19634C1.21704 5.8595 0 6.89872 0 7.97669C0 9.09002 1.30655 10.2067 3.29147 10.8838C3.45239 10.9385 3.61465 10.9892 3.7781 11.0358C3.72502 11.2482 3.67789 11.462 3.63677 11.677C3.26032 13.656 3.5543 15.2273 4.48995 15.7659C5.45632 16.3221 7.07829 15.7504 8.65758 14.3726C8.78564 14.2605 8.91088 14.1453 9.03319 14.0271C9.19122 14.1793 9.35347 14.327 9.51975 14.4702C11.0496 15.784 12.5605 16.3145 13.4952 15.7744C14.4607 15.2166 14.7745 13.5286 14.3671 11.4749C14.335 11.314 14.299 11.154 14.2592 10.9948C14.3731 10.9611 14.4849 10.9264 14.5939 10.8904C16.6574 10.2081 18 9.1049 18 7.97669C18 6.89479 16.7437 5.84855 14.7996 5.18062ZM14.352 10.162C14.2536 10.1944 14.1526 10.2258 14.0497 10.2563C13.8219 9.53655 13.5145 8.77122 13.1382 7.98041C13.4973 7.20848 13.7929 6.4529 14.0143 5.73781C14.1984 5.79101 14.3771 5.84708 14.5493 5.90623C16.215 6.47858 17.2311 7.32469 17.2311 7.97669C17.2311 8.67115 16.1338 9.57269 14.352 10.162ZM13.6128 11.624C13.7929 12.5321 13.8186 13.3531 13.6993 13.995C13.5921 14.5718 13.3765 14.9563 13.1099 15.1103C12.5427 15.438 11.3296 15.0121 10.0213 13.8884C9.86663 13.7553 9.7157 13.6179 9.56869 13.4765C10.0759 12.9229 10.5828 12.2793 11.0775 11.5645C11.9477 11.4874 12.7698 11.3614 13.5153 11.1894C13.5512 11.3335 13.5837 11.4784 13.6128 11.624ZM6.13659 15.0537C5.58239 15.249 5.14097 15.2546 4.87413 15.101C4.30636 14.7742 4.07032 13.5125 4.39228 11.8202C4.43055 11.6202 4.47437 11.4213 4.5237 11.2238C5.26099 11.3866 6.07711 11.5036 6.94934 11.5742C7.44743 12.2737 7.96894 12.9165 8.49452 13.4795C8.38283 13.5874 8.26849 13.6925 8.15161 13.7947C7.4532 14.404 6.75338 14.8363 6.13659 15.0537ZM3.54023 10.1577C2.66252 9.85823 1.93767 9.46911 1.44084 9.04448C0.994359 8.66294 0.769008 8.28406 0.769008 7.97669C0.769008 7.32251 1.74614 6.48813 3.37591 5.92104C3.5737 5.85227 3.7807 5.78736 3.99551 5.72644C4.22079 6.45767 4.51624 7.22223 4.8728 7.99536C4.5116 8.77992 4.21193 9.55669 3.98447 10.2965C3.83527 10.2539 3.68715 10.2076 3.54023 10.1577ZM4.41056 4.24469C4.07229 2.51929 4.29694 1.21774 4.86232 0.891075C5.46448 0.543146 6.79605 1.03922 8.19956 2.28301C8.29108 2.3643 8.38112 2.44723 8.46963 2.53178C7.94665 3.09227 7.42992 3.73037 6.93626 4.42567C6.0897 4.50399 5.27934 4.62974 4.53431 4.79823C4.48841 4.61481 4.44715 4.43019 4.41056 4.24469ZM12.175 6.15823C11.999 5.85486 11.8165 5.5553 11.6276 5.25978C12.2019 5.33227 12.7522 5.42848 13.2689 5.54609C13.1138 6.04237 12.9204 6.56118 12.6928 7.09311C12.5264 6.77808 12.3538 6.46639 12.175 6.15823ZM9.00865 3.08027C9.3633 3.46378 9.71852 3.89192 10.0679 4.35648C9.35916 4.32307 8.64922 4.32293 7.94046 4.35606C8.2902 3.89578 8.64844 3.4682 9.00865 3.08027ZM5.82202 6.1635C5.64541 6.46917 5.47599 6.77891 5.31387 7.09248C5.08999 6.56244 4.89839 6.04125 4.74195 5.53795C5.25551 5.42329 5.80317 5.32953 6.37383 5.25837C6.18282 5.55571 5.99883 5.85754 5.82202 6.1635ZM6.39021 10.7496C5.80064 10.6839 5.24475 10.595 4.73133 10.4834C4.89023 9.97115 5.08605 9.43887 5.31478 8.89746C5.47754 9.21126 5.64768 9.52119 5.82504 9.82701C6.00743 10.1414 6.19629 10.4493 6.39021 10.7496ZM9.02988 12.9271C8.66538 12.5347 8.30187 12.1006 7.94686 11.6336C8.29153 11.6471 8.64288 11.654 9 11.654C9.36689 11.654 9.72956 11.6457 10.0865 11.6299C9.73603 12.1053 9.38215 12.5401 9.02988 12.9271ZM12.7001 8.86981C12.9407 9.41718 13.1434 9.94665 13.3045 10.4502C12.7826 10.569 12.2191 10.6648 11.6254 10.7358C11.8156 10.4348 11.9999 10.1301 12.178 9.82174C12.3591 9.50834 12.5331 9.19095 12.7001 8.86981ZM11.5119 9.4383C11.2393 9.91103 10.9513 10.3748 10.6484 10.8288C10.0998 10.8676 9.54998 10.8869 9 10.8866C8.43982 10.8866 7.89497 10.8692 7.3703 10.8352C7.05953 10.3822 6.76605 9.91766 6.49048 9.44251C6.2162 8.96989 5.96008 8.48704 5.72252 7.99501C5.95947 7.50286 6.21489 7.01978 6.48823 6.54679L6.48816 6.54686C6.76139 6.07376 7.05253 5.61118 7.36095 5.16013C7.89623 5.11971 8.44516 5.09865 8.99993 5.09865C9.55723 5.09865 10.1069 5.11992 10.6421 5.16062C10.9474 5.611 11.2367 6.07198 11.5094 6.54272C11.7836 7.01467 12.0424 7.49539 12.2854 7.98413C12.0449 8.47786 11.7869 8.9629 11.5119 9.4383ZM13.0982 0.868198C13.7009 1.21515 13.9353 2.61423 13.5566 4.44897C13.5324 4.56602 13.5053 4.68525 13.4757 4.80616C12.7289 4.63409 11.918 4.50616 11.0689 4.42665C10.5744 3.72371 10.0619 3.08462 9.54738 2.53136C9.68222 2.40164 9.82026 2.27528 9.96138 2.15241C11.2903 0.998233 12.5323 0.542514 13.0982 0.868198ZM9 6.37248C9.8877 6.37248 10.6073 7.09072 10.6073 7.97669C10.6073 8.86265 9.8877 9.5809 9 9.5809C8.1123 9.5809 7.39266 8.86265 7.39266 7.97669C7.39266 7.09072 8.1123 6.37248 9 6.37248Z" fill="#00D8FF"/>
</g>
<defs>
<clipPath id="clip0_34_286">
<rect width="18" height="16" fill="white"/>
</clipPath>
</defs>
</svg>
