<svg width="24" height="24" viewBox="0 0 24 24" fill="none" xmlns="http://www.w3.org/2000/svg">
    <path
      d="M12.75 16.19L15.47 13.47C15.5387 13.3963 15.6215 13.3372 15.7135 13.2962C15.8055 13.2552 15.9048 13.2332 16.0055 13.2314C16.1062 13.2296 16.2062 13.2482 16.2996 13.2859C16.393 13.3236 16.4778 13.3797 16.549 13.451C16.6203 13.5222 16.6764 13.607 16.7141 13.7004C16.7518 13.7938 16.7704 13.8938 16.7686 13.9945C16.7668 14.0952 16.7448 14.1945 16.7038 14.2865C16.6628 14.3785 16.6037 14.4613 16.53 14.53L12.53 18.53C12.3894 18.6705 12.1988 18.7493 12 18.7493C11.8013 18.7493 11.6106 18.6705 11.47 18.53L7.47 14.53C7.39631 14.4613 7.33721 14.3785 7.29622 14.2865C7.25523 14.1945 7.23319 14.0952 7.23141 13.9945C7.22963 13.8938 7.24816 13.7938 7.28588 13.7004C7.3236 13.607 7.37974 13.5222 7.45096 13.451C7.52218 13.3797 7.60701 13.3236 7.7004 13.2859C7.79379 13.2482 7.89382 13.2296 7.99452 13.2314C8.09523 13.2332 8.19454 13.2552 8.28654 13.2962C8.37854 13.3372 8.46134 13.3963 8.53 13.47L11.25 16.19V6.5C11.25 6.30109 11.329 6.11032 11.4697 5.96967C11.6103 5.82902 11.8011 5.75 12 5.75C12.1989 5.75 12.3897 5.82902 12.5303 5.96967C12.671 6.11032 12.75 6.30109 12.75 6.5V16.19Z"
      fill="white"
    />
  </svg>