 <svg width="48" height="49" viewBox="0 0 48 49" fill="none" xmlns="http://www.w3.org/2000/svg">
    <rect x="0.5" y="1.00012" width="47" height="47" rx="23.5" stroke="#4D4D4D" />
    <g clip-path="url(#clip0_20_248)">
      <path
        d="M29.8562 12.2193C29.0401 12.0779 28.2121 12.0045 27.3821 12C23.8329 12 20.4292 13.317 17.9195 15.6612C15.4099 18.0054 14 21.1848 14 24.5C14 27.8152 15.4099 30.9946 17.9195 33.3388C20.4292 35.6831 23.8329 37 27.3821 37C28.2116 37.0011 29.0396 36.9333 29.8562 36.7976C30.3038 36.7377 30.7105 36.5217 30.9943 36.193C31.2782 35.8643 31.4182 35.4473 31.3862 35.026C31.3541 34.6048 31.1524 34.2105 30.8216 33.9226C30.4908 33.6347 30.0555 33.4745 29.6034 33.4744L29.17 33.525C28.5809 33.6329 27.9824 33.6893 27.3821 33.6937C24.8517 33.5923 22.4611 32.582 20.709 30.8737C18.9569 29.1654 17.9788 26.891 17.9788 24.5253C17.9788 22.1596 18.9569 19.8852 20.709 18.1769C22.4611 16.4686 24.8517 15.4584 27.3821 15.357C27.9818 15.3557 28.5803 15.4065 29.17 15.5088L29.6034 15.5594C30.0761 15.555 30.5282 15.3776 30.8624 15.0654C31.1967 14.7531 31.3866 14.3309 31.3913 13.8893C31.3951 13.4864 31.2412 13.096 30.9585 12.7915C30.6759 12.4871 30.2839 12.2896 29.8562 12.2362"
        fill="#34C9D0"
      />
      <path
        d="M29.5852 22.8301H22.9393C22.6882 22.8065 22.4346 22.8324 22.1948 22.9061C21.9551 22.9797 21.7345 23.0994 21.5474 23.2576C21.3602 23.4157 21.2106 23.6088 21.1082 23.8242C21.0059 24.0397 20.953 24.2728 20.953 24.5086C20.953 24.7443 21.0059 24.9774 21.1082 25.1929C21.2106 25.4084 21.3602 25.6014 21.5474 25.7595C21.7345 25.9177 21.9551 26.0374 22.1948 26.1111C22.4346 26.1847 22.6882 26.2106 22.9393 26.187H29.5852C29.8363 26.2106 30.0899 26.1847 30.3297 26.1111C30.5694 26.0374 30.79 25.9177 30.9771 25.7595C31.1643 25.6014 31.3139 25.4084 31.4162 25.1929C31.5186 24.9774 31.5715 24.7443 31.5715 24.5086C31.5715 24.2728 31.5186 24.0397 31.4162 23.8242C31.3139 23.6088 31.1643 23.4157 30.9771 23.2576C30.79 23.0994 30.5694 22.9797 30.3297 22.9061C30.0899 22.8324 29.8363 22.8065 29.5852 22.8301Z"
        fill="#34C9D0"
      />
    </g>
    <defs>
      <clipPath id="clip0_20_248">
        <rect width="20" height="25" fill="white" transform="translate(14 12)" />
      </clipPath>
    </defs>
  </svg>