<svg width="48" height="49" viewBox="0 0 48 49" fill="none" xmlns="http://www.w3.org/2000/svg">
    <rect x="0.5" y="1" width="47" height="47" rx="23.5" fill="white" />
    <rect x="0.5" y="1" width="47" height="47" rx="23.5" stroke="#4D4D4D" />
    <path d="M14.8555 28.6768V12H19.6372V13.2911H16.3795V27.4036H19.6372V28.6768H14.8555Z" fill="#143762" />
    <path d="M32.1445 12V28.6768H27.3628V27.4036H30.6204V13.2911H27.3628V12H32.1445Z" fill="#143762" />
    <path
      d="M21.0872 17.3852H35.4786C36.2955 17.3852 36.9532 18.0164 36.9532 18.8003C36.9532 19.5843 36.2955 20.2154 35.4786 20.2154H21.0872C20.2703 20.2154 19.6126 19.5843 19.6126 18.8003C19.6126 18.0164 20.2703 17.3852 21.0872 17.3852Z"
      fill="#25C5F2"
    />
    <path
      d="M9.97438 34.572C9.66327 34.572 9.39274 34.6678 9.20338 34.8507V33.7187H8.5V36.9493H9.20338V35.7911C9.20338 35.3601 9.44684 35.1598 9.78501 35.1598C10.0961 35.1598 10.2765 35.334 10.2765 35.7128V36.9493H10.9798V35.6083C10.9798 34.8942 10.547 34.572 9.97438 34.572Z"
      fill="#143762"
    />
    <path
      d="M12.424 34.5721C12.0363 34.5721 11.644 34.6722 11.378 34.8551L11.6305 35.3296C11.8063 35.1947 12.0724 35.112 12.3294 35.112C12.7081 35.112 12.8885 35.2818 12.8885 35.5735H12.3294C11.5899 35.5735 11.2878 35.8608 11.2878 36.2745C11.2878 36.6794 11.626 36.9842 12.1941 36.9842C12.5503 36.9842 12.8028 36.871 12.9335 36.6576V36.9493H13.5918V35.6127C13.5918 34.9029 13.1635 34.5721 12.424 34.5721ZM12.3699 36.527C12.122 36.527 11.9732 36.4138 11.9732 36.244C11.9732 36.0872 12.0769 35.9697 12.406 35.9697H12.8885V36.2092C12.8073 36.4225 12.6044 36.527 12.3699 36.527Z"
      fill="#143762"
    />
    <path
      d="M17.1632 34.5721C16.798 34.5721 16.4824 34.7157 16.2885 34.9552C16.1171 34.6983 15.8286 34.5721 15.4904 34.5721C15.1793 34.5721 14.9088 34.6765 14.7284 34.8768V34.6069H14.0566V36.9493H14.76V35.7737C14.76 35.3558 14.9809 35.1598 15.292 35.1598C15.5851 35.1598 15.7519 35.334 15.7519 35.7128V36.9493H16.4553V35.7737C16.4553 35.3558 16.6762 35.1598 16.9919 35.1598C17.2759 35.1598 17.4518 35.334 17.4518 35.7128V36.9493H18.1552V35.6083C18.1552 34.8942 17.7403 34.5721 17.1632 34.5721Z"
      fill="#143762"
    />
    <path
      d="M21.7204 34.5721C21.3552 34.5721 21.0395 34.7157 20.8457 34.9552C20.6743 34.6983 20.3858 34.5721 20.0476 34.5721C19.7365 34.5721 19.466 34.6765 19.2856 34.8768V34.6069H18.6138V36.9493H19.3172V35.7737C19.3172 35.3558 19.5381 35.1598 19.8492 35.1598C20.1423 35.1598 20.3091 35.334 20.3091 35.7128V36.9493H21.0125V35.7737C21.0125 35.3558 21.2334 35.1598 21.5491 35.1598C21.8331 35.1598 22.009 35.334 22.009 35.7128V36.9493H22.7123V35.6083C22.7123 34.8942 22.2975 34.5721 21.7204 34.5721Z"
      fill="#143762"
    />
    <path
      d="M25.5736 35.7868C25.5736 35.0336 25.0235 34.5721 24.3111 34.5721C23.5717 34.5721 23.0171 35.0771 23.0171 35.7781C23.0171 36.4748 23.5627 36.9842 24.4013 36.9842C24.8386 36.9842 25.1768 36.8535 25.4023 36.6054L25.028 36.2135C24.8612 36.3659 24.6763 36.4399 24.4193 36.4399C24.0496 36.4399 23.7926 36.2614 23.725 35.9697H25.5601C25.5646 35.9131 25.5736 35.8391 25.5736 35.7868ZM24.3156 35.0858C24.6313 35.0858 24.8612 35.2774 24.9108 35.5735H23.7159C23.7656 35.273 23.9955 35.0858 24.3156 35.0858Z"
      fill="#143762"
    />
    <path
      d="M26.5419 34.916V34.6069H25.8701V36.9493H26.5735V35.8434C26.5735 35.395 26.8305 35.1903 27.2182 35.1903C27.2723 35.1903 27.3174 35.1947 27.376 35.199V34.5721C27.0018 34.5721 26.7132 34.6896 26.5419 34.916Z"
      fill="#143762"
    />
    <path
      d="M29.1108 36.9842C29.6204 36.9842 30.0216 36.7665 30.1975 36.392L29.6519 36.1046C29.5212 36.3311 29.3273 36.4268 29.1064 36.4268C28.7502 36.4268 28.4706 36.1874 28.4706 35.7781C28.4706 35.3688 28.7502 35.1294 29.1064 35.1294C29.3273 35.1294 29.5212 35.2295 29.6519 35.4516L30.1975 35.1686C30.0216 34.7854 29.6204 34.5721 29.1108 34.5721C28.3218 34.5721 27.7582 35.0728 27.7582 35.7781C27.7582 36.4835 28.3218 36.9842 29.1108 36.9842Z"
      fill="#25C5F2"
    />
    <path
      d="M31.5541 36.9842C32.3251 36.9842 32.8842 36.4835 32.8842 35.7781C32.8842 35.0728 32.3251 34.5721 31.5541 34.5721C30.7831 34.5721 30.2196 35.0728 30.2196 35.7781C30.2196 36.4835 30.7831 36.9842 31.5541 36.9842ZM31.5541 36.4268C31.2025 36.4268 30.9319 36.183 30.9319 35.7781C30.9319 35.3732 31.2025 35.1294 31.5541 35.1294C31.9058 35.1294 32.1718 35.3732 32.1718 35.7781C32.1718 36.183 31.9058 36.4268 31.5541 36.4268Z"
      fill="#25C5F2"
    />
    <path
      d="M34.9457 33.7187V34.8551C34.7698 34.6635 34.5173 34.572 34.2197 34.572C33.5344 34.572 33.0069 35.0423 33.0069 35.7781C33.0069 36.5139 33.5344 36.9841 34.2197 36.9841C34.5444 36.9841 34.8014 36.884 34.9772 36.6794V36.9493H35.649V33.7187H34.9457ZM34.3415 36.4268C33.9898 36.4268 33.7193 36.183 33.7193 35.7781C33.7193 35.3732 33.9898 35.1294 34.3415 35.1294C34.6887 35.1294 34.9592 35.3732 34.9592 35.7781C34.9592 36.183 34.6887 36.4268 34.3415 36.4268Z"
      fill="#25C5F2"
    />
    <path
      d="M38.5 35.7868C38.5 35.0336 37.9499 34.5721 37.2375 34.5721C36.4981 34.5721 35.9435 35.0771 35.9435 35.7781C35.9435 36.4748 36.4891 36.9842 37.3277 36.9842C37.7651 36.9842 38.1032 36.8535 38.3287 36.6054L37.9544 36.2135C37.7876 36.3659 37.6027 36.4399 37.3457 36.4399C36.976 36.4399 36.719 36.2614 36.6514 35.9697H38.4864C38.491 35.9131 38.5 35.8391 38.5 35.7868ZM37.242 35.0858C37.5577 35.0858 37.7876 35.2774 37.8372 35.5735H36.6424C36.692 35.273 36.9219 35.0858 37.242 35.0858Z"
      fill="#25C5F2"
    />
  </svg>