<svg width="48" height="49" viewBox="0 0 48 49" fill="none" xmlns="http://www.w3.org/2000/svg">
    <rect x="0.5" y="1.00012" width="47" height="47" rx="23.5" stroke="#4D4D4D" />
    <g clip-path="url(#clip0_20_265)">
      <path
        d="M16.7896 13.6387C17.0023 13.6327 17.215 13.6268 17.4342 13.6207C17.6387 13.6198 17.8432 13.6188 18.0539 13.6179C18.3347 13.6149 18.3347 13.6149 18.6212 13.6118C19.122 13.7294 19.122 13.7294 19.5501 14.0988C19.9764 14.9397 19.9444 15.7261 19.9251 16.6452C19.9241 16.8319 19.923 17.0186 19.922 17.2109C19.9179 17.8053 19.9087 18.3994 19.8994 18.9938C19.8957 19.3975 19.8924 19.8012 19.8894 20.2049C19.8813 21.193 19.8687 22.1809 19.8537 23.1689C20.4057 22.9455 20.9564 22.7195 21.5067 22.492C21.74 22.398 21.74 22.398 21.9781 22.3021C23.268 21.765 24.0228 21.206 24.7317 20.0224C24.8433 19.843 24.9549 19.6636 25.0699 19.4788C25.8305 18.1272 26.1365 16.8769 26.3037 15.3424C26.459 14.6025 26.6491 14.2758 27.1707 13.7294C27.7162 13.608 27.7162 13.608 28.3455 13.6094C28.572 13.6092 28.7985 13.609 29.0319 13.6089C29.3859 13.6161 29.3859 13.6161 29.747 13.6235C29.9839 13.6218 30.2208 13.6201 30.4648 13.6183C31.7704 13.63 31.7704 13.63 32.2927 13.7294C33.1049 14.9385 32.7654 16.2129 32.5366 17.602C31.6302 20.9336 30.0415 23.3615 27.6585 25.8313C28.0302 27.2157 28.7398 28.2905 29.5183 29.477C29.7826 29.8867 30.0468 30.2964 30.311 30.7061C30.4405 30.906 30.57 31.1058 30.7035 31.3117C31.2072 32.0892 31.7071 32.8687 32.2012 33.6522C32.3502 33.8859 32.4993 34.1196 32.6528 34.3604C33.0418 35.0601 33.3113 35.7072 33.5122 36.481C33.2683 37.1618 33.2683 37.1618 32.7805 37.6912C31.6814 37.9511 30.6143 37.9768 29.4878 37.9484C29.1784 37.9462 28.8691 37.944 28.5503 37.9418C27.2577 37.5786 26.8749 36.8597 26.1951 35.7549C26.0647 35.5468 25.9343 35.3387 25.8 35.1242C25.3844 34.4467 24.9805 33.7634 24.5793 33.0774C24.4428 32.8463 24.3064 32.6153 24.1658 32.3772C23.4525 31.1677 22.7469 29.954 22.0488 28.7358C20.9622 28.8556 20.9622 28.8556 19.8537 28.9778C19.8588 29.2147 19.8639 29.4516 19.8691 29.6957C19.8868 30.5761 19.898 31.4566 19.9072 32.3372C19.9122 32.718 19.9188 33.0988 19.9273 33.4795C19.9391 34.0275 19.9446 34.5753 19.9489 35.1233C19.954 35.2931 19.959 35.4628 19.9642 35.6376C19.9646 36.4492 19.9067 36.8926 19.4209 37.5568C18.8452 37.956 18.5923 38.0552 17.9015 38.0533C17.6305 38.0536 17.6305 38.0536 17.3541 38.0538C17.1678 38.049 16.9816 38.0441 16.7896 38.0391C16.5088 38.0417 16.5088 38.0417 16.2223 38.0443C14.8613 38.029 14.8613 38.029 14.3125 37.6234C13.7502 36.8744 13.9013 35.921 13.9092 35.0216C13.9083 34.798 13.9074 34.5744 13.9065 34.3441C13.9045 33.6038 13.9078 32.8637 13.9114 32.1234C13.9115 31.6101 13.9114 31.0967 13.911 30.5834C13.911 29.5073 13.9136 28.4312 13.918 27.355C13.9235 25.9732 13.9237 24.5915 13.922 23.2096C13.9212 22.1497 13.9228 21.0897 13.9252 20.0297C13.9262 19.5201 13.9264 19.0105 13.9261 18.5008C13.926 17.7897 13.929 17.0788 13.933 16.3677C13.9324 16.1556 13.9318 15.9434 13.9312 15.7249C13.9513 13.4769 14.8435 13.6415 16.7896 13.6387Z"
        fill="#DEA946"
      />
      <path
        d="M26.9268 26.0734C27.0073 26.2331 27.0878 26.3929 27.1707 26.5574C27.4122 26.6373 27.6537 26.7172 27.9024 26.7995C28.3205 27.3701 28.3205 27.3701 28.7761 28.1231C28.8582 28.2573 28.9403 28.3915 29.0249 28.5297C29.2879 28.9603 29.548 29.3925 29.8079 29.825C30.065 30.2489 30.3227 30.6724 30.5807 31.0957C30.8314 31.5073 31.0812 31.9193 31.331 32.3314C31.8555 33.1738 32.4121 33.9872 32.9946 34.791C33.3191 35.3599 33.4383 35.8328 33.5122 36.481C33.2531 37.1466 33.2531 37.1466 32.7805 37.6912C31.6821 37.9529 30.6139 37.9768 29.4878 37.9484C29.1784 37.9462 28.8691 37.944 28.5503 37.9417C27.2577 37.5786 26.8749 36.8597 26.1951 35.7549C26.0647 35.5468 25.9343 35.3386 25.8 35.1242C25.3844 34.4467 24.9805 33.7634 24.5793 33.0773C24.3746 32.7308 24.3746 32.7308 24.1658 32.3772C23.9024 31.9307 23.64 31.4836 23.3786 31.036C23.1575 30.6578 22.935 30.2805 22.7102 29.9045C22.0488 28.7889 22.0488 28.7889 22.0488 28.2517C22.2579 28.1756 22.4669 28.0995 22.6824 28.021C24.1737 27.4671 25.577 26.9145 26.9268 26.0734Z"
        fill="#058240"
      />
      <path
        d="M16.7896 13.6386C17.0023 13.6327 17.215 13.6268 17.4342 13.6207C17.6387 13.6197 17.8432 13.6188 18.0539 13.6178C18.3347 13.6149 18.3347 13.6149 18.6212 13.6118C19.122 13.7294 19.122 13.7294 19.5501 14.0987C19.9764 14.9397 19.9444 15.726 19.9251 16.6452C19.9241 16.8319 19.923 17.0185 19.922 17.2108C19.9179 17.8052 19.9087 18.3994 19.8994 18.9937C19.8957 19.3974 19.8924 19.8012 19.8894 20.2049C19.8813 21.193 19.8687 22.1809 19.8537 23.1689C18.6721 23.7855 17.5386 23.7082 16.2409 23.6832C16.0253 23.681 15.8098 23.6789 15.5877 23.6766C15.0585 23.6709 14.5292 23.6623 14 23.653C13.988 22.3175 13.9791 20.9821 13.9732 19.6466C13.9707 19.192 13.9674 18.7375 13.9632 18.283C13.9573 17.6305 13.9545 16.9781 13.9524 16.3256C13.9498 16.1217 13.9473 15.9177 13.9447 15.7075C13.9446 15.2092 13.9701 14.711 14 14.2135C14.7847 13.4348 15.7228 13.6402 16.7896 13.6386Z"
        fill="#04813E"
      />
      <path
        d="M14 28.9778C15.9317 28.9778 17.8634 28.9778 19.8537 28.9778C19.8761 30.0978 19.8955 31.2171 19.9072 32.3371C19.9122 32.7179 19.9188 33.0987 19.9273 33.4795C19.9391 34.0275 19.9446 34.5752 19.9489 35.1233C19.954 35.293 19.959 35.4627 19.9642 35.6376C19.9646 36.4491 19.9067 36.8926 19.4209 37.5567C18.8452 37.956 18.5923 38.0552 17.9015 38.0533C17.6305 38.0535 17.6305 38.0535 17.3541 38.0537C17.1678 38.0489 16.9816 38.0441 16.7896 38.0391C16.6024 38.0408 16.4152 38.0425 16.2223 38.0443C14.8916 38.0293 14.8916 38.0293 14.3113 37.6805C13.8272 36.9443 13.9103 36.1852 13.9285 35.336C13.9296 35.1544 13.9306 34.9728 13.9317 34.7856C13.9358 34.206 13.945 33.6266 13.9543 33.0471C13.9579 32.6539 13.9613 32.2607 13.9643 31.8676C13.9717 30.9042 13.986 29.9412 14 28.9778Z"
        fill="#03813E"
      />
      <path
        d="M21.3171 22.9269C21.3171 24.764 21.3171 26.601 21.3171 28.4938C20.3238 28.9866 19.9331 29.0356 18.859 29.0251C18.4345 29.0228 18.4345 29.0228 18.0015 29.0204C17.7072 29.0163 17.413 29.0123 17.1098 29.0081C16.6627 29.0048 16.6627 29.0048 16.2066 29.0015C15.471 28.9958 14.7355 28.9871 14 28.9778C14 27.2206 14 25.4634 14 23.653C16.2104 23.5622 16.2104 23.5622 16.8964 23.5373C18.411 23.4663 19.8295 22.9269 21.3171 22.9269Z"
        fill="#DBA642"
      />
      <path
        d="M24.7317 20.0225C24.8122 20.0225 24.8927 20.0225 24.9756 20.0225C24.9756 22.2589 24.9756 24.4953 24.9756 26.7995C25.1366 26.8794 25.2976 26.9593 25.4634 27.0416C22.0036 28.8195 22.0036 28.8195 21.016 28.6328C20.8028 28.564 20.8028 28.564 20.5854 28.4938C20.8268 28.4938 21.0683 28.4938 21.3171 28.4938C21.2366 26.5769 21.1561 24.6599 21.0732 22.6849C21.8781 22.2855 22.6829 21.8862 23.5122 21.4747C24.2433 20.7224 24.2433 20.7224 24.7317 20.0225Z"
        fill="#FDE0C3"
      />
      <path
        d="M24.7317 20.0225C24.8122 20.0225 24.8927 20.0225 24.9756 20.0225C24.9756 22.2589 24.9756 24.4953 24.9756 26.7995C25.1366 26.8794 25.2976 26.9593 25.4634 27.0416C24.9805 27.2812 24.4976 27.5208 24 27.7677C23.9788 26.6584 23.9658 25.5491 23.9543 24.4397C23.9481 24.1245 23.942 23.8094 23.9357 23.4847C23.9333 23.1821 23.931 22.8795 23.9285 22.5676C23.9228 22.1494 23.9228 22.1494 23.9169 21.7226C24.0075 20.9245 24.1742 20.5931 24.7317 20.0225Z"
        fill="#FCD182"
      />
      <path
        d="M22.0488 22.4427C22.0488 24.4396 22.0488 26.4364 22.0488 28.4937C21.5659 28.5736 21.0829 28.6535 20.5854 28.7357C20.8268 28.6559 21.0683 28.576 21.3171 28.4937C21.2366 26.5768 21.1561 24.6598 21.0732 22.6848C21.8049 22.4427 21.8049 22.4427 22.0488 22.4427Z"
        fill="#FDD07F"
      />
    </g>
    <defs>
      <clipPath id="clip0_20_265">
        <rect width="20" height="38" fill="white" transform="translate(14 5.50012)" />
      </clipPath>
    </defs>
  </svg>