<svg width="48" height="49" viewBox="0 0 48 49" fill="none" xmlns="http://www.w3.org/2000/svg">
<rect x="0.5" y="1.00012" width="47" height="47" rx="23.5" stroke="#4D4D4D"/>
<g clip-path="url(#clip0_20_265)">
<path d="M17.5107 13.9803C17.7021 13.9748 17.8935 13.9694 18.0907 13.9637C18.2748 13.9628 18.4589 13.962 18.6485 13.9611C18.9013 13.9583 18.9013 13.9583 19.1591 13.9555C19.6098 14.0644 19.6098 14.0644 19.9951 14.4063C20.3788 15.185 20.3499 15.9131 20.3326 16.7642C20.3317 16.937 20.3307 17.1099 20.3298 17.2879C20.3261 17.8383 20.3178 18.3885 20.3094 18.9388C20.3061 19.3126 20.3031 19.6864 20.3004 20.0602C20.2932 20.9751 20.2818 21.8898 20.2683 22.8046C20.7651 22.5977 21.2607 22.3885 21.756 22.1778C21.966 22.0908 21.966 22.0908 22.1803 22.002C23.3412 21.5047 24.0205 20.9871 24.6585 19.8912C24.759 19.7251 24.8594 19.559 24.9629 19.3879C25.6474 18.1364 25.9228 16.9787 26.0734 15.5579C26.2131 14.8728 26.3842 14.5703 26.8537 14.0644C27.3446 13.9519 27.3446 13.9519 27.9109 13.9532C28.1148 13.9531 28.3187 13.9529 28.5287 13.9528C28.8473 13.9595 28.8473 13.9595 29.1723 13.9663C29.3855 13.9647 29.5987 13.9632 29.8184 13.9615C30.9933 13.9724 30.9933 13.9724 31.4634 14.0644C32.1944 15.1839 31.8889 16.3638 31.6829 17.6501C30.8672 20.7349 29.4374 22.9829 27.2927 25.2698C27.6272 26.5516 28.2659 27.5468 28.9665 28.6455C29.2044 29.0248 29.4422 29.4041 29.6799 29.7836C29.7965 29.9686 29.913 30.1536 30.0332 30.3443C30.4865 31.0641 30.9364 31.7859 31.3811 32.5114C31.5152 32.7278 31.6493 32.9441 31.7875 33.1671C32.1376 33.815 32.3802 34.4142 32.561 35.1307C32.3415 35.761 32.3415 35.761 31.9024 36.2512C30.9132 36.4918 29.9528 36.5156 28.939 36.4893C28.6606 36.4873 28.3821 36.4853 28.0953 36.4832C26.9319 36.1469 26.5874 35.4813 25.9756 34.4583C25.8582 34.2656 25.7409 34.0729 25.62 33.8744C25.2459 33.247 24.8824 32.6143 24.5213 31.9791C24.3985 31.7652 24.2757 31.5513 24.1492 31.3309C23.5072 30.2109 22.8722 29.0871 22.2439 27.9592C21.266 28.0701 21.266 28.0701 20.2683 28.1833C20.2729 28.4026 20.2775 28.622 20.2822 28.8479C20.2981 29.6632 20.3082 30.4784 20.3165 31.2938C20.3209 31.6464 20.3269 31.999 20.3345 32.3515C20.3452 32.8589 20.3502 33.3661 20.354 33.8736C20.3586 34.0307 20.3631 34.1878 20.3678 34.3497C20.3681 35.1012 20.316 35.5118 19.8788 36.1267C19.3607 36.4964 19.1331 36.5883 18.5113 36.5865C18.2675 36.5867 18.2675 36.5867 18.0187 36.5869C17.8511 36.5825 17.6834 36.578 17.5107 36.5734C17.2579 36.5758 17.2579 36.5758 17 36.5782C15.7752 36.564 15.7752 36.564 15.2813 36.1885C14.7752 35.4949 14.9111 34.6121 14.9183 33.7794C14.9175 33.5724 14.9167 33.3653 14.9158 33.152C14.9141 32.4666 14.9171 31.7812 14.9203 31.0958C14.9204 30.6205 14.9203 30.1452 14.9199 29.6699C14.9199 28.6735 14.9222 27.6771 14.9262 26.6807C14.9312 25.4012 14.9313 24.1218 14.9298 22.8423C14.9291 21.8609 14.9305 20.8794 14.9327 19.898C14.9335 19.4261 14.9338 18.9542 14.9335 18.4823C14.9334 17.8239 14.9361 17.1656 14.9397 16.5072C14.9392 16.3108 14.9386 16.1144 14.9381 15.912C14.9562 13.8306 15.7592 13.983 17.5107 13.9803Z" fill="#DEA946"/>
<path d="M26.6341 25.494C26.7066 25.6419 26.779 25.7898 26.8537 25.9422C27.071 26.0162 27.2883 26.0901 27.5122 26.1663C27.8885 26.6947 27.8885 26.6947 28.2985 27.3919C28.3724 27.5162 28.4463 27.6404 28.5224 27.7684C28.7591 28.1671 28.9932 28.5673 29.2271 28.9677C29.4585 29.3602 29.6904 29.7524 29.9226 30.1443C30.1482 30.5254 30.3731 30.9069 30.5979 31.2885C31.0699 32.0685 31.5709 32.8217 32.0951 33.5659C32.3872 34.0926 32.4945 34.5305 32.561 35.1307C32.3277 35.747 32.3277 35.747 31.9024 36.2513C30.9139 36.4936 29.9525 36.5157 28.939 36.4894C28.6606 36.4874 28.3821 36.4853 28.0953 36.4833C26.9319 36.147 26.5874 35.4814 25.9756 34.4584C25.8582 34.2657 25.7409 34.073 25.62 33.8744C25.2459 33.2471 24.8824 32.6144 24.5213 31.9792C24.3371 31.6583 24.3371 31.6583 24.1492 31.3309C23.9122 30.9175 23.676 30.5035 23.4407 30.089C23.2418 29.7389 23.0415 29.3895 22.8392 29.0414C22.2439 28.0084 22.2439 28.0084 22.2439 27.511C22.4321 27.4405 22.6202 27.37 22.8141 27.2974C24.1563 26.7845 25.4193 26.2728 26.6341 25.494Z" fill="#058240"/>
<path d="M17.5107 13.9803C17.7021 13.9748 17.8935 13.9693 18.0907 13.9637C18.2748 13.9628 18.4589 13.9619 18.6485 13.961C18.9013 13.9583 18.9013 13.9583 19.1591 13.9554C19.6098 14.0643 19.6098 14.0643 19.9951 14.4063C20.3788 15.185 20.3499 15.9131 20.3326 16.7641C20.3317 16.937 20.3307 17.1098 20.3298 17.2879C20.3261 17.8382 20.3178 18.3884 20.3094 18.9387C20.3061 19.3125 20.3031 19.6863 20.3004 20.0601C20.2932 20.975 20.2818 21.8898 20.2683 22.8046C19.2049 23.3755 18.1848 23.3039 17.0168 23.2808C16.8228 23.2788 16.6288 23.2768 16.429 23.2747C15.9526 23.2694 15.4763 23.2614 15 23.2528C14.9892 22.0163 14.9812 20.7798 14.9759 19.5432C14.9737 19.1223 14.9707 18.7015 14.9669 18.2806C14.9616 17.6765 14.9591 17.0724 14.9571 16.4682C14.9549 16.2794 14.9526 16.0905 14.9503 15.8959C14.9502 15.4345 14.9731 14.9732 15 14.5125C15.7062 13.7916 16.5505 13.9817 17.5107 13.9803Z" fill="#04813E"/>
<path d="M15 28.1832C16.7385 28.1832 18.4771 28.1832 20.2683 28.1832C20.2885 29.2203 20.3059 30.2566 20.3165 31.2937C20.3209 31.6463 20.3269 31.9989 20.3345 32.3515C20.3452 32.8589 20.3502 33.366 20.354 33.8735C20.3586 34.0306 20.3631 34.1878 20.3678 34.3497C20.3681 35.1011 20.316 35.5117 19.8788 36.1267C19.3607 36.4964 19.1331 36.5882 18.5113 36.5865C18.2675 36.5867 18.2675 36.5867 18.0187 36.5869C17.8511 36.5824 17.6834 36.5779 17.5107 36.5733C17.3422 36.5749 17.1737 36.5765 17 36.5781C15.8025 36.5643 15.8025 36.5643 15.2802 36.2413C14.8445 35.5597 14.9193 34.8568 14.9357 34.0705C14.9366 33.9023 14.9376 33.7341 14.9385 33.5609C14.9422 33.0242 14.9505 32.4877 14.9588 31.9511C14.9621 31.587 14.9651 31.223 14.9678 30.859C14.9745 29.9669 14.9874 29.0753 15 28.1832Z" fill="#03813E"/>
<path d="M21.5854 22.5806C21.5854 24.2816 21.5854 25.9825 21.5854 27.7351C20.6914 28.1914 20.3398 28.2368 19.3731 28.2271C18.9911 28.2249 18.9911 28.2249 18.6014 28.2227C18.3365 28.2189 18.0717 28.2152 17.7988 28.2113C17.3964 28.2083 17.3964 28.2083 16.9859 28.2052C16.3239 28.1999 15.662 28.1919 15 28.1833C15 26.5563 15 24.9292 15 23.2529C16.9893 23.1689 16.9893 23.1689 17.6068 23.1458C18.9699 23.08 20.2465 22.5806 21.5854 22.5806Z" fill="#DBA642"/>
<path d="M24.6585 19.8912C24.731 19.8912 24.8034 19.8912 24.8781 19.8912C24.8781 21.962 24.8781 24.0328 24.8781 26.1663C25.0229 26.2403 25.1678 26.3142 25.3171 26.3904C22.2033 28.0367 22.2033 28.0367 21.3144 27.8638C21.1226 27.8001 21.1226 27.8001 20.9268 27.7351C21.1442 27.7351 21.3615 27.7351 21.5854 27.7351C21.5129 25.9601 21.4405 24.1852 21.3659 22.3564C22.0902 21.9867 22.8146 21.6169 23.561 21.2359C24.219 20.5393 24.219 20.5393 24.6585 19.8912Z" fill="#FDE0C3"/>
<path d="M24.6585 19.8912C24.731 19.8912 24.8034 19.8912 24.878 19.8912C24.878 21.962 24.878 24.0328 24.878 26.1663C25.0229 26.2403 25.1678 26.3142 25.3171 26.3904C24.8824 26.6123 24.4478 26.8341 24 27.0627C23.9809 26.0356 23.9692 25.0085 23.9588 23.9812C23.9533 23.6895 23.9478 23.3977 23.9421 23.0971C23.94 22.8168 23.9379 22.5366 23.9357 22.2479C23.9305 21.8606 23.9305 21.8606 23.9252 21.4655C24.0067 20.7265 24.1568 20.4196 24.6585 19.8912Z" fill="#FCD182"/>
<path d="M22.2439 22.1323C22.2439 23.9812 22.2439 25.8301 22.2439 27.7351C21.8093 27.809 21.3746 27.883 20.9268 27.9592C21.1442 27.8852 21.3615 27.8113 21.5854 27.7351C21.5129 25.9601 21.4405 24.1852 21.3659 22.3564C22.0244 22.1323 22.0244 22.1323 22.2439 22.1323Z" fill="#FDD07F"/>
</g>
<defs>
<clipPath id="clip0_20_265">
<rect width="18" height="25" fill="white" transform="translate(15 12)"/>
</clipPath>
</defs>
</svg>
