<svg width="24" height="24" viewBox="0 0 24 24" fill="none" xmlns="http://www.w3.org/2000/svg">
    <path
      d="M6.5 16.5C8.98528 16.5 11 14.4853 11 12C11 9.51472 8.98528 7.5 6.5 7.5C4.01472 7.5 2 9.51472 2 12C2 14.4853 4.01472 16.5 6.5 16.5Z"
      stroke="white"
      stroke-width="1.5"
      stroke-linecap="round"
      stroke-linejoin="round"
    />
    <path
      d="M15.5 16.5C16.8807 16.5 18 14.4853 18 12C18 9.51472 16.8807 7.5 15.5 7.5C14.1193 7.5 13 9.51472 13 12C13 14.4853 14.1193 16.5 15.5 16.5Z"
      stroke="white"
      stroke-width="1.5"
      stroke-linecap="round"
      stroke-linejoin="round"
    />
    <path
      d="M21 16.5C21.5523 16.5 22 14.4853 22 12C22 9.51472 21.5523 7.5 21 7.5C20.4477 7.5 20 9.51472 20 12C20 14.4853 20.4477 16.5 21 16.5Z"
      stroke="white"
      stroke-width="1.5"
      stroke-linecap="round"
      stroke-linejoin="round"
    />
  </svg>