<svg width="48" height="48" viewBox="0 0 48 48" fill="none" xmlns="http://www.w3.org/2000/svg">
<rect x="0.5" y="0.5" width="47" height="47" rx="23.5" stroke="#4D4D4D"/>
<path d="M19.8035 18.7746C20.1601 18.7357 20.431 18.5531 20.736 18.369C22.4307 17.4013 24.1682 17.2845 26.0205 17.8171C26.4566 17.9745 26.841 18.1565 27.2121 18.4417C27.5129 18.6576 27.7337 18.7977 28.0929 18.881C28.5625 18.7002 28.9499 18.4268 29.3662 18.1438C30.5522 17.3816 32.3478 17.3951 33.6866 17.6783C34.013 17.7737 34.3117 17.8866 34.6208 18.0299C34.719 18.075 34.8172 18.1201 34.9183 18.1666C35.6474 18.5393 36.2222 19.0378 36.7968 19.6257C36.8553 19.6833 36.9138 19.7409 36.9741 19.8002C37.9933 20.8965 38.4478 22.4888 38.5 23.9677C38.456 25.6633 37.8818 27.3086 36.7292 28.5491C35.3795 29.8034 33.7001 30.5547 31.8571 30.4969C30.5548 30.3914 29.3286 30.0504 28.3001 29.1945C28.0885 29.0641 28.0885 29.0641 27.8294 29.1683C27.6146 29.2854 27.4271 29.406 27.2316 29.5531C25.795 30.4726 23.9694 30.6465 22.3344 30.2766C21.5527 30.0635 20.8899 29.7206 20.2422 29.2177C20.0219 29.0647 20.0219 29.0647 19.8152 29.1575C19.743 29.2068 19.6707 29.2562 19.5962 29.3071C17.7928 30.286 15.902 30.8069 13.8722 30.1686C12.8272 29.7415 11.992 29.1698 11.2032 28.3496C11.1159 28.2634 11.1159 28.2634 11.0267 28.1754C10.0062 27.0808 9.55217 25.4856 9.5 24.0076C9.54605 22.2345 10.1689 20.6181 11.3712 19.3294C13.7562 17.0495 17.1509 16.9589 19.8035 18.7746Z" fill="#71BF43"/>
<path d="M34.5351 18.023C34.6856 18.0908 34.6856 18.0908 34.8391 18.1598C35.5844 18.5328 36.1719 19.0316 36.7591 19.6197C36.8488 19.7062 36.8488 19.7062 36.9403 19.7944C37.9821 20.8913 38.4466 22.4845 38.5 23.9641C38.455 25.6607 37.8681 27.3069 36.69 28.548C35.3105 29.803 33.5939 30.5548 31.7103 30.4969C30.0568 30.3658 28.4911 29.8341 27.3598 28.5679C27.2435 28.425 27.1287 28.2809 27.0156 28.1355C26.9601 28.0676 26.9047 27.9997 26.8476 27.9297C25.7083 26.4852 25.3872 24.8324 25.5329 23.026C25.7285 21.5327 26.5118 20.3528 27.5451 19.3004C27.6303 19.2038 27.7155 19.1072 27.8033 19.0077C29.5623 17.4553 32.4047 17.0563 34.5351 18.023Z" fill="#01AB4E"/>
<path d="M19.3335 18.7616C19.3885 18.8081 19.4434 18.8546 19.5 18.9026C19.3686 19.2224 19.2347 19.4123 18.9897 19.6391C17.9149 20.7738 17.4087 22.3995 17.3594 23.991C17.4099 25.7831 18.0438 27.1974 19.1017 28.5439C19.2349 28.722 19.3678 28.9005 19.5 29.0795C18.0727 30.3939 16.4241 30.5861 14.6213 30.4721C13.2389 30.2935 12.0976 29.484 11.1366 28.4367C11.0527 28.3499 11.0527 28.3499 10.967 28.2614C9.98644 27.1592 9.55013 25.5529 9.5 24.0647C9.54425 22.2793 10.1427 20.6518 11.298 19.3541C13.4939 17.1544 16.8835 16.8553 19.3335 18.7616Z" fill="#BED62E"/>
<path d="M35.3752 21.5061C35.3752 21.6037 35.3752 21.7013 35.3752 21.8018C35.2086 21.7693 35.0421 21.7368 34.8704 21.7032C34.8978 21.7647 34.9252 21.8262 34.9535 21.8895C34.9919 21.9757 35.0304 22.0619 35.07 22.1508C35.1125 22.2461 35.155 22.3415 35.1988 22.4397C35.2914 22.6477 35.384 22.8558 35.4764 23.0639C35.6762 23.514 35.876 23.964 36.082 24.4115C36.1244 24.5048 36.1244 24.5048 36.1677 24.6C36.2408 24.7606 36.3148 24.9208 36.3888 25.0809C36.4888 25.3595 36.5219 25.5518 36.4858 25.8443C36.0146 26.3476 35.4527 26.4173 34.7904 26.4612C34.022 26.4893 33.4054 26.4766 32.7502 26.0414C32.5482 25.8443 32.5482 25.8443 32.5135 25.5876C32.5585 25.1531 32.7133 24.8215 32.9016 24.4289C32.9375 24.3516 32.9733 24.2744 33.0103 24.1948C33.1244 23.9492 33.2401 23.7043 33.3559 23.4595C33.4716 23.2135 33.5869 22.9674 33.7016 22.721C33.7729 22.568 33.8448 22.4152 33.9174 22.2628C34.1109 21.8521 34.1109 21.8521 34.1637 21.4075C34.0429 21.3607 33.9221 21.3139 33.7977 21.2657C33.7297 21.2394 33.6618 21.2131 33.5918 21.186C33.0283 21.0084 32.4658 20.9923 31.8793 20.9884C31.7686 20.9854 31.7686 20.9854 31.6557 20.9823C30.9811 20.9777 30.3679 21.1307 29.7212 21.3089C29.8409 21.5861 29.9606 21.8633 30.0804 22.1405C30.182 22.3755 30.2834 22.6105 30.3847 22.8456C30.6063 23.3586 30.8283 23.8707 31.0665 24.3765C31.0999 24.4479 31.1332 24.5192 31.1676 24.5927C31.255 24.7779 31.3439 24.9624 31.4329 25.1468C31.5469 25.4736 31.5712 25.6243 31.4376 25.9428C31.2653 26.0738 31.2653 26.0738 31.0527 26.1647C30.9833 26.1957 30.914 26.2267 30.8425 26.2587C30.0199 26.5627 28.8853 26.5983 28.0679 26.2571C27.7662 26.1087 27.697 26.0342 27.5 25.7457C27.5316 25.2401 27.7312 24.8176 27.9421 24.363C27.9923 24.2527 27.9923 24.2527 28.0435 24.1401C28.1499 23.9068 28.2572 23.6739 28.3645 23.441C28.4371 23.2822 28.5096 23.1234 28.582 22.9646C28.7591 22.5767 28.937 22.1892 29.1154 21.8018C29.0488 21.8018 28.9822 21.8018 28.9135 21.8018C28.8135 21.7693 28.7136 21.7368 28.6106 21.7032C28.7161 21.4057 28.8035 21.3142 29.0839 21.1479C31.1953 20.2191 33.3996 20.2467 35.3752 21.5061Z" fill="#F3FBF7"/>
<path d="M28.9483 22.5C29.0166 22.5 29.0848 22.5 29.1552 22.5C29.3474 22.8831 29.5389 23.2665 29.7297 23.6502C29.7948 23.7807 29.86 23.9111 29.9254 24.0415C30.0194 24.2288 30.1127 24.4164 30.2058 24.604C30.2352 24.6623 30.2647 24.7205 30.295 24.7806C30.4217 25.0375 30.5 25.2165 30.5 25.5C29.51 25.5 28.52 25.5 27.5 25.5C27.65 25.1046 27.806 24.7425 27.9987 24.3643C28.054 24.2554 28.1093 24.1464 28.1664 24.0341C28.2244 23.9205 28.2825 23.8068 28.3405 23.6932C28.3994 23.5774 28.4583 23.4617 28.5171 23.3459C28.6606 23.0638 28.8043 22.7819 28.9483 22.5Z" fill="#08AE54"/>
<path d="M34.9483 22.5C35.2185 22.7903 35.3877 23.0875 35.5605 23.4297C35.6155 23.5384 35.6705 23.6472 35.7272 23.7592C35.7694 23.8437 35.7694 23.8437 35.8124 23.9298C35.8989 24.1026 35.9863 24.275 36.0739 24.4474C36.5 25.2942 36.5 25.2942 36.5 25.5C35.51 25.5 34.52 25.5 33.5 25.5C33.589 25.1091 33.6987 24.8267 33.8815 24.4673C33.9367 24.3585 33.9919 24.2496 34.0488 24.1374C34.0775 24.0813 34.1063 24.0253 34.1359 23.9675C34.2244 23.7949 34.312 23.6221 34.3995 23.4492C34.83 22.6039 34.83 22.6039 34.9483 22.5Z" fill="#08AE54"/>
</svg>
