<svg width="24" height="24" viewBox="0 0 24 24" fill="none" xmlns="http://www.w3.org/2000/svg">
<g clip-path="url(#clip0_21_34)">
<path d="M14.058 3.40989C12.251 4.17689 11.063 5.86289 11.002 7.78989L11 7.97189L10.757 7.94889C8.36496 7.67989 6.25896 6.43689 4.81296 4.41789C4.71504 4.28105 4.58418 4.17114 4.4325 4.09832C4.28082 4.0255 4.11321 3.99213 3.9452 4.00131C3.77719 4.01048 3.61422 4.0619 3.47136 4.1508C3.32851 4.2397 3.21039 4.36321 3.12796 4.50989L3.03096 4.69589L2.98196 4.79489C2.26296 6.27989 1.79196 8.08489 1.96496 9.99789L1.99496 10.2709C2.27796 12.5339 3.49496 14.4859 5.77396 15.9499L5.94696 16.0569L5.86596 16.0999C4.55096 16.7629 3.34796 17.0519 2.03896 16.9999C0.982958 16.9599 0.592958 18.3719 1.52096 18.8779C5.11896 20.8389 8.98196 21.4439 12.313 20.4779C16.373 19.2979 19.465 16.2549 20.648 12.0449L20.775 11.5499C21.013 10.5569 21.147 9.54389 21.176 8.52589L21.179 8.19389L21.572 7.41489L22.012 6.55289L22.226 6.11889L22.344 5.87189C22.609 5.30689 22.8 4.83889 22.918 4.44189L22.932 4.38589L22.94 4.36789C23.16 3.77489 22.774 3.00989 21.999 3.00989L21.877 3.01689C21.798 3.0266 21.7204 3.04574 21.646 3.07389L21.56 3.11189C21.2746 3.25048 20.9806 3.37072 20.68 3.47189L20.324 3.58689L20.053 3.66689L19.281 3.88089C17.945 2.76289 16.137 2.62689 14.269 3.32689L14.058 3.40989Z" fill="#E2FBFF"/>
</g>
<defs>
<clipPath id="clip0_21_34">
<rect width="24" height="24" fill="white"/>
</clipPath>
</defs>
</svg>
