<svg width="379" height="491" viewBox="0 0 379 491" fill="none" xmlns="http://www.w3.org/2000/svg">
<g opacity="0.5">
<path d="M-222.624 115.819C-181.996 -40.4606 -36.2706 25.3792 39.678 123.499C85.616 177.932 161.307 134.832 218.187 202.312C275.067 269.793 141.648 301.883 227.383 407.385C313.118 512.887 150.924 669.815 53.5456 616.48C-43.8332 563.145 -35.6695 610.005 -173.548 626.818C-311.427 643.631 -415.374 449.672 -313.854 366.834C-212.333 283.996 -266.604 284.994 -222.624 115.819Z" stroke="#B6EDF8" stroke-width="3"/>
<path d="M-76.3014 340.177C-73.181 324.86 -41.1183 315.755 -30.0561 333.927C-19.9261 350.569 -1.69975 353.813 6.17606 363.171C26.9101 387.809 14.3625 387.27 19.5687 405.32C25.904 427.284 11.9521 467.167 -20.8365 448.236C-47.8036 432.667 -47.2967 450.423 -70.8405 444.568C-94.3844 438.713 -111.581 415.613 -96.5656 389.604C-90.9268 379.838 -81.4987 365.689 -76.3014 340.177Z" stroke="#B6EDF8" stroke-width="3"/>
<path d="M-208.946 135.559C-171.729 -7.9059 -36.3358 51.1207 33.714 141.973C76.3967 192.97 146.864 154.083 199.289 216.28C252.883 279.866 130.452 308.989 208.866 406.541C287.383 504.449 138.666 650.736 47.159 600.528C-43.8187 550.627 -36.351 594.841 -163.836 609.593C-291.321 624.346 -387.381 445.919 -293.725 368.248C-200.921 292.052 -249.401 291.674 -208.946 135.559Z" stroke="#B6EDF8" stroke-width="3"/>
<path d="M-195.269 155.299C-161.461 24.6488 -36.4012 76.8621 27.7499 160.446C67.1773 208.008 132.42 173.334 180.39 230.247C230.698 289.938 119.256 316.095 190.349 405.697C261.648 496.011 126.408 631.657 40.7724 584.577C-43.8043 538.109 -37.0327 579.677 -154.123 592.369C-271.214 605.06 -359.388 442.167 -273.596 369.661C-189.509 300.109 -232.198 298.353 -195.269 155.299Z" stroke="#B6EDF8" stroke-width="3"/>
<path d="M-181.592 175.04C-151.193 57.2045 -36.4666 102.605 21.7857 178.921C57.9578 223.047 117.977 192.586 161.492 244.215C208.514 300.012 108.06 323.202 171.832 404.854C235.913 487.573 114.149 612.579 34.3856 568.627C-43.79 525.592 -37.7145 564.515 -144.411 575.145C-251.108 585.776 -331.395 438.415 -253.467 371.076C-178.097 308.167 -214.995 305.034 -181.592 175.04Z" stroke="#B6EDF8" stroke-width="3"/>
<path d="M-167.915 194.781C-140.926 89.7609 -36.5324 128.348 15.8212 197.396C48.738 238.087 103.533 211.839 142.593 258.184C186.329 310.086 96.8631 330.31 153.315 404.012C210.178 479.137 101.89 593.502 27.9986 552.678C-43.776 513.076 -38.3966 549.353 -134.699 557.923C-231.001 566.493 -303.403 434.664 -233.339 372.492C-166.685 316.225 -197.792 311.715 -167.915 194.781Z" stroke="#B6EDF8" stroke-width="3"/>
<path d="M-154.497 214.973C-130.918 122.767 -36.8578 154.541 9.59702 216.321C39.2586 253.576 88.8293 231.541 123.435 272.603C163.885 320.61 85.4071 337.868 134.538 403.619C184.183 471.15 89.3716 574.875 21.3519 537.178C-44.0216 501.009 -39.3383 534.64 -125.247 541.15C-211.155 547.659 -275.67 431.363 -213.47 374.357C-155.532 324.733 -180.849 318.846 -154.497 214.973Z" stroke="#B6EDF8" stroke-width="3"/>
<path d="M-141.387 235.698C-121.218 156.307 -37.4902 181.267 3.06583 235.779C29.4721 269.599 73.8187 251.777 103.969 287.555C141.133 331.667 73.644 345.959 115.454 403.76C157.88 463.696 76.5459 556.781 14.3981 522.212C-44.5743 489.476 -40.587 520.461 -116.101 524.91C-191.616 529.359 -248.244 428.595 -193.908 376.755C-144.687 333.774 -164.213 326.511 -141.387 235.698Z" stroke="#B6EDF8" stroke-width="3"/>
<path d="M-128.293 256.451C-111.534 189.875 -38.1393 208.022 -3.48203 255.267C19.669 285.651 58.7916 272.042 84.4871 302.536C118.365 342.753 61.8642 354.079 96.3537 403.93C131.562 456.272 63.7037 538.716 7.42773 507.275C-45.1436 477.972 -41.8524 506.312 -106.973 508.7C-172.093 511.087 -220.835 425.857 -174.363 379.183C-133.858 342.845 -147.594 334.204 -128.293 256.451Z" stroke="#B6EDF8" stroke-width="3"/>
<path d="M-115.224 277.249C-101.874 223.487 -38.8122 234.821 -10.0537 274.798C9.8421 301.746 43.7406 292.351 64.9812 317.561C95.5733 353.883 50.0606 362.243 77.2293 404.143C105.219 448.891 50.8377 520.694 0.433554 492.381C-45.7368 466.512 -43.1416 492.205 -97.8677 492.533C-152.594 492.86 -193.45 423.162 -154.842 381.654C-123.054 351.959 -130.998 341.941 -115.224 277.249Z" stroke="#B6EDF8" stroke-width="3"/>
<path d="M-102.189 298.11C-92.2487 257.163 -39.52 261.684 -16.6602 294.393C-0.0197641 317.905 28.6547 312.723 45.4404 332.649C72.7464 365.077 38.2221 370.47 58.07 404.42C78.8416 441.573 37.9367 502.737 -6.59559 477.551C-46.3648 455.115 -44.4658 478.163 -88.7978 476.429C-133.13 474.695 -166.1 420.53 -135.356 384.189C-112.284 361.137 -114.437 349.742 -102.189 298.11Z" stroke="#B6EDF8" stroke-width="3"/>
<path d="M-89.206 319.067C-82.6758 290.935 -40.2801 288.643 -23.3191 314.084C-9.93391 334.16 13.5165 333.191 25.8473 347.834C49.8673 376.367 26.3313 378.794 38.8584 404.794C52.4119 434.353 24.9835 484.875 -13.677 462.817C-47.0452 443.814 -45.8422 464.217 -79.7801 460.422C-113.718 456.628 -138.801 417.995 -115.922 386.82C-101.566 370.411 -97.9289 357.639 -89.206 319.067Z" stroke="#B6EDF8" stroke-width="3"/>
</g>
</svg>
