<svg width="403" height="265" viewBox="0 0 403 265" fill="none" xmlns="http://www.w3.org/2000/svg">
<g opacity="0.5">
<path d="M-77.9169 104.216C-21.9666 -21.2998 91.1655 54.3407 141.209 147.327C172.165 199.444 241.73 173.841 280.048 238.441C318.366 303.04 201.877 311.33 259.104 411.882C316.331 512.433 158.237 621.501 83.944 563.116C9.65065 504.731 9.95412 545.21 -108.143 540.052C-226.241 534.895 -286.392 357.54 -189.589 302.188C-92.7851 246.837 -138.484 240.089 -77.9169 104.216Z" stroke="#BEE7FB" stroke-width="3"/>
<path d="M-69.194 122.699C-17.8972 7.46447 87.5127 75.941 133.62 162.001C162.323 210.779 226.915 187.983 262.231 247.524C298.335 308.395 191.485 315.731 243.678 408.585C295.907 501.752 150.613 603.771 80.8121 548.832C11.4125 494.224 11.5015 532.385 -97.5823 526.95C-206.666 521.515 -262.368 358.302 -172.888 306.188C-84.3306 255.195 -124.976 248.101 -69.194 122.699Z" stroke="#BEE7FB" stroke-width="3"/>
<path d="M-60.4711 141.183C-13.828 36.2296 83.8599 97.5422 126.031 176.677C152.482 222.115 212.099 202.126 244.414 256.609C278.304 313.75 181.093 320.132 228.251 405.289C275.482 491.072 142.989 586.042 77.6802 534.549C13.1743 483.718 13.0488 519.561 -87.0213 513.849C-187.091 508.137 -238.344 359.065 -156.188 310.189C-75.8762 263.554 -111.468 256.114 -60.4711 141.183Z" stroke="#BEE7FB" stroke-width="3"/>
<path d="M-51.7485 159.667C-9.75903 64.9946 80.2067 119.143 118.442 191.352C142.64 233.451 197.283 216.269 226.597 265.693C258.272 319.106 170.701 324.533 212.824 401.993C255.057 480.391 135.365 568.312 74.548 520.266C14.9358 473.212 14.5957 506.736 -76.4605 500.747C-167.517 494.758 -214.32 359.828 -139.488 314.19C-67.4221 271.914 -97.9598 264.126 -51.7485 159.667Z" stroke="#BEE7FB" stroke-width="3"/>
<path d="M-43.0263 178.151C-5.69037 93.7597 76.5533 140.745 110.852 206.027C132.798 244.788 182.466 230.412 208.779 274.778C238.24 324.462 160.308 328.935 197.397 398.697C234.632 469.711 127.74 550.583 71.4155 505.984C16.697 462.706 16.1424 493.912 -65.9001 487.646C-147.943 481.38 -190.296 360.591 -122.788 318.191C-58.9683 280.273 -84.4522 272.139 -43.0263 178.151Z" stroke="#BEE7FB" stroke-width="3"/>
<path d="M-34.5849 196.977C-1.90259 122.867 72.6189 162.688 102.982 221.045C122.675 256.466 167.369 244.897 190.68 284.204C217.927 330.159 149.634 333.678 181.689 395.743C213.925 459.373 119.835 533.196 68.0021 492.043C18.1774 452.542 17.4082 481.43 -55.6205 474.886C-128.649 468.343 -166.554 361.697 -106.369 322.535C-50.7953 288.974 -71.2255 280.494 -34.5849 196.977Z" stroke="#BEE7FB" stroke-width="3"/>
<path d="M-26.4757 216.207C1.553 152.379 68.3524 185.036 94.7792 236.467C112.22 268.549 151.939 259.786 172.249 294.036C197.282 336.262 138.628 338.826 165.648 393.193C192.887 449.439 111.597 516.214 64.2565 478.507C19.3255 442.783 18.3418 469.352 -45.6732 462.532C-109.688 455.711 -143.143 363.207 -90.2829 327.282C-42.9546 298.08 -58.331 289.253 -26.4757 216.207Z" stroke="#BEE7FB" stroke-width="3"/>
<path d="M-18.3846 235.46C4.99041 181.913 64.0677 207.406 86.5585 251.911C101.747 280.654 136.492 274.698 153.8 303.889C176.619 342.386 127.604 343.997 149.59 390.666C171.83 439.528 103.341 499.254 60.4927 464.993C20.4555 433.046 19.2573 457.297 -35.744 450.199C-90.7453 443.102 -119.751 364.739 -74.2144 332.053C-35.132 307.209 -45.4547 298.035 -18.3846 235.46Z" stroke="#BEE7FB" stroke-width="3"/>
<path d="M-10.3196 254.747C8.40185 211.48 59.7571 229.81 78.3118 267.389C91.2473 292.793 121.018 289.644 135.325 313.776C155.93 348.544 116.554 349.2 133.505 388.173C150.748 429.65 95.0591 482.327 56.703 451.513C21.5595 423.343 20.1467 445.275 -25.8408 437.9C-71.8284 430.526 -96.3845 366.304 -58.172 336.856C-27.3354 316.37 -32.6043 306.85 -10.3196 254.747Z" stroke="#BEE7FB" stroke-width="3"/>
<path d="M-2.29274 274.081C11.7751 241.096 55.4082 252.261 70.0268 282.915C80.7098 304.979 105.506 304.637 116.812 323.711C135.203 354.75 105.466 354.452 117.383 385.727C129.627 419.82 86.7389 465.448 52.875 438.081C22.6252 413.687 20.998 433.301 -15.9758 425.649C-52.9497 417.997 -73.0564 367.918 -42.1677 341.707C-19.5771 325.58 -19.7922 315.713 -2.29274 274.081Z" stroke="#BEE7FB" stroke-width="3"/>
<path d="M5.67664 293.489C15.0908 270.785 51.0018 274.786 61.6844 298.514C70.1149 317.24 89.9366 319.704 98.2415 333.719C114.418 361.03 94.3205 359.777 101.203 383.355C108.449 410.064 78.3614 448.643 48.9896 424.722C23.6336 404.105 21.7918 421.401 -6.16832 413.472C-34.1284 405.543 -49.7857 369.605 -26.221 346.632C-11.8762 334.863 -7.0375 324.65 5.67664 293.489Z" stroke="#BEE7FB" stroke-width="3"/>
</g>
</svg>
