<svg width="503" height="353" viewBox="0 0 503 353" fill="none" xmlns="http://www.w3.org/2000/svg">
<g opacity="0.5">
<path d="M-223.797 324.688C-268.925 308.958 -340.536 359.476 -263.693 406.17C-251.093 413.826 -231.802 429.849 -210.133 451.496C-190.284 471.326 -207.868 515.788 -189.271 549.743C-160.106 602.993 -77.2863 566.266 -62.9314 595.413C-44.1301 633.588 -64.8248 684.244 -67.126 720.003C-69.2923 753.666 -55.8318 787.668 -34.8111 814.139C2.06716 860.579 62.2146 883.841 102.074 841.435C122.028 820.206 136.897 782.522 141.219 723.051C143.151 696.462 145.546 673.6 148.466 653.953C155.982 603.382 197.061 653.453 232.225 615.515C252.261 593.899 230.148 534.897 267.579 536.077C294.195 536.915 325.785 538.765 363.171 534.865C428.828 528.018 472.442 486.896 428.104 438.336C407.173 415.413 366.643 390.832 299.581 367.416C256.665 352.432 283.975 322.477 245.477 283.782C206.978 245.086 163.178 258.018 163.844 222.388L163.858 221.674C164.367 194.517 164.91 165.553 146.009 133.489C129.728 105.869 106.19 87.2714 82.4315 79.6839C57.0044 71.5636 31.3241 76.0537 14.0152 95.5894C-3.35221 115.191 -12.2917 149.94 -4.09121 202.297C1.3155 236.817 -55.6229 208.909 -77.2785 244.229C-98.9341 279.548 -57.3211 322.221 -86.3045 329.83C-136.651 343.048 -170.944 343.111 -223.797 324.688Z" stroke="#C6F8B1" stroke-width="3"/>
<path d="M-239.697 407.897C-309.444 365.146 -243.984 318.997 -202.613 333.417C-152.016 351.024 -120.386 349.921 -74.3127 336.538C-47.9063 329.43 -85.7639 290.304 -66.0362 257.878C-46.3085 225.452 5.54024 250.565 0.742193 219.021C-6.47784 171.114 2.01223 139.436 18.1665 121.713C34.08 103.99 57.6662 100.039 80.9409 107.655C102.698 114.786 124.172 132.029 138.826 157.587C155.488 188.86 158.902 216.546 159.272 242.044C158.961 274.676 198.816 263.219 233.657 298.694C268.498 334.168 243.277 361.651 281.868 375.331C342.366 396.688 378.804 419.026 397.478 439.87C437.572 484.07 397.51 521.589 337.44 528.073C303.09 531.873 274.059 530.59 249.775 530.436C215.678 529.636 235.763 583.634 217.505 603.671C185.481 638.601 148.041 593.382 141.107 639.664C138.357 657.81 136.056 678.815 134.16 703.154C129.674 757.851 115.311 791.816 96.6453 810.488C60.2325 848.889 5.38903 827.517 -28.2424 785.042C-47.4465 760.736 -59.7316 729.566 -57.7447 698.704C-55.5677 664.868 -36.7186 618.105 -54.8942 582.353C-68.2313 555.57 -143.977 588.77 -170.9 540.101C-188.208 508.988 -172.595 468.312 -190.925 449.999C-210.877 430.067 -228.4 415.132 -239.697 407.897Z" stroke="#C6F8B1" stroke-width="3"/>
<path d="M-214.666 409.668C-277.103 371.016 -217.917 329.28 -180.42 342.32C-132.227 359.025 -103.337 356.854 -61.6405 343.295C-37.871 336.682 -71.8425 301.223 -54.0631 271.746C-36.2836 242.268 10.3226 264.484 6.17347 235.991C-0.00502031 192.646 8.04232 164.1 22.9581 148.281C37.4517 132.397 58.8875 128.971 79.9439 136.045C99.637 142.684 118.978 158.514 131.944 181.94C146.131 212.055 153.639 238.168 154.867 261.743C154.882 291.302 190.699 281.31 221.764 313.455C252.829 345.599 229.735 370.572 263.893 382.882C317.655 402.079 349.889 422.093 366.242 440.796C401.95 480.501 365.509 514.371 311.17 520.53C279.941 524.253 253.543 523.565 231.65 524.118C200.975 523.73 218.932 572.587 202.481 591.015C173.645 622.889 139.978 582.655 133.604 624.551C131.013 641.159 128.794 660.262 126.916 682.299C122.229 732.105 108.379 762.289 91.0324 778.381C58.1242 812.725 8.7425 793.338 -21.5189 754.954C-38.8359 732.885 -49.8865 704.626 -48.0562 676.633C-45.9772 644.793 -28.9785 602.011 -46.4483 568.779C-58.7094 544.432 -127.218 574.099 -151.787 530.144C-167.735 501.958 -154.097 465.145 -170.843 448.408C-189.01 430.252 -204.706 416.456 -214.666 409.668Z" stroke="#C6F8B1" stroke-width="3"/>
<path d="M-190.672 411.4C-246.012 376.688 -192.981 339.326 -159.241 351.056C-113.304 366.945 -87.0756 363.732 -49.6528 350.009C-28.4612 343.897 -58.677 311.985 -42.827 285.403C-26.9769 258.822 14.5393 278.243 10.9981 252.727C5.79901 213.834 13.3959 188.359 27.0975 174.42C40.1945 160.35 59.5353 157.464 78.4385 164.034C96.1289 170.218 113.406 184.693 124.744 206.057C136.524 235.102 148.169 259.706 150.279 281.414C150.651 307.973 182.521 299.458 209.928 328.382C237.335 357.307 216.331 379.806 246.164 390.814C293.36 407.953 321.501 425.725 335.597 442.349C367.06 477.694 334.175 507.96 285.423 513.752C257.231 517.376 233.393 517.254 213.831 518.491C186.49 518.482 202.42 562.335 187.749 579.182C162.055 608.046 132.025 572.664 126.235 610.27C123.814 625.377 121.69 642.622 119.848 662.408C114.998 707.438 101.657 733.903 85.599 747.437C56.1405 777.772 12.064 760.274 -14.9507 725.856C-30.4511 705.952 -40.3269 680.525 -38.6769 655.335C-36.7215 625.417 -21.5698 586.53 -38.4141 555.721C-49.6577 533.739 -111.087 559.876 -133.416 520.504C-148.076 495.16 -136.412 462.136 -151.639 446.916C-168.088 430.475 -182.016 417.767 -190.672 411.4Z" stroke="#C6F8B1" stroke-width="3"/>
<path d="M-166.269 412.647C-214.5 381.865 -167.696 348.961 -137.729 359.399C-94.0652 374.497 -70.5212 370.268 -37.4132 356.424C-18.821 350.84 -45.2857 322.482 -31.4002 298.837C-17.5146 275.192 18.8962 291.833 15.9438 269.319C11.695 234.913 18.8142 212.543 31.2798 200.511C42.9584 188.282 60.1874 185.956 76.929 192.032C92.6089 197.769 107.822 210.89 117.542 230.179C126.932 258.135 142.733 281.219 145.745 301.041C146.496 324.572 174.386 317.571 198.139 343.269C221.893 368.966 203.013 388.95 228.507 398.668C269.114 413.773 293.155 429.307 304.998 443.848C332.222 474.821 302.943 501.422 259.82 506.801C234.691 510.296 213.429 510.72 196.215 512.625C172.231 512.971 186.158 551.787 173.294 567.024C150.785 592.826 124.386 562.309 119.217 595.58C116.98 609.167 114.969 624.535 113.181 642.048C108.21 682.252 95.408 704.955 80.6621 715.901C54.7014 742.171 15.9485 726.541 -7.82877 696.103C-21.5181 678.371 -30.2334 655.795 -28.7868 633.435C-26.9834 605.47 -13.7241 570.532 -29.959 542.163C-40.1962 522.558 -94.4786 545.083 -114.584 510.315C-127.968 487.828 -118.315 458.636 -132.024 444.937C-146.759 430.214 -158.918 418.595 -166.269 412.647Z" stroke="#C6F8B1" stroke-width="3"/>
<path d="M-141.173 414.49C-182.197 387.72 -141.646 359.255 -115.502 368.357C-74.1882 382.604 -53.3567 377.338 -24.5933 363.354C-8.6189 358.282 -31.2671 333.534 -19.3387 312.833C-7.41015 292.133 23.8293 305.939 21.4939 286.451C18.2379 256.57 24.8941 237.319 36.1203 227.192C46.3784 216.802 61.4755 215.018 76.027 220.576C89.6697 225.844 102.785 237.581 110.854 254.766C117.813 281.593 137.719 303.12 141.606 321.033C142.71 341.513 166.592 336.002 186.633 358.422C206.674 380.842 189.923 398.312 211.034 406.702C244.984 419.713 264.878 432.969 274.436 445.398C297.352 471.942 271.688 494.884 234.246 499.89C212.209 503.281 193.552 504.273 178.707 506.862C158.11 507.588 169.975 541.316 158.917 554.94C139.596 577.681 116.896 552.085 112.319 580.995C110.255 593.052 108.341 606.53 106.591 621.755C101.463 657.098 89.1933 676.033 75.7665 684.399C53.3088 706.607 19.9471 692.903 -0.528409 666.498C-12.3695 650.971 -19.8885 631.276 -18.6229 611.766C-16.9445 585.782 -5.55741 554.812 -21.13 528.927C-30.3257 511.73 -77.4144 530.682 -95.2318 500.573C-107.297 480.977 -99.6358 455.635 -111.794 443.484C-124.779 430.508 -135.141 420.004 -141.173 414.49Z" stroke="#C6F8B1" stroke-width="3"/>
<path d="M-117.189 416.231C-151.109 393.405 -116.721 369.322 -94.3377 377.115C-55.2749 390.551 -37.1083 384.241 -12.6249 370.091C0.767999 365.524 -18.122 344.324 -8.12712 326.524C1.86777 308.724 28.0119 319.734 26.2838 303.226C24.0065 277.802 30.211 261.627 40.2217 253.385C49.081 244.813 62.081 243.571 74.4776 248.626C86.1159 253.44 97.166 263.822 103.606 278.944C108.157 304.703 132.218 324.725 136.993 340.771C138.457 358.247 158.385 354.218 174.766 373.416C191.146 392.613 176.488 407.605 193.268 414.692C220.643 425.645 236.438 436.658 243.737 447.006C262.403 469.184 240.301 488.514 208.453 493.151C189.456 496.441 173.362 498 160.851 501.274C143.593 502.378 153.431 531.096 144.157 543.137C127.983 562.864 108.924 542.126 104.933 566.74C103.04 577.293 101.223 588.911 99.5095 601.882C94.2203 632.444 82.4581 647.65 70.3212 653.452C51.3189 671.643 23.2676 659.827 6.04039 637.392C-3.98337 624.032 -10.3279 607.171 -9.24457 590.468C-7.69247 566.406 1.8425 539.337 -13.1094 515.875C-21.2887 501.044 -61.2893 516.455 -76.8669 490.934C-87.6451 474.183 -81.9638 452.635 -92.6026 442.002C-103.87 430.741 -112.462 421.325 -117.189 416.231Z" stroke="#C6F8B1" stroke-width="3"/>
<path d="M-92.8027 417.497C-119.607 398.608 -91.4528 378.988 -72.8458 385.489C-36.0539 398.15 -20.5836 390.828 -0.430509 376.564C10.3589 372.524 -4.77725 354.884 3.24955 340.024C11.2763 325.164 32.3066 333.391 31.1677 319.889C29.8406 298.959 35.5672 285.896 44.3418 279.564C51.782 272.836 62.6689 272.155 72.9031 276.716C82.5303 281.082 91.516 290.107 96.339 303.15C98.5115 327.807 126.739 346.336 132.421 360.499C134.265 374.946 150.212 372.431 162.936 388.395C175.66 404.358 163.131 416.83 175.566 422.621C196.346 431.532 208.036 440.301 213.078 448.558C227.5 466.358 209.007 482.017 182.797 486.238C166.868 489.397 153.358 491.5 143.201 495.44C129.306 496.9 137.141 520.575 129.677 531.003C116.695 547.664 101.274 531.794 97.9064 552.068C96.1997 561.099 94.4952 570.836 92.8368 581.53C87.43 607.254 76.2047 618.691 65.3756 621.901C49.8725 636.023 27.1495 626.078 13.1628 607.627C4.95101 596.442 -0.232862 582.436 0.645841 568.566C2.03629 546.465 9.67258 523.35 -4.67592 502.325C-11.8488 489.873 -44.6968 501.668 -58.0489 480.754C-67.55 466.86 -63.8831 449.146 -73.004 440.034C-82.5566 430.492 -89.3795 422.168 -92.8027 417.497Z" stroke="#C6F8B1" stroke-width="3"/>
<path d="M-68.6859 419.077C-88.3744 404.143 -66.3399 388.849 -51.4868 394.025C-16.9036 405.857 -4.0752 397.449 11.8292 382.96C20.0482 379.405 8.68421 365.312 14.8004 353.324C20.9167 341.335 36.8528 346.743 36.3393 336.209C36.02 319.714 41.3196 309.706 48.8967 305.244C54.9531 300.319 63.7529 300.168 71.8343 304.221C79.4591 308.128 86.3744 315.801 89.5528 326.792C89.2784 350.43 121.715 367.456 128.283 379.769C130.474 391.226 142.48 390.175 151.528 402.919C160.575 415.663 150.111 425.687 158.208 430.165C172.404 437.001 179.985 443.519 182.755 449.697C192.909 463.131 177.942 475.217 157.302 479.109C144.397 482.193 133.434 484.886 125.601 489.538C115.036 491.399 120.818 510.081 115.12 518.95C105.257 532.635 93.4877 521.633 90.6792 537.638L90.5897 538.074C89.0673 545.484 87.4753 553.234 85.8691 561.526C80.258 582.508 69.5072 590.236 59.9499 590.888C47.8737 601.024 30.4596 592.983 19.7355 578.498C13.3493 569.477 9.35403 558.295 10.0684 547.214C11.361 526.993 17.178 507.737 3.45195 489.116C-2.69716 479.024 -28.4955 487.328 -39.5945 470.994C-47.8028 459.94 -46.0971 445.996 -53.6959 438.4C-61.5283 430.572 -66.5737 423.333 -68.6859 419.077Z" stroke="#C6F8B1" stroke-width="3"/>
<path d="M-43.6047 420.977C-56.0869 410.058 -40.3262 399.225 -29.3048 403.068C2.88754 414.046 12.9886 404.625 24.5313 390.029C30.1266 386.994 22.5779 376.518 26.7283 367.488C30.8788 358.459 41.6379 361.039 41.7354 353.539C42.3985 341.582 47.2236 334.703 53.5513 332.15C58.1801 329.07 64.841 329.464 70.7285 332.997C76.3126 336.433 81.1291 342.717 82.6616 351.594C79.9756 374.065 116.461 389.525 123.898 399.916C126.441 408.314 134.433 408.755 139.772 418.215C145.111 427.674 136.79 435.17 140.507 438.321C148.049 443.065 151.486 447.305 151.978 451.369C157.828 460.369 146.494 468.781 131.55 472.285C121.748 475.254 113.401 478.504 107.943 483.825C100.771 486.057 104.497 499.638 100.614 506.883C93.9497 517.488 85.88 511.404 83.6731 523.033C82.302 529.037 80.7828 535.03 79.1892 541.189C73.4399 557.288 63.2401 561.241 55.0131 559.315C46.4523 565.379 34.4355 559.263 27.0125 548.819C22.4744 542.008 19.6726 533.715 20.2003 525.495C21.3573 507.283 25.2902 492.018 12.2373 475.9C7.13126 468.222 -11.4522 472.937 -20.261 461.271C-27.1469 453.114 -27.4361 443.032 -33.4807 436.989C-39.56 430.913 -42.8097 424.794 -43.6047 420.977Z" stroke="#C6F8B1" stroke-width="3"/>
<path d="M-19.0817 422.119C-24.4068 415.184 -14.8694 408.777 -7.64634 411.299C22.2226 421.455 29.6193 411.011 36.8308 396.286C39.8211 393.764 36.0596 386.874 38.2578 380.777C40.456 374.679 46.0747 374.447 46.7806 369.957C48.423 362.502 52.7838 358.729 57.8782 358.076C61.0931 356.829 65.6351 357.767 69.3481 360.789C72.9095 363.761 75.6447 368.671 75.5418 375.455C70.4563 396.798 111.043 410.738 119.358 419.237C122.259 424.602 126.267 426.53 127.921 432.732C129.575 438.934 123.375 443.923 122.736 445.755C123.661 448.42 122.976 450.395 121.199 452.359C122.771 456.955 115.037 461.72 105.743 464.843C99.0173 467.7 93.2627 471.509 90.1644 477.505C86.3624 480.111 88.0477 488.632 85.9653 494.27C82.4783 501.825 78.0828 500.631 76.4723 507.92C75.2774 512.401 73.8595 516.512 72.3075 520.393C66.4127 531.652 56.7425 531.849 49.8238 527.351C44.7493 529.369 38.0882 525.161 33.9407 518.724C31.2353 514.103 29.6171 508.675 29.959 503.29C30.9776 487.051 33.0379 475.736 20.6293 462.081C16.5528 456.794 5.1239 457.942 -1.41863 450.904C-6.99967 445.619 -9.27706 439.365 -13.7846 434.859C-18.1286 430.516 -19.5964 425.504 -19.0817 422.119Z" stroke="#C6F8B1" stroke-width="3"/>
</g>
</svg>
